<svg xmlns="http://www.w3.org/2000/svg" xmlns:xlink="http://www.w3.org/1999/xlink" width="126.754" height="40.155" viewBox="0 0 126.754 40.155">
  <defs>
    <linearGradient id="linear-gradient" x1="0.136" y1="0.904" x2="0.809" y2="-0.081" gradientUnits="objectBoundingBox">
      <stop offset="0" stop-color="#f7a936"/>
      <stop offset="0.125" stop-color="#f28841"/>
      <stop offset="0.272" stop-color="#ee6a4d"/>
      <stop offset="0.428" stop-color="#eb5255"/>
      <stop offset="0.593" stop-color="#e8425c"/>
      <stop offset="0.773" stop-color="#e7385f"/>
      <stop offset="1" stop-color="#e73561"/>
    </linearGradient>
    <linearGradient id="linear-gradient-2" x1="0.118" y1="1.008" x2="0.882" y2="-0.008" xlink:href="#linear-gradient"/>
    <linearGradient id="linear-gradient-3" x1="-0.669" y1="0.91" x2="1.669" y2="0.09" xlink:href="#linear-gradient"/>
    <linearGradient id="linear-gradient-4" x1="0.005" y1="3.12" x2="0.664" y2="-0.107" xlink:href="#linear-gradient"/>
    <linearGradient id="linear-gradient-5" x1="0.362" y1="1.001" x2="1.015" y2="-2.23" xlink:href="#linear-gradient"/>
    <linearGradient id="linear-gradient-6" x1="-1.213" y1="0.898" x2="2.213" y2="0.102" xlink:href="#linear-gradient"/>
    <linearGradient id="linear-gradient-7" x1="-0.041" y1="0.977" x2="0.694" y2="0.181" xlink:href="#linear-gradient"/>
    <linearGradient id="linear-gradient-8" x1="0.14" y1="0.876" x2="0.706" y2="0.118" xlink:href="#linear-gradient"/>
  </defs>
  <g id="Grupo_1182" data-name="Grupo 1182" transform="translate(-1202.144 -363.982)">
    <path id="Trazado_5371" data-name="Trazado 5371" d="M1210.627,400.846a.665.665,0,0,0,.625.444h0a.668.668,0,0,0,0-1.337h0a.664.664,0,0,0-.627.445h-1.409l-2.526,2.51h-1.2a.665.665,0,0,0-.624-.444h0a.668.668,0,0,0-.474,1.14.662.662,0,0,0,.472.2h0a.664.664,0,0,0,.627-.445h1.387l2.526-2.51Zm-3.764,2.474-.02-.02v.021h-1.378a.633.633,0,1,1,0-.377h1.243l2.526-2.509h1.42a.633.633,0,1,1,0,.377h-1.264Z" transform="translate(-1.158 -20.322)" fill="none"/>
    <path id="Trazado_5372" data-name="Trazado 5372" d="M1447.073,367.318h0a.85.85,0,1,0,.005.4h-.007Z" transform="translate(-137.43 -1.524)" fill="none"/>
    <path id="Trazado_5373" data-name="Trazado 5373" d="M1312.575,389.4a.594.594,0,0,0-.594-.594h-3.109a.594.594,0,0,0-.594.594v12.031c0,4.253-3.564,4.584-4.656,4.584s-4.656-.331-4.656-4.584V389.4a.594.594,0,0,0-.594-.594h-3.108a.594.594,0,0,0-.594.594v12.031c0,5.3,3.43,8.592,8.953,8.592s8.953-3.292,8.953-8.592Z" transform="translate(-52.272 -14.025)" fill="url(#linear-gradient)"/>
    <rect id="Rect치ngulo_318" data-name="Rect치ngulo 318" width="4.297" height="5.593" rx="1.365" transform="translate(1289.103 367.078)" fill="url(#linear-gradient-2)"/>
    <rect id="Rect치ngulo_319" data-name="Rect치ngulo 319" width="4.297" height="21.217" rx="1.365" transform="translate(1289.103 374.783)" fill="url(#linear-gradient-3)"/>
    <path id="Trazado_5374" data-name="Trazado 5374" d="M1216.693,378.767a8.935,8.935,0,0,1,2.393-2.1,9.317,9.317,0,0,1,4.912-1.288,10.55,10.55,0,0,1,4.167.765,8.753,8.753,0,0,1,2.634,1.719.594.594,0,0,0,.83-.009l2.288-2.288a.6.6,0,0,0-.021-.861,14.854,14.854,0,0,0-3.979-2.628,14.291,14.291,0,0,0-5.919-1.128,14.045,14.045,0,0,0-10.185,4.227,13.577,13.577,0,0,0-1.829,2.332q.2-.01.408-.01A7.9,7.9,0,0,1,1216.693,378.767Z" transform="translate(-5.558 -3.935)" fill="url(#linear-gradient-4)"/>
    <path id="Trazado_5375" data-name="Trazado 5375" d="M1231.827,420.492a.594.594,0,0,0-.831-.008,8.983,8.983,0,0,1-2.634,1.738,10.868,10.868,0,0,1-4.368.785,9.432,9.432,0,0,1-4.912-1.268,8.713,8.713,0,0,1-2.408-2.113,7.9,7.9,0,0,1-4.287,1.261q-.206,0-.41-.01a13.785,13.785,0,0,0,6.361,5.452,14.278,14.278,0,0,0,5.657,1.107,15.045,15.045,0,0,0,6-1.127,14.162,14.162,0,0,0,4.115-2.676.592.592,0,0,0,.01-.849Z" transform="translate(-5.555 -31.435)" fill="url(#linear-gradient-5)"/>
    <path id="Trazado_5376" data-name="Trazado 5376" d="M1211.3,401.3a.633.633,0,1,0-.6-.821h-1.42l-2.526,2.509h-1.243a.633.633,0,1,0,0,.377h1.378v-.021l.02.02,2.526-2.509h1.264A.63.63,0,0,0,1211.3,401.3Z" transform="translate(-1.205 -20.368)" fill="none"/>
    <path id="Trazado_5377" data-name="Trazado 5377" d="M1211.3,399.62h-2.318a.671.671,0,0,1-.628.436h-.007a.675.675,0,0,1,.007-1.35h.006a.668.668,0,0,1,.632.465h2.439a4.71,4.71,0,0,0-9.075-2.509h2.367a.674.674,0,1,1,.633.9h-.006a.672.672,0,0,1-.627-.451h-2.482a4.711,4.711,0,0,0,9.059,2.509Zm-5.6,0h-1.372a.664.664,0,0,1-.627.445h0a.669.669,0,0,1-.667-.671.67.67,0,0,1,.669-.667h0a.665.665,0,0,1,.624.444h1.2l2.526-2.51h1.409a.664.664,0,0,1,.627-.445h0a.668.668,0,0,1,0,1.337h0a.665.665,0,0,1-.625-.444h-1.223l-2.526,2.51Z" transform="translate(0 -16.587)" fill="#f7a936"/>
    <path id="Trazado_5378" data-name="Trazado 5378" d="M1277.149,363.982h-1.36v3.527a.888.888,0,0,1,.662.848.856.856,0,1,1-1.713-.011.89.89,0,0,1,.656-.837v-3.527h-1.354a.594.594,0,0,0-.594.594v30.83a.594.594,0,0,0,.594.594h3.109a.594.594,0,0,0,.594-.594v-30.83A.594.594,0,0,0,1277.149,363.982Z" transform="translate(-40.282)" fill="url(#linear-gradient-6)"/>
    <path id="Trazado_5379" data-name="Trazado 5379" d="M1350.11,428.548a.855.855,0,1,0-1.037.826h.37A.853.853,0,0,0,1350.11,428.548Z" transform="translate(-82.627 -35.99)" fill="none"/>
    <path id="Trazado_5380" data-name="Trazado 5380" d="M1366.869,403.715c0-4.034-2.4-6.852-5.844-6.852a5.656,5.656,0,0,0-5.574,4.595.613.613,0,0,0-.018.149v4.217a.617.617,0,0,0,.018.15,5.655,5.655,0,0,0,5.574,4.594C1364.467,410.567,1366.869,407.749,1366.869,403.715Z" transform="translate(-86.6 -18.576)" fill="none"/>
    <path id="Trazado_5381" data-name="Trazado 5381" d="M1365.586,385.139c0-6.294-4.113-10.861-9.781-10.861a9.306,9.306,0,0,0-5.032,1.429.6.6,0,0,1-.92-.5V364.576a.594.594,0,0,0-.594-.594h-3.109a.594.594,0,0,0-.594.594v30.83a.594.594,0,0,0,.594.594h1.3v-2.616h.016a.852.852,0,1,1,.37,0h.009V396h1.414a.594.594,0,0,0,.594-.594v-.921a.047.047,0,0,1,.072-.04,9.65,9.65,0,0,0,5.881,1.554C1361.473,396,1365.586,391.432,1365.586,385.139Zm-15.715,2.258a.617.617,0,0,1-.018-.15v-4.217a.613.613,0,0,1,.018-.149,5.656,5.656,0,0,1,5.574-4.595c3.441,0,5.844,2.818,5.844,6.852s-2.4,6.852-5.844,6.852A5.655,5.655,0,0,1,1349.872,387.4Z" transform="translate(-81.02)" fill="url(#linear-gradient-7)"/>
    <g id="Grupo_1181" data-name="Grupo 1181" transform="translate(1297.844 363.982)">
      <path id="Trazado_5382" data-name="Trazado 5382" d="M1457.789,450.647h-.178a.859.859,0,1,0,0-.395h.176Z" transform="translate(-1442.169 -412.348)" fill="none"/>
      <path id="Trazado_5383" data-name="Trazado 5383" d="M1452.576,374.783h-3.248a.594.594,0,0,0-.559.392l-4.448,12.293a.594.594,0,0,1-1.116,0l-4.53-12.3a.594.594,0,0,0-.557-.388h-7.366a.6.6,0,0,1-.594-.594V372.9c0-3.624,1.143-4.908,4.368-4.908h1.122a.594.594,0,0,0,.594-.594v-1.207h-2.319a.848.848,0,1,1-.005-.4h2.324v-1.219a.594.594,0,0,0-.594-.594H1434.2c-5.534,0-8.34,3.012-8.34,8.953v1.254a.594.594,0,0,1-.594.594h-2.556a.594.594,0,0,0-.594.594v2.82a.594.594,0,0,0,.594.594h2.556a.594.594,0,0,1,.594.594v16.021a.594.594,0,0,0,.594.594h3.108a.594.594,0,0,0,.594-.594V379.385a.594.594,0,0,1,.594-.594h4.295a.594.594,0,0,1,.555.382l5.889,15.407a.592.592,0,0,1,0,.422l-1.289,3.417c-.526,1.412-2.3,1.709-3.7,1.709h-1.23a.594.594,0,0,0-.594.594v1.165h2.879a.852.852,0,1,1,0,.395h-2.877v1.262a.594.594,0,0,0,.594.594h1.194c4.308,0,6.692-1.482,7.969-4.957l8.694-23.6A.594.594,0,0,0,1452.576,374.783Z" transform="translate(-1422.117 -363.982)" fill="url(#linear-gradient-8)"/>
    </g>
  </g>
</svg>
