<svg xmlns="http://www.w3.org/2000/svg" width="387.692" height="220.569" viewBox="0 0 387.692 220.569">
  <g id="Grupo_1209" data-name="Grupo 1209" transform="translate(25.113 -72.277)">
    <g id="Grupo_893" data-name="Grupo 893" transform="translate(10.887 102.882)">
      <path id="Trazado_5094" data-name="Trazado 5094" d="M439.646,820.338a2.1,2.1,0,0,1-1.844-.946,8.359,8.359,0,0,0-14.973.173,2.082,2.082,0,0,1-1.819.965l-215.5,2.215a2.551,2.551,0,0,1-2.392-2.683l-.366-48.383c8.616-2.327,15.046-11.282,14.967-21.763s-6.644-19.291-15.294-21.438l-.366-48.383a2.568,2.568,0,0,1,2.351-2.732l215.5-2.215a2.075,2.075,0,0,1,1.844.946,8.359,8.359,0,0,0,14.974-.173,2.113,2.113,0,0,1,1.819-.965l75.753-.779a2.551,2.551,0,0,1,2.393,2.683l.366,48.308c-8.757,2.212-15.292,11.19-15.211,21.827s6.75,19.491,15.539,21.524l.366,48.309a2.568,2.568,0,0,1-2.351,2.732Z" transform="translate(-202.059 -668.781)" fill="#9f9f9f" opacity="0.3"/>
      <g id="Grupo_892" data-name="Grupo 892" transform="translate(2.874 5.393)">
        <g id="Grupo_891" data-name="Grupo 891" transform="translate(0)">
          <path id="Trazado_5092" data-name="Trazado 5092" d="M486.012,736.835c.07,9.087,6.7,16.389,14.81,16.307l.379,49.117c.029,3.776-2.687,6.872-6.06,6.906l-72.344.73a5.718,5.718,0,0,1-5-2.809,4.418,4.418,0,0,0-7.845.079A5.747,5.747,0,0,1,405,810.074L199.2,812.15c-3.372.034-6.136-3.006-6.165-6.783l-.379-49.129c8.009-.212,14.392-7.593,14.323-16.588s-6.566-16.233-14.576-16.283l-.379-49.13c-.029-3.776,2.688-6.872,6.06-6.906l205.8-2.076a5.717,5.717,0,0,1,5,2.809,4.418,4.418,0,0,0,7.845-.079,5.748,5.748,0,0,1,4.954-2.909l72.344-.73c3.373-.034,6.136,3.007,6.165,6.783l.379,49.117C492.454,720.327,485.942,727.762,486.012,736.835Z" transform="translate(-191.639 -663.962)" fill="#fdf6f0"/>
          <path id="Trazado_5093" data-name="Trazado 5093" d="M198.527,811.917c-3.555,0-6.462-3.222-6.492-7.212l-.382-49.525.378-.01c7.758-.205,14.015-7.443,13.948-16.134s-6.435-15.788-14.2-15.837l-.378,0-.382-49.525a7.709,7.709,0,0,1,1.867-5.167,6.139,6.139,0,0,1,4.573-2.176l205.8-2.074a6.062,6.062,0,0,1,5.319,3,4.168,4.168,0,0,0,3.581,2.153h.04a4.187,4.187,0,0,0,3.586-2.224,6.093,6.093,0,0,1,5.273-3.107l72.344-.729a6.125,6.125,0,0,1,4.605,2.084,7.673,7.673,0,0,1,1.946,5.129l.383,49.518-.383,0a13.524,13.524,0,0,0-10.08,4.792,17.374,17.374,0,0,0,.174,22.616,13.512,13.512,0,0,0,10.153,4.589l.383,0,.382,49.518a7.706,7.706,0,0,1-1.867,5.167,6.137,6.137,0,0,1-4.573,2.176l-72.344.729a6.045,6.045,0,0,1-5.319-3,4.17,4.17,0,0,0-3.581-2.153h-.04a4.187,4.187,0,0,0-3.586,2.224,6.093,6.093,0,0,1-5.273,3.107l-205.8,2.074Zm-6.1-55.887L192.8,804.7c.027,3.53,2.617,6.375,5.778,6.344l205.8-2.074a5.345,5.345,0,0,0,4.637-2.708,4.934,4.934,0,0,1,4.222-2.622,4.858,4.858,0,0,1,4.263,2.539,5.28,5.28,0,0,0,4.677,2.613l72.344-.729a5.42,5.42,0,0,0,4.038-1.92A6.772,6.772,0,0,0,500.2,801.6l-.376-48.648a14.2,14.2,0,0,1-10.308-4.833,17.811,17.811,0,0,1-4.506-11.895h0a17.866,17.866,0,0,1,4.321-11.972,14.277,14.277,0,0,1,10.232-5.039l-.376-48.648a6.739,6.739,0,0,0-1.711-4.505,5.358,5.358,0,0,0-4.067-1.839l-72.344.729a5.346,5.346,0,0,0-4.637,2.708,4.777,4.777,0,0,1-8.484.084,5.316,5.316,0,0,0-4.62-2.613h-.057l-205.8,2.074a5.419,5.419,0,0,0-4.038,1.92,6.772,6.772,0,0,0-1.642,4.539l.376,48.667c8.005.275,14.51,7.678,14.58,16.7S200.425,755.593,192.426,756.03Z" transform="translate(-191.022 -663.345)" fill="#fdf6f0"/>
        </g>
        <path id="Trazado_5094-2" data-name="Trazado 5094" d="M428.954,812.171a2.016,2.016,0,0,1-1.761-.893,8.024,8.024,0,0,0-14.3.163,1.994,1.994,0,0,1-1.737.911l-205.8,2.092a2.42,2.42,0,0,1-2.285-2.533l-.35-45.68c8.228-2.2,14.369-10.651,14.293-20.547s-6.345-18.213-14.606-20.24l-.35-45.68a2.435,2.435,0,0,1,2.246-2.58l205.8-2.091a1.989,1.989,0,0,1,1.761.893,8.024,8.024,0,0,0,14.3-.163,2.024,2.024,0,0,1,1.737-.911l72.344-.735a2.419,2.419,0,0,1,2.285,2.533l.349,45.609c-8.363,2.089-14.6,10.564-14.527,20.607s6.446,18.4,14.84,20.321l.349,45.61a2.434,2.434,0,0,1-2.246,2.579Z" transform="translate(-197.828 -670.024)" fill="#fff"/>
      </g>
    </g>
    <text id="Registro_de_usuarios" data-name="Registro
de usuarios" transform="translate(153.733 155.561)" fill="#232323" font-size="24" font-family="SFProDisplay-Semibold, SF Pro Display" font-weight="600" letter-spacing="0.015em"><tspan x="0" y="23">Registro</tspan><tspan x="0" y="48">de usuarios</tspan></text>
    <g id="Grupo_1232" data-name="Grupo 1232" transform="translate(55.654 147.46)">
      <g id="Grupo_1231" data-name="Grupo 1231" transform="translate(0 0.011)">
        <path id="Trazado_5390" data-name="Trazado 5390" d="M60.448,10.81A35.077,35.077,0,1,0,10.8,60.35c.02.02.028.05.048.068.2.2.423.361.629.549.564.5,1.128,1.02,1.722,1.5.318.251.649.5.975.732.561.418,1.123.837,1.709,1.223.4.251.809.5,1.218.752.541.326,1.08.654,1.639.952.474.251.957.466,1.438.694.526.251,1.045.5,1.584.727s1.08.4,1.626.6,1.017.376,1.541.536c.591.178,1.2.316,1.8.464.5.123.987.263,1.5.363.692.138,1.393.226,2.095.321.434.06.857.145,1.3.188,1.148.113,2.305.175,3.473.175s2.325-.063,3.473-.175c.439-.043.862-.128,1.3-.188.7-.1,1.4-.183,2.095-.321.5-.1,1-.251,1.5-.363.6-.148,1.208-.286,1.8-.464.524-.16,1.03-.356,1.541-.536s1.093-.376,1.626-.6,1.057-.479,1.584-.727c.481-.228.965-.444,1.438-.694.559-.3,1.1-.627,1.639-.952.408-.251.819-.479,1.218-.752.586-.386,1.148-.8,1.709-1.223.326-.251.656-.476.975-.732.594-.476,1.158-.982,1.722-1.5.205-.188.426-.353.629-.549.02-.017.028-.048.048-.068A35.038,35.038,0,0,0,60.448,10.81ZM54.816,57.727c-.456.4-.927.782-1.4,1.15-.281.216-.561.428-.85.634-.454.328-.915.639-1.383.937-.341.218-.689.428-1.04.634q-.662.376-1.343.752c-.4.205-.809.4-1.22.589s-.864.393-1.308.571-.915.346-1.378.5c-.423.145-.847.3-1.275.423-.5.15-1.025.273-1.544.4-.406.1-.807.2-1.218.283-.594.115-1.2.2-1.809.278-.346.045-.689.108-1.037.143-.962.093-1.937.148-2.922.148s-1.96-.055-2.922-.148c-.348-.035-.692-.1-1.037-.143-.609-.083-1.215-.163-1.809-.278-.411-.08-.812-.188-1.218-.283-.519-.125-1.035-.251-1.544-.4-.428-.128-.852-.278-1.275-.423-.464-.16-.927-.323-1.378-.5s-.877-.373-1.308-.571-.819-.383-1.22-.589c-.454-.236-.9-.484-1.343-.752-.351-.205-.7-.416-1.04-.634-.469-.3-.93-.609-1.383-.937-.288-.205-.569-.418-.85-.634-.476-.368-.947-.752-1.4-1.15-.11-.083-.211-.188-.318-.283A20.1,20.1,0,0,1,28.7,38.662a14.857,14.857,0,0,0,12.765,0A20.1,20.1,0,0,1,55.129,57.443C55.024,57.539,54.923,57.634,54.816,57.727ZM26.344,20.1A10.023,10.023,0,1,1,39.994,33.751a.053.053,0,0,0-.043.015,10.616,10.616,0,0,1-2.095.887c-.13.038-.251.088-.388.12-.251.065-.514.11-.772.155a10.15,10.15,0,0,1-1.471.148H34.94a10.15,10.15,0,0,1-1.471-.148c-.251-.045-.516-.09-.772-.155-.133-.033-.251-.083-.388-.12a10.608,10.608,0,0,1-2.095-.887l-.045-.015A10.023,10.023,0,0,1,26.344,20.1Zm33.23,32.373h0A25.183,25.183,0,0,0,46.158,35.2a15.035,15.035,0,1,0-22.151,0A25.183,25.183,0,0,0,10.591,52.475a30.07,30.07,0,1,1,48.983,0Z" transform="translate(0 -0.011)" fill="#e94859"/>
      </g>
    </g>
  </g>
</svg>
