<svg xmlns="http://www.w3.org/2000/svg" xmlns:xlink="http://www.w3.org/1999/xlink" width="1547" height="130" viewBox="0 0 1547 130">
  <defs>
    <filter id="Rectángulo_320" x="0" y="0" width="479" height="130" filterUnits="userSpaceOnUse">
      <feOffset input="SourceAlpha"/>
      <feGaussianBlur stdDeviation="9" result="blur"/>
      <feFlood flood-opacity="0.2"/>
      <feComposite operator="in" in2="blur"/>
      <feComposite in="SourceGraphic"/>
    </filter>
    <filter id="Rectángulo_321" x="458" y="0" width="511" height="130" filterUnits="userSpaceOnUse">
      <feOffset input="SourceAlpha"/>
      <feGaussianBlur stdDeviation="9" result="blur-2"/>
      <feFlood flood-opacity="0.2"/>
      <feComposite operator="in" in2="blur-2"/>
      <feComposite in="SourceGraphic"/>
    </filter>
    <filter id="Rectángulo_322" x="952" y="0" width="595" height="130" filterUnits="userSpaceOnUse">
      <feOffset input="SourceAlpha"/>
      <feGaussianBlur stdDeviation="9" result="blur-3"/>
      <feFlood flood-opacity="0.2"/>
      <feComposite operator="in" in2="blur-3"/>
      <feComposite in="SourceGraphic"/>
    </filter>
  </defs>
  <g id="Grupo_1313" data-name="Grupo 1313" transform="translate(27 27)">
    <g id="Grupo_1292" data-name="Grupo 1292">
      <g transform="matrix(1, 0, 0, 1, -27, -27)" filter="url(#Rectángulo_320)">
        <g id="Rectángulo_320-2" data-name="Rectángulo 320" transform="translate(27 27)" fill="#fff" stroke="#dedede" stroke-width="1">
          <rect width="425" height="76" rx="38" stroke="none"/>
          <rect x="0.5" y="0.5" width="424" height="75" rx="37.5" fill="none"/>
        </g>
      </g>
      <g id="Grupo_1263" data-name="Grupo 1263" transform="translate(55.287 18.038)">
        <g id="Grupo_1262" data-name="Grupo 1262">
          <path id="Trazado_5420" data-name="Trazado 5420" d="M77.448,112.489a5.68,5.68,0,0,1-2.081.616.585.585,0,0,0-.52.67,3.764,3.764,0,0,1,.049.573c0,2.435-2.313,4.416-5.157,4.416a5.236,5.236,0,0,1-4.748-2.691,1.06,1.06,0,0,0-.409-.439v-7.39l.134,0c1.143-.041,2.564-.092,3.356.673a2.762,2.762,0,0,1,.71,1.827,1.757,1.757,0,1,0,1.172-.012,3.921,3.921,0,0,0-1.07-2.657c-1.149-1.109-2.918-1.046-4.21-1l-.092,0V103.4c5.966.012,8.977.257,9.238,3.471a1.757,1.757,0,1,0,1.171-.012,4.225,4.225,0,0,0-3.3-4.036,26.394,26.394,0,0,0-7.1-.593V98.572a26.4,26.4,0,0,0,7.1-.593,4.225,4.225,0,0,0,3.3-4.036,1.755,1.755,0,1,0-1.171-.012c-.261,3.214-3.272,3.459-9.238,3.471V93.842l.092,0c.274.01.569.02.875.02a4.655,4.655,0,0,0,3.335-1.02,3.92,3.92,0,0,0,1.07-2.656,1.755,1.755,0,1,0-1.172-.012A2.761,2.761,0,0,1,68.073,92c-.792.764-2.214.713-3.356.673l-.134,0V90.137a.585.585,0,0,0-1.17,0v25.5a1.06,1.06,0,0,0-.409.44,5.236,5.236,0,0,1-4.747,2.691c-2.843,0-5.157-1.981-5.157-4.416a3.763,3.763,0,0,1,.049-.573,3.136,3.136,0,0,1,.81-1.622.585.585,0,0,0-.812-.842,4.08,4.08,0,0,0-1.02,1.72,5.248,5.248,0,0,1-3.306-2.024.585.585,0,0,0-.954.677,6.34,6.34,0,0,0,4.066,2.5c0,.054,0,.108,0,.161,0,3.08,2.838,5.585,6.326,5.585A6.432,6.432,0,0,0,64,116.7a6.431,6.431,0,0,0,5.741,3.235c3.488,0,6.326-2.506,6.326-5.585,0-.053,0-.106,0-.161a6.777,6.777,0,0,0,1.928-.662.585.585,0,0,0-.543-1.036Zm-8.061-.688a.585.585,0,1,1-.586.585A.586.586,0,0,1,69.387,111.8Zm5.038-3.871a.585.585,0,1,1-.586.585A.586.586,0,0,1,74.424,107.93Zm0-16.231a.585.585,0,1,1-.586.585A.586.586,0,0,1,74.424,91.7Zm-5.038-3.755a.585.585,0,1,1-.586.585A.586.586,0,0,1,69.387,87.945Z" transform="translate(-44.036 -80.009)" fill="#232323"/>
          <path id="Trazado_5421" data-name="Trazado 5421" d="M4.04,89.825a4.145,4.145,0,0,1,1.22-2.891.585.585,0,0,0-.282-.982A4.592,4.592,0,0,1,1.17,81.7a4.349,4.349,0,0,1,1.618-3.3.585.585,0,0,0,.026-.864,2.906,2.906,0,0,1-.926-2.086,3.439,3.439,0,0,1,3.6-3.16,2.622,2.622,0,0,1,1.528.569.585.585,0,1,0,.775-.876,3.706,3.706,0,0,0-1.972-.837,2.761,2.761,0,0,1-.346-1.322,3.005,3.005,0,0,1,1.4-2.474.585.585,0,1,0-.658-.967,4.156,4.156,0,0,0-1.914,3.441,3.877,3.877,0,0,0,.261,1.392A4.466,4.466,0,0,0,.718,75.448,3.992,3.992,0,0,0,1.59,77.92,5.4,5.4,0,0,0,0,81.7a5.612,5.612,0,0,0,3.833,5.126,5.27,5.27,0,0,0-.962,3,.585.585,0,1,0,1.17,0Z" transform="translate(0 -61.112)" fill="#232323"/>
          <path id="Trazado_5422" data-name="Trazado 5422" d="M141.757,20.587a5.4,5.4,0,0,0-1.59-3.779,3.992,3.992,0,0,0,.872-2.472A4.466,4.466,0,0,0,137.19,10.1a3.875,3.875,0,0,0,.261-1.392,4.644,4.644,0,0,0-4.891-4.335c-.054,0-.112,0-.172,0a4.756,4.756,0,0,0-1.654-2.94A5.951,5.951,0,0,0,126.9,0h-.078a5.739,5.739,0,0,0-5.025,2.751A5.739,5.739,0,0,0,116.77,0h-.078a5.952,5.952,0,0,0-3.836,1.438,4.756,4.756,0,0,0-1.654,2.94c-.06,0-.118,0-.172,0a.585.585,0,1,0,0,1.17,5.429,5.429,0,0,1,.65.047.585.585,0,0,0,.659-.626l0-.04c0-.011,0-.021,0-.026.036-1.994,2.038-3.7,4.373-3.731a4.559,4.559,0,0,1,4.108,2.225,1.063,1.063,0,0,0,.4.413V7.429a.585.585,0,0,0,1.17,0V3.808a1.063,1.063,0,0,0,.4-.413A4.542,4.542,0,0,1,126.82,1.17h.064c2.335.029,4.338,1.737,4.373,3.725a3.594,3.594,0,0,1-.645,1.924.585.585,0,1,0,.9.75,4.232,4.232,0,0,0,.856-2.019c.07,0,.137-.006.2-.006a3.481,3.481,0,0,1,3.721,3.166,2.8,2.8,0,0,1-.486,1.556.585.585,0,0,0,.471.909,3.439,3.439,0,0,1,3.6,3.16,2.906,2.906,0,0,1-.926,2.086,2.6,2.6,0,0,1-1.447.694.585.585,0,0,0,.046,1.168l.047,0a3.547,3.547,0,0,0,1.735-.662,4.248,4.248,0,0,1,1.264,2.968,4.592,4.592,0,0,1-3.808,4.253.585.585,0,0,0-.282.982,4.145,4.145,0,0,1,1.22,2.891,3.922,3.922,0,0,1-.632,2.117.585.585,0,1,0,.985.631,5.088,5.088,0,0,0,.817-2.748,5.271,5.271,0,0,0-.962-3,5.612,5.612,0,0,0,3.833-5.126Z" transform="translate(-101.833)" fill="#232323"/>
          <path id="Trazado_5423" data-name="Trazado 5423" d="M84.7,200.428a.585.585,0,0,0,.551.617h.033a.585.585,0,0,0,.583-.552,4.162,4.162,0,0,1,3.149-3.662.585.585,0,0,0-.276-1.137,5.078,5.078,0,0,0-3.459,2.716,5.661,5.661,0,0,0-.581,2.017Z" transform="translate(-78.096 -180.42)" fill="#232323"/>
          <path id="Trazado_5424" data-name="Trazado 5424" d="M163.2,83.095a.586.586,0,0,0-.637.527,3.326,3.326,0,0,1-2.157,2.568.585.585,0,0,0,.389,1.1,4.5,4.5,0,0,0,2.933-3.562A.585.585,0,0,0,163.2,83.095Z" transform="translate(-147.542 -76.613)" fill="#232323"/>
          <path id="Trazado_5425" data-name="Trazado 5425" d="M162.621,353.244a.585.585,0,1,0,.5-1.056,3.864,3.864,0,0,1-2.049-3.727.585.585,0,0,0-1.165-.107,5.031,5.031,0,0,0,2.711,4.89Z" transform="translate(-147.43 -320.701)" fill="#232323"/>
          <path id="Trazado_5426" data-name="Trazado 5426" d="M173.1,247.906a.585.585,0,1,0,.5,1.056,3.17,3.17,0,0,0,1.712-3.082.585.585,0,0,0-1.165.109A2.007,2.007,0,0,1,173.1,247.906Z" transform="translate(-159.292 -226.218)" fill="#232323"/>
          <path id="Trazado_5427" data-name="Trazado 5427" d="M355.338,255.325a.585.585,0,1,0,.585-.585A.585.585,0,0,0,355.338,255.325Z" transform="translate(-327.63 -234.876)" fill="#232323"/>
          <path id="Trazado_5428" data-name="Trazado 5428" d="M406.913,255.91a.585.585,0,1,0-.585-.585A.585.585,0,0,0,406.913,255.91Z" transform="translate(-374.644 -234.876)" fill="#232323"/>
          <path id="Trazado_5429" data-name="Trazado 5429" d="M317.608,461.825a.585.585,0,1,0,.585-.585A.585.585,0,0,0,317.608,461.825Z" transform="translate(-292.842 -425.274)" fill="#232323"/>
          <path id="Trazado_5430" data-name="Trazado 5430" d="M318.777,48.825a.585.585,0,1,0-.585.585A.585.585,0,0,0,318.777,48.825Z" transform="translate(-292.841 -44.478)" fill="#232323"/>
        </g>
        <text id="Inteligencia_Artificial" data-name="Inteligencia Artificial" transform="translate(62.426 29.962)" fill="#232323" font-size="28" font-family="SFProDisplay-Medium, SF Pro Display" font-weight="500" letter-spacing="0.015em"><tspan x="0" y="0">Inteligencia Artificial</tspan></text>
      </g>
    </g>
    <g id="Grupo_1291" data-name="Grupo 1291" transform="translate(458.151)">
      <g transform="matrix(1, 0, 0, 1, -485.15, -27)" filter="url(#Rectángulo_321)">
        <g id="Rectángulo_321-2" data-name="Rectángulo 321" transform="translate(485 27)" fill="#fff" stroke="#dedede" stroke-width="1">
          <rect width="457" height="76" rx="38" stroke="none"/>
          <rect x="0.5" y="0.5" width="456" height="75" rx="37.5" fill="none"/>
        </g>
      </g>
      <g id="Grupo_1264" data-name="Grupo 1264" transform="translate(44.75 20.327)">
        <path id="Trazado_5431" data-name="Trazado 5431" d="M76.329,124.094a1.123,1.123,0,0,0,1.123-1.123v-5.617a6.747,6.747,0,0,0-3.722-6.025,3.744,3.744,0,1,0-6.038,0,6.679,6.679,0,0,0-.857.514,6.784,6.784,0,0,0-1.963-1.569,4.119,4.119,0,1,0-6.293,0,6.785,6.785,0,0,0-1.963,1.569,6.7,6.7,0,0,0-.857-.513,3.744,3.744,0,1,0-6.038,0A6.747,6.747,0,0,0,46,117.354v5.617a1.123,1.123,0,0,0,1.123,1.123h7.863v1.123a1.123,1.123,0,0,0,1.123,1.123H67.343a1.123,1.123,0,0,0,1.123-1.123v-1.123Zm-7.114-14.977a1.5,1.5,0,1,1,1.5,1.5A1.5,1.5,0,0,1,69.215,109.117Zm1.5,3.744a4.5,4.5,0,0,1,4.493,4.493v4.493h-6.74v-5.617a6.705,6.705,0,0,0-.465-2.46A4.459,4.459,0,0,1,70.713,112.861Zm-10.859-5.242a1.872,1.872,0,1,1,1.872,1.872A1.874,1.874,0,0,1,59.854,107.619Zm-8.612,1.5a1.5,1.5,0,1,1,1.5,1.5A1.5,1.5,0,0,1,51.242,109.117Zm-3,12.731v-4.493a4.492,4.492,0,0,1,7.2-3.582,6.705,6.705,0,0,0-.464,2.459v5.617Zm17.973,2.247H57.233v-7.863a4.493,4.493,0,0,1,8.986,0Z" transform="translate(-42.555 -97.247)" fill="#232323"/>
        <path id="Trazado_5432" data-name="Trazado 5432" d="M398.938,371a1.123,1.123,0,0,0-1.123,1.123v5.691h-5.691a1.123,1.123,0,1,0,0,2.247h6.815a1.123,1.123,0,0,0,1.123-1.123v-6.815A1.123,1.123,0,0,0,398.938,371Z" transform="translate(-361.719 -344.715)" fill="#232323"/>
        <path id="Trazado_5433" data-name="Trazado 5433" d="M7.938,377.815H2.247v-5.691a1.123,1.123,0,1,0-2.247,0v6.815a1.123,1.123,0,0,0,1.123,1.123H7.938a1.123,1.123,0,0,0,0-2.247Z" transform="translate(0 -344.715)" fill="#232323"/>
        <path id="Trazado_5434" data-name="Trazado 5434" d="M1.123,29.061a1.123,1.123,0,0,0,1.123-1.123V22.247H7.938a1.123,1.123,0,0,0,0-2.247H1.123A1.123,1.123,0,0,0,0,21.123v6.815A1.123,1.123,0,0,0,1.123,29.061Z" transform="translate(0 -20)" fill="#232323"/>
        <path id="Trazado_5435" data-name="Trazado 5435" d="M398.013,20h-6.89a1.123,1.123,0,1,0,0,2.247h5.766v5.691a1.123,1.123,0,1,0,2.247,0V21.123A1.123,1.123,0,0,0,398.013,20Z" transform="translate(-360.794 -20)" fill="#232323"/>
      </g>
      <text id="Segmentador_de_clientes" data-name="Segmentador de clientes" transform="translate(103.25 48)" fill="#232323" font-size="28" font-family="SFProDisplay-Medium, SF Pro Display" font-weight="500" letter-spacing="0.015em"><tspan x="0" y="0">Segmentador de clientes</tspan></text>
    </g>
    <g id="Grupo_1290" data-name="Grupo 1290" transform="translate(952)">
      <g transform="matrix(1, 0, 0, 1, -979, -27)" filter="url(#Rectángulo_322)">
        <g id="Rectángulo_322-2" data-name="Rectángulo 322" transform="translate(979 27)" fill="#fff" stroke="#dedede" stroke-width="1">
          <rect width="541" height="76" rx="38" stroke="none"/>
          <rect x="0.5" y="0.5" width="540" height="75" rx="37.5" fill="none"/>
        </g>
      </g>
      <text id="Canal_de_atención_y_sugerencias" data-name="Canal de atención y sugerencias" transform="translate(98.25 48)" fill="#232323" font-size="28" font-family="SFProDisplay-Medium, SF Pro Display" font-weight="500" letter-spacing="0.015em"><tspan x="0" y="0">Canal de atención y sugerencias</tspan></text>
      <g id="Grupo_1266" data-name="Grupo 1266" transform="translate(36 15.477)">
        <g id="Grupo_1265" data-name="Grupo 1265">
          <path id="Trazado_5436" data-name="Trazado 5436" d="M39.739,15.917a17.247,17.247,0,0,0-34.391,0A6.84,6.84,0,0,0,2,17.745a6.756,6.756,0,0,0,3.69,11.441.75.75,0,0,0,.341.094.9.9,0,0,0,.142-.015.444.444,0,0,0,.058-.018c.182.014.363.033.551.033h1.5a.751.751,0,0,0,.751-.751V16.518a.751.751,0,0,0-.751-.751H6.867a15.745,15.745,0,0,1,31.353,0H36.806a.751.751,0,0,0-.751.751V28.529a.751.751,0,0,0,.751.751h1.5v1.5c0,5.791-4.527,10.192-10.625,10.482a3,3,0,1,0,.018,1.5c6.945-.3,12.109-5.344,12.109-11.983V29.108A6.865,6.865,0,0,0,43.089,27.3a6.763,6.763,0,0,0-3.35-11.384ZM7.529,17.268v10.51H6.778a5.572,5.572,0,0,1-.658-.039A5.255,5.255,0,0,1,6.135,17.3a5.347,5.347,0,0,1,.643-.036ZM24.795,43.543a1.5,1.5,0,1,1,1.5-1.5A1.5,1.5,0,0,1,24.795,43.543Zm14.173-15.8a5.492,5.492,0,0,1-.661.04h-.751V17.268h.751a5.255,5.255,0,0,1,.661,10.47Z" transform="translate(-0.021 0)" fill="#232323"/>
        </g>
      </g>
    </g>
  </g>
</svg>
