<svg xmlns="http://www.w3.org/2000/svg" xmlns:xlink="http://www.w3.org/1999/xlink" width="347.132" height="201.481" viewBox="0 0 347.132 201.481">
  <defs>
    <clipPath id="clip-path">
      <rect id="Rectángulo_382" data-name="Rectángulo 382" width="53.156" height="53.187" fill="#e94859"/>
    </clipPath>
  </defs>
  <g id="Grupo_1527" data-name="Grupo 1527" transform="translate(36 36)">
    <g id="Grupo_893" data-name="Grupo 893" transform="translate(0 -0.001)">
      <path id="Trazado_5094" data-name="Trazado 5094" d="M409.121,801.559a1.833,1.833,0,0,1-1.607-.825,7.285,7.285,0,0,0-13.05.15,1.815,1.815,0,0,1-1.585.841l-187.811,1.931a2.223,2.223,0,0,1-2.085-2.338l-.319-42.167c7.509-2.028,13.113-9.832,13.044-18.967s-5.79-16.812-13.329-18.684l-.319-42.167a2.238,2.238,0,0,1,2.049-2.381l187.811-1.93a1.808,1.808,0,0,1,1.607.825,7.285,7.285,0,0,0,13.05-.151,1.841,1.841,0,0,1,1.585-.841l66.02-.678a2.223,2.223,0,0,1,2.085,2.339l.319,42.1c-7.632,1.928-13.327,9.752-13.257,19.023s5.883,16.986,13.543,18.758l.319,42.1a2.238,2.238,0,0,1-2.049,2.381Z" transform="translate(-202.059 -674.175)" fill="#9f9f9f" opacity="0.3"/>
      <g id="Grupo_892" data-name="Grupo 892" transform="translate(2.504)">
        <g id="Grupo_891" data-name="Grupo 891" transform="translate(0)">
          <path id="Trazado_5092" data-name="Trazado 5092" d="M448.241,727.522c.061,7.919,5.835,14.283,12.907,14.212l.33,42.806c.025,3.291-2.342,5.989-5.281,6.019l-63.049.636a4.983,4.983,0,0,1-4.356-2.448,3.85,3.85,0,0,0-6.837.069,5.009,5.009,0,0,1-4.318,2.535L198.277,793.16c-2.939.029-5.348-2.62-5.373-5.912l-.33-42.817c6.98-.184,12.543-6.618,12.483-14.456s-5.722-14.148-12.7-14.191l-.33-42.818c-.025-3.291,2.342-5.989,5.281-6.019l179.359-1.809a4.982,4.982,0,0,1,4.356,2.448,3.85,3.85,0,0,0,6.837-.069,5.009,5.009,0,0,1,4.318-2.535l63.05-.636c2.939-.029,5.348,2.621,5.373,5.911l.33,42.806C453.855,713.135,448.18,719.615,448.241,727.522Z" transform="translate(-191.688 -664.011)" fill="#fdf6f0"/>
          <path id="Trazado_5093" data-name="Trazado 5093" d="M197.563,792.828c-3.1,0-5.632-2.808-5.658-6.286l-.333-43.162.329-.008c6.762-.179,12.215-6.486,12.156-14.061s-5.608-13.76-12.371-13.8l-.329,0-.333-43.163a6.719,6.719,0,0,1,1.627-4.5,5.351,5.351,0,0,1,3.985-1.9l179.359-1.807a5.283,5.283,0,0,1,4.636,2.613,3.633,3.633,0,0,0,3.121,1.877h.035a3.649,3.649,0,0,0,3.125-1.938,5.31,5.31,0,0,1,4.6-2.707l63.05-.635a5.338,5.338,0,0,1,4.014,1.816,6.688,6.688,0,0,1,1.7,4.47l.333,43.156-.334,0a11.787,11.787,0,0,0-8.785,4.176,15.142,15.142,0,0,0,.152,19.711,11.777,11.777,0,0,0,8.848,4l.334,0,.333,43.156a6.716,6.716,0,0,1-1.627,4.5,5.348,5.348,0,0,1-3.985,1.9l-63.049.636a5.269,5.269,0,0,1-4.635-2.613,3.634,3.634,0,0,0-3.121-1.876h-.035a3.649,3.649,0,0,0-3.125,1.938,5.31,5.31,0,0,1-4.6,2.708l-179.359,1.807Zm-5.317-48.707.327,42.414c.024,3.077,2.28,5.556,5.036,5.529l179.359-1.807a4.659,4.659,0,0,0,4.041-2.36,4.3,4.3,0,0,1,3.68-2.285,4.234,4.234,0,0,1,3.715,2.212,4.6,4.6,0,0,0,4.076,2.277l63.05-.635a4.724,4.724,0,0,0,3.519-1.674,5.9,5.9,0,0,0,1.43-3.956l-.327-42.4a12.373,12.373,0,0,1-8.984-4.212,15.523,15.523,0,0,1-3.927-10.366h0a15.57,15.57,0,0,1,3.766-10.434,12.442,12.442,0,0,1,8.917-4.391l-.328-42.4a5.874,5.874,0,0,0-1.491-3.926,4.669,4.669,0,0,0-3.545-1.6l-63.049.635a4.659,4.659,0,0,0-4.041,2.36,4.164,4.164,0,0,1-7.394.073,4.633,4.633,0,0,0-4.026-2.277H376l-179.359,1.807a4.723,4.723,0,0,0-3.519,1.674,5.9,5.9,0,0,0-1.431,3.956l.327,42.415c6.977.24,12.646,6.692,12.707,14.552S199.217,743.741,192.245,744.122Z" transform="translate(-191.022 -663.345)" fill="#fdf6f0"/>
        </g>
        <path id="Trazado_5094-2" data-name="Trazado 5094" d="M399.8,794.442a1.757,1.757,0,0,1-1.535-.779,6.993,6.993,0,0,0-12.462.142,1.738,1.738,0,0,1-1.514.794l-179.359,1.823a2.109,2.109,0,0,1-1.991-2.208l-.3-39.811c7.171-1.915,12.523-9.283,12.457-17.907s-5.53-15.873-12.729-17.64l-.3-39.811a2.122,2.122,0,0,1,1.957-2.248l179.359-1.823a1.733,1.733,0,0,1,1.535.779,6.993,6.993,0,0,0,12.463-.142,1.764,1.764,0,0,1,1.514-.794l63.049-.641a2.109,2.109,0,0,1,1.991,2.208l.3,39.75c-7.289,1.82-12.728,9.207-12.66,17.96S457.19,750.13,464.5,751.8l.3,39.75a2.121,2.121,0,0,1-1.957,2.248Z" transform="translate(-198.372 -670.557)" fill="#fff"/>
      </g>
    </g>
    <text id="Módulo_de_Puntos" data-name="Módulo de Puntos" transform="translate(134.08 39.242)" fill="#232323" font-size="22" font-family="SFProDisplay-Medium, SF Pro Display" font-weight="500" letter-spacing="0.015em"><tspan x="0" y="21">Módulo de </tspan><tspan x="0" y="46">Puntos</tspan></text>
    <g id="Grupo_1540" data-name="Grupo 1540" transform="translate(51.854 38.148)">
      <g id="Grupo_1539" data-name="Grupo 1539" clip-path="url(#clip-path)">
        <path id="Trazado_5516" data-name="Trazado 5516" d="M24.908,0h3.323a3.728,3.728,0,0,0,.451.089A25,25,0,0,1,39.45,3.353a26.346,26.346,0,0,1,13.3,18.7c.177.948.269,1.911.4,2.867v3.323c-.03.134-.067.266-.088.4-.214,1.365-.341,2.749-.649,4.092A26.58,26.58,0,1,1,21.988.4c.969-.163,1.947-.271,2.92-.4M50.04,26.6a23.47,23.47,0,1,0-23.5,23.453A23.507,23.507,0,0,0,50.04,26.6" transform="translate(0)" fill="#e94859"/>
        <path id="Trazado_5517" data-name="Trazado 5517" d="M45.545,65.91A20.251,20.251,0,1,1,65.779,86.166,20.284,20.284,0,0,1,45.545,65.91M65.791,48.78a17.135,17.135,0,1,0,17.14,17.143A17.164,17.164,0,0,0,65.791,48.78" transform="translate(-39.226 -39.329)" fill="#e94859"/>
        <path id="Trazado_5518" data-name="Trazado 5518" d="M144.708,96.979v6.088c.441.116.892.214,1.329.355a7.4,7.4,0,0,1,3.729,2.506,5.377,5.377,0,0,1-1.316,7.833,9.221,9.221,0,0,1-1.761.976c-.613.264-1.274.417-2,.644,0,.458,0,.969,0,1.481a1.564,1.564,0,1,1-3.115-.012c0-.484.162-1.092-.069-1.416s-.858-.317-1.31-.462a7.289,7.289,0,0,1-3.808-2.647,5.161,5.161,0,0,1-1.039-3.094,1.543,1.543,0,0,1,1.422-1.571,1.5,1.5,0,0,1,1.664,1.362,2.965,2.965,0,0,0,1.747,2.565,14.16,14.16,0,0,0,1.394.593v-1.636c0-1.367-.011-2.734.008-4.1,0-.354-.072-.5-.457-.573a7.953,7.953,0,0,1-3.086-1.29c-3.674-2.55-3.593-7.221.219-9.563a26.6,26.6,0,0,1,3.316-1.464c0-.332,0-.845,0-1.357a1.561,1.561,0,1,1,3.114,0c0,.5,0,1,0,1.519.47.123.927.213,1.363.363a6.637,6.637,0,0,1,4.689,4.506,4.761,4.761,0,0,1,.165,1.331,1.553,1.553,0,0,1-1.5,1.5,1.6,1.6,0,0,1-1.593-1.356,3.484,3.484,0,0,0-3.113-3.085m-3.143-.04a4.4,4.4,0,0,0-2.725,1.728,1.959,1.959,0,0,0-.173,2.063,4.2,4.2,0,0,0,2.9,2.055Zm3.141,15.225a6.906,6.906,0,0,0,1.2-.489,6.518,6.518,0,0,0,1.394-1.123,1.932,1.932,0,0,0,.256-2.315,4.2,4.2,0,0,0-2.852-1.955Z" transform="translate(-116.565 -77.962)" fill="#e94859"/>
      </g>
    </g>
  </g>
</svg>
