<svg xmlns="http://www.w3.org/2000/svg" xmlns:xlink="http://www.w3.org/1999/xlink" width="347.132" height="201.481" viewBox="0 0 347.132 201.481">
  <defs>
    <clipPath id="clip-path">
      <rect id="Rectángulo_383" data-name="Rectángulo 383" width="62.671" height="38.048" fill="#e94859"/>
    </clipPath>
  </defs>
  <g id="Grupo_1541" data-name="Grupo 1541" transform="translate(36 36)">
    <g id="Grupo_893" data-name="Grupo 893" transform="translate(0 -0.001)">
      <path id="Trazado_5094" data-name="Trazado 5094" d="M409.121,801.559a1.833,1.833,0,0,1-1.607-.825,7.285,7.285,0,0,0-13.05.15,1.815,1.815,0,0,1-1.585.841l-187.811,1.931a2.223,2.223,0,0,1-2.085-2.338l-.319-42.167c7.509-2.028,13.113-9.832,13.044-18.967s-5.79-16.812-13.329-18.684l-.319-42.167a2.238,2.238,0,0,1,2.049-2.381l187.811-1.93a1.808,1.808,0,0,1,1.607.825,7.285,7.285,0,0,0,13.05-.151,1.841,1.841,0,0,1,1.585-.841l66.02-.678a2.223,2.223,0,0,1,2.085,2.339l.319,42.1c-7.632,1.928-13.327,9.752-13.257,19.023s5.883,16.986,13.543,18.758l.319,42.1a2.238,2.238,0,0,1-2.049,2.381Z" transform="translate(-202.059 -674.175)" fill="#9f9f9f" opacity="0.3"/>
      <g id="Grupo_892" data-name="Grupo 892" transform="translate(2.504)">
        <g id="Grupo_891" data-name="Grupo 891" transform="translate(0)">
          <path id="Trazado_5092" data-name="Trazado 5092" d="M448.241,727.522c.061,7.919,5.835,14.283,12.907,14.212l.33,42.806c.025,3.291-2.342,5.989-5.281,6.019l-63.049.636a4.983,4.983,0,0,1-4.356-2.448,3.85,3.85,0,0,0-6.837.069,5.009,5.009,0,0,1-4.318,2.535L198.277,793.16c-2.939.029-5.348-2.62-5.373-5.912l-.33-42.817c6.98-.184,12.543-6.618,12.483-14.456s-5.722-14.148-12.7-14.191l-.33-42.818c-.025-3.291,2.342-5.989,5.281-6.019l179.359-1.809a4.982,4.982,0,0,1,4.356,2.448,3.85,3.85,0,0,0,6.837-.069,5.009,5.009,0,0,1,4.318-2.535l63.05-.636c2.939-.029,5.348,2.621,5.373,5.911l.33,42.806C453.855,713.135,448.18,719.615,448.241,727.522Z" transform="translate(-191.688 -664.011)" fill="#fdf6f0"/>
          <path id="Trazado_5093" data-name="Trazado 5093" d="M197.563,792.828c-3.1,0-5.632-2.808-5.658-6.286l-.333-43.162.329-.008c6.762-.179,12.215-6.486,12.156-14.061s-5.608-13.76-12.371-13.8l-.329,0-.333-43.163a6.719,6.719,0,0,1,1.627-4.5,5.351,5.351,0,0,1,3.985-1.9l179.359-1.807a5.283,5.283,0,0,1,4.636,2.613,3.633,3.633,0,0,0,3.121,1.877h.035a3.649,3.649,0,0,0,3.125-1.938,5.31,5.31,0,0,1,4.6-2.707l63.05-.635a5.338,5.338,0,0,1,4.014,1.816,6.688,6.688,0,0,1,1.7,4.47l.333,43.156-.334,0a11.787,11.787,0,0,0-8.785,4.176,15.142,15.142,0,0,0,.152,19.711,11.777,11.777,0,0,0,8.848,4l.334,0,.333,43.156a6.716,6.716,0,0,1-1.627,4.5,5.348,5.348,0,0,1-3.985,1.9l-63.049.636a5.269,5.269,0,0,1-4.635-2.613,3.634,3.634,0,0,0-3.121-1.876h-.035a3.649,3.649,0,0,0-3.125,1.938,5.31,5.31,0,0,1-4.6,2.708l-179.359,1.807Zm-5.317-48.707.327,42.414c.024,3.077,2.28,5.556,5.036,5.529l179.359-1.807a4.659,4.659,0,0,0,4.041-2.36,4.3,4.3,0,0,1,3.68-2.285,4.234,4.234,0,0,1,3.715,2.212,4.6,4.6,0,0,0,4.076,2.277l63.05-.635a4.724,4.724,0,0,0,3.519-1.674,5.9,5.9,0,0,0,1.43-3.956l-.327-42.4a12.373,12.373,0,0,1-8.984-4.212,15.523,15.523,0,0,1-3.927-10.366h0a15.57,15.57,0,0,1,3.766-10.434,12.442,12.442,0,0,1,8.917-4.391l-.328-42.4a5.874,5.874,0,0,0-1.491-3.926,4.669,4.669,0,0,0-3.545-1.6l-63.049.635a4.659,4.659,0,0,0-4.041,2.36,4.164,4.164,0,0,1-7.394.073,4.633,4.633,0,0,0-4.026-2.277H376l-179.359,1.807a4.723,4.723,0,0,0-3.519,1.674,5.9,5.9,0,0,0-1.431,3.956l.327,42.415c6.977.24,12.646,6.692,12.707,14.552S199.217,743.741,192.245,744.122Z" transform="translate(-191.022 -663.345)" fill="#fdf6f0"/>
        </g>
        <path id="Trazado_5094-2" data-name="Trazado 5094" d="M399.8,794.442a1.757,1.757,0,0,1-1.535-.779,6.993,6.993,0,0,0-12.462.142,1.738,1.738,0,0,1-1.514.794l-179.359,1.823a2.109,2.109,0,0,1-1.991-2.208l-.3-39.811c7.171-1.915,12.523-9.283,12.457-17.907s-5.53-15.873-12.729-17.64l-.3-39.811a2.122,2.122,0,0,1,1.957-2.248l179.359-1.823a1.733,1.733,0,0,1,1.535.779,6.993,6.993,0,0,0,12.463-.142,1.764,1.764,0,0,1,1.514-.794l63.049-.641a2.109,2.109,0,0,1,1.991,2.208l.3,39.75c-7.289,1.82-12.728,9.207-12.66,17.96S457.19,750.13,464.5,751.8l.3,39.75a2.121,2.121,0,0,1-1.957,2.248Z" transform="translate(-198.372 -670.557)" fill="#fff"/>
      </g>
    </g>
    <text id="Módulo_Categoría_de_Usuarios" data-name="Módulo Categoría de Usuarios" transform="translate(126.08 26.741)" fill="#232323" font-size="22" font-family="SFProDisplay-Medium, SF Pro Display" font-weight="500" letter-spacing="0.015em"><tspan x="0" y="21">Módulo </tspan><tspan x="0" y="46">Categoría </tspan><tspan x="0" y="71">de Usuarios</tspan></text>
    <g id="Grupo_1547" data-name="Grupo 1547" transform="translate(50.219 45.717)">
      <g id="Grupo_1546" data-name="Grupo 1546" clip-path="url(#clip-path)">
        <path id="Trazado_5519" data-name="Trazado 5519" d="M0,25.877c.228-.989.379-2,.7-2.962a13.048,13.048,0,0,1,5.855-7.261c.156-.094.306-.2.516-.329A8.879,8.879,0,0,1,4.54,7.208a8.529,8.529,0,0,1,3.2-5.268A8.927,8.927,0,0,1,19.572,15.272l3.243,2.446a9.421,9.421,0,0,1,.252-6.3,9.087,9.087,0,0,1,3.239-4.011,8.974,8.974,0,0,1,4.771-1.493,8.253,8.253,0,0,1,8.3,5.034,9.938,9.938,0,0,1,.512,6.689L43.1,15.272a8.85,8.85,0,0,1-2.457-8.13A8.491,8.491,0,0,1,43.881,1.9,8.924,8.924,0,0,1,55.653,15.274c.871.657,1.8,1.255,2.606,1.985a12.97,12.97,0,0,1,4.389,9.553c.036,1.059.023,2.121.008,3.181a1.974,1.974,0,1,1-3.948.041,39.981,39.981,0,0,0-.224-4.694,9.312,9.312,0,0,0-17.555-2.216.714.714,0,0,0,.119.964,13.21,13.21,0,0,1,3.573,9.232c.006.857.017,1.714,0,2.57a1.99,1.99,0,0,1-2,2.156,2.031,2.031,0,0,1-1.981-2.185A29.35,29.35,0,0,0,40.356,31a9.034,9.034,0,0,0-8.025-7.148,9.266,9.266,0,0,0-10.3,8.905c-.033,1.1.008,2.2-.024,3.3a1.963,1.963,0,0,1-1.919,1.986,1.891,1.891,0,0,1-2.017-1.863c-.1-2.67-.152-5.343.885-7.9a13.283,13.283,0,0,1,2.659-4.211.635.635,0,0,0,.155-.8,9.582,9.582,0,0,0-8.377-5.49,9.368,9.368,0,0,0-9.438,9.543c0,.836.008,1.673,0,2.509a2.015,2.015,0,0,1-1.524,2.153A2,2,0,0,1,.083,30.611c-.015-.033-.055-.056-.083-.083Zm13.3-12.09A4.846,4.846,0,0,0,18.234,8.9a4.95,4.95,0,0,0-9.9.022A4.838,4.838,0,0,0,13.3,13.787m36.071,0a4.837,4.837,0,0,0,4.958-4.871,4.95,4.95,0,0,0-9.9-.015,4.846,4.846,0,0,0,4.941,4.886m-18.05,6.027a4.855,4.855,0,0,0,4.956-4.879,4.942,4.942,0,1,0-9.884-.026,4.85,4.85,0,0,0,4.929,4.9" transform="translate(0 0.001)" fill="#e94859"/>
      </g>
    </g>
  </g>
</svg>
