<svg xmlns="http://www.w3.org/2000/svg" width="347.132" height="201.481" viewBox="0 0 347.132 201.481">
  <g id="Grupo_1210" data-name="Grupo 1210" transform="translate(36 36)">
    <g id="Grupo_893" data-name="Grupo 893" transform="translate(0 0)">
      <path id="Trazado_5094" data-name="Trazado 5094" d="M409.121,801.559a1.833,1.833,0,0,1-1.607-.825,7.285,7.285,0,0,0-13.05.15,1.815,1.815,0,0,1-1.585.841l-187.811,1.931a2.223,2.223,0,0,1-2.085-2.338l-.319-42.167c7.509-2.028,13.113-9.832,13.044-18.967s-5.79-16.812-13.329-18.684l-.319-42.167a2.238,2.238,0,0,1,2.049-2.381l187.811-1.93a1.808,1.808,0,0,1,1.607.825,7.285,7.285,0,0,0,13.05-.151,1.841,1.841,0,0,1,1.585-.841l66.02-.678a2.223,2.223,0,0,1,2.085,2.339l.319,42.1c-7.632,1.928-13.327,9.752-13.257,19.023s5.883,16.986,13.543,18.758l.319,42.1a2.238,2.238,0,0,1-2.049,2.381Z" transform="translate(-202.059 -674.175)" fill="#9f9f9f" opacity="0.3"/>
      <g id="Grupo_892" data-name="Grupo 892" transform="translate(2.504)">
        <g id="Grupo_891" data-name="Grupo 891" transform="translate(0)">
          <path id="Trazado_5092" data-name="Trazado 5092" d="M448.241,727.522c.061,7.919,5.835,14.283,12.907,14.212l.33,42.806c.025,3.291-2.342,5.989-5.281,6.019l-63.049.636a4.983,4.983,0,0,1-4.356-2.448,3.85,3.85,0,0,0-6.837.069,5.009,5.009,0,0,1-4.318,2.535L198.277,793.16c-2.939.029-5.348-2.62-5.373-5.912l-.33-42.817c6.98-.184,12.543-6.618,12.483-14.456s-5.722-14.148-12.7-14.191l-.33-42.818c-.025-3.291,2.342-5.989,5.281-6.019l179.359-1.809a4.982,4.982,0,0,1,4.356,2.448,3.85,3.85,0,0,0,6.837-.069,5.009,5.009,0,0,1,4.318-2.535l63.05-.636c2.939-.029,5.348,2.621,5.373,5.911l.33,42.806C453.855,713.135,448.18,719.615,448.241,727.522Z" transform="translate(-191.688 -664.011)" fill="#fdf6f0"/>
          <path id="Trazado_5093" data-name="Trazado 5093" d="M197.563,792.828c-3.1,0-5.632-2.808-5.658-6.286l-.333-43.162.329-.008c6.762-.179,12.215-6.486,12.156-14.061s-5.608-13.76-12.371-13.8l-.329,0-.333-43.163a6.719,6.719,0,0,1,1.627-4.5,5.351,5.351,0,0,1,3.985-1.9l179.359-1.807a5.283,5.283,0,0,1,4.636,2.613,3.633,3.633,0,0,0,3.121,1.877h.035a3.649,3.649,0,0,0,3.125-1.938,5.31,5.31,0,0,1,4.6-2.707l63.05-.635a5.338,5.338,0,0,1,4.014,1.816,6.688,6.688,0,0,1,1.7,4.47l.333,43.156-.334,0a11.787,11.787,0,0,0-8.785,4.176,15.142,15.142,0,0,0,.152,19.711,11.777,11.777,0,0,0,8.848,4l.334,0,.333,43.156a6.716,6.716,0,0,1-1.627,4.5,5.348,5.348,0,0,1-3.985,1.9l-63.049.636a5.269,5.269,0,0,1-4.635-2.613,3.634,3.634,0,0,0-3.121-1.876h-.035a3.649,3.649,0,0,0-3.125,1.938,5.31,5.31,0,0,1-4.6,2.708l-179.359,1.807Zm-5.317-48.707.327,42.414c.024,3.077,2.28,5.556,5.036,5.529l179.359-1.807a4.659,4.659,0,0,0,4.041-2.36,4.3,4.3,0,0,1,3.68-2.285,4.234,4.234,0,0,1,3.715,2.212,4.6,4.6,0,0,0,4.076,2.277l63.05-.635a4.724,4.724,0,0,0,3.519-1.674,5.9,5.9,0,0,0,1.43-3.956l-.327-42.4a12.373,12.373,0,0,1-8.984-4.212,15.523,15.523,0,0,1-3.927-10.366h0a15.57,15.57,0,0,1,3.766-10.434,12.442,12.442,0,0,1,8.917-4.391l-.328-42.4a5.874,5.874,0,0,0-1.491-3.926,4.669,4.669,0,0,0-3.545-1.6l-63.049.635a4.659,4.659,0,0,0-4.041,2.36,4.164,4.164,0,0,1-7.394.073,4.633,4.633,0,0,0-4.026-2.277H376l-179.359,1.807a4.723,4.723,0,0,0-3.519,1.674,5.9,5.9,0,0,0-1.431,3.956l.327,42.415c6.977.24,12.646,6.692,12.707,14.552S199.217,743.741,192.245,744.122Z" transform="translate(-191.022 -663.345)" fill="#fdf6f0"/>
        </g>
        <path id="Trazado_5094-2" data-name="Trazado 5094" d="M399.8,794.442a1.757,1.757,0,0,1-1.535-.779,6.993,6.993,0,0,0-12.462.142,1.738,1.738,0,0,1-1.514.794l-179.359,1.823a2.109,2.109,0,0,1-1.991-2.208l-.3-39.811c7.171-1.915,12.523-9.283,12.457-17.907s-5.53-15.873-12.729-17.64l-.3-39.811a2.122,2.122,0,0,1,1.957-2.248l179.359-1.823a1.733,1.733,0,0,1,1.535.779,6.993,6.993,0,0,0,12.463-.142,1.764,1.764,0,0,1,1.514-.794l63.049-.641a2.109,2.109,0,0,1,1.991,2.208l.3,39.75c-7.289,1.82-12.728,9.207-12.66,17.96S457.19,750.13,464.5,751.8l.3,39.75a2.121,2.121,0,0,1-1.957,2.248Z" transform="translate(-198.372 -670.557)" fill="#fff"/>
      </g>
    </g>
    <text id="Generador_de_Códigos" data-name="Generador
de Códigos" transform="translate(134.08 41.209)" fill="#232323" font-size="22" font-family="SFProDisplay-Medium, SF Pro Display" font-weight="500" letter-spacing="0.015em"><tspan x="0" y="21">Generador</tspan><tspan x="0" y="46">de Códigos</tspan></text>
    <g id="Grupo_1233" data-name="Grupo 1233" transform="translate(38.642 32.269)">
      <path id="Trazado_5391" data-name="Trazado 5391" d="M178.03,142.543,187,115.636a1.9,1.9,0,1,0-3.61-1.2l-8.969,26.906a1.9,1.9,0,1,0,3.61,1.2Z" transform="translate(-152.211 -98.782)" fill="#e94859"/>
      <path id="Trazado_5392" data-name="Trazado 5392" d="M270.241,200.618a5.708,5.708,0,1,0-5.708-5.708A5.714,5.714,0,0,0,270.241,200.618Zm0-7.61a1.9,1.9,0,1,1-1.9,1.9A1.9,1.9,0,0,1,270.241,193.008Z" transform="translate(-230.98 -165.205)" fill="#e94859"/>
      <path id="Trazado_5393" data-name="Trazado 5393" d="M100.535,189.2a5.708,5.708,0,1,0,5.708,5.708A5.714,5.714,0,0,0,100.535,189.2Zm0,7.61a1.9,1.9,0,1,1,1.9-1.9A1.9,1.9,0,0,1,100.535,196.813Z" transform="translate(-82.799 -165.205)" fill="#e94859"/>
      <path id="Trazado_5394" data-name="Trazado 5394" d="M64.56,23.592l-6.634-8.846.259-1.812a1.9,1.9,0,0,0-.538-1.614L53.611,7.284l4.036-4.036A1.9,1.9,0,0,0,54.956.557L50.92,4.593,46.884.557A1.9,1.9,0,0,0,45.27.019L26.435,2.71a1.9,1.9,0,0,0-1.076.538L2.04,26.567a6.984,6.984,0,0,0,0,9.866L21.771,56.164a6.96,6.96,0,0,0,1.313,1.03v.771a6.984,6.984,0,0,0,6.976,6.976h27.9a6.984,6.984,0,0,0,6.976-6.976V24.733a1.9,1.9,0,0,0-.381-1.142ZM4.731,33.742a3.175,3.175,0,0,1,0-4.484L27.6,6.387,44.866,3.921l3.363,3.363L45.539,9.975,44.193,8.629A1.9,1.9,0,1,0,41.5,11.32L46.884,16.7a1.9,1.9,0,1,0,2.69-2.691l-1.345-1.345L50.92,9.975l3.363,3.363L51.817,30.6l-22.87,22.87a3.171,3.171,0,0,1-4.484,0Zm56.4,24.223a3.175,3.175,0,0,1-3.171,3.171h-27.9A3.174,3.174,0,0,1,26.9,58.2a6.949,6.949,0,0,0,4.738-2.035L54.956,32.845a1.9,1.9,0,0,0,.538-1.076l1.671-11.7,3.971,5.295Z" transform="translate(0 0)" fill="#e94859"/>
    </g>
  </g>
</svg>
