<svg xmlns="http://www.w3.org/2000/svg" xmlns:xlink="http://www.w3.org/1999/xlink" width="347.132" height="201.481" viewBox="0 0 347.132 201.481">
  <defs>
    <clipPath id="clip-path">
      <rect id="Rectángulo_376" data-name="Rectángulo 376" width="60.643" height="61.442" fill="#e94859"/>
    </clipPath>
  </defs>
  <g id="Grupo_1515" data-name="Grupo 1515" transform="translate(36 35.999)">
    <g id="Grupo_893" data-name="Grupo 893" transform="translate(0 0)">
      <path id="Trazado_5094" data-name="Trazado 5094" d="M409.121,801.559a1.833,1.833,0,0,1-1.607-.825,7.285,7.285,0,0,0-13.05.15,1.815,1.815,0,0,1-1.585.841l-187.811,1.931a2.223,2.223,0,0,1-2.085-2.338l-.319-42.167c7.509-2.028,13.113-9.832,13.044-18.967s-5.79-16.812-13.329-18.684l-.319-42.167a2.238,2.238,0,0,1,2.049-2.381l187.811-1.93a1.808,1.808,0,0,1,1.607.825,7.285,7.285,0,0,0,13.05-.151,1.841,1.841,0,0,1,1.585-.841l66.02-.678a2.223,2.223,0,0,1,2.085,2.339l.319,42.1c-7.632,1.928-13.327,9.752-13.257,19.023s5.883,16.986,13.543,18.758l.319,42.1a2.238,2.238,0,0,1-2.049,2.381Z" transform="translate(-202.059 -674.175)" fill="#9f9f9f" opacity="0.3"/>
      <g id="Grupo_892" data-name="Grupo 892" transform="translate(2.504)">
        <g id="Grupo_891" data-name="Grupo 891" transform="translate(0)">
          <path id="Trazado_5092" data-name="Trazado 5092" d="M448.241,727.522c.061,7.919,5.835,14.283,12.907,14.212l.33,42.806c.025,3.291-2.342,5.989-5.281,6.019l-63.049.636a4.983,4.983,0,0,1-4.356-2.448,3.85,3.85,0,0,0-6.837.069,5.009,5.009,0,0,1-4.318,2.535L198.277,793.16c-2.939.029-5.348-2.62-5.373-5.912l-.33-42.817c6.98-.184,12.543-6.618,12.483-14.456s-5.722-14.148-12.7-14.191l-.33-42.818c-.025-3.291,2.342-5.989,5.281-6.019l179.359-1.809a4.982,4.982,0,0,1,4.356,2.448,3.85,3.85,0,0,0,6.837-.069,5.009,5.009,0,0,1,4.318-2.535l63.05-.636c2.939-.029,5.348,2.621,5.373,5.911l.33,42.806C453.855,713.135,448.18,719.615,448.241,727.522Z" transform="translate(-191.688 -664.011)" fill="#fdf6f0"/>
          <path id="Trazado_5093" data-name="Trazado 5093" d="M197.563,792.828c-3.1,0-5.632-2.808-5.658-6.286l-.333-43.162.329-.008c6.762-.179,12.215-6.486,12.156-14.061s-5.608-13.76-12.371-13.8l-.329,0-.333-43.163a6.719,6.719,0,0,1,1.627-4.5,5.351,5.351,0,0,1,3.985-1.9l179.359-1.807a5.283,5.283,0,0,1,4.636,2.613,3.633,3.633,0,0,0,3.121,1.877h.035a3.649,3.649,0,0,0,3.125-1.938,5.31,5.31,0,0,1,4.6-2.707l63.05-.635a5.338,5.338,0,0,1,4.014,1.816,6.688,6.688,0,0,1,1.7,4.47l.333,43.156-.334,0a11.787,11.787,0,0,0-8.785,4.176,15.142,15.142,0,0,0,.152,19.711,11.777,11.777,0,0,0,8.848,4l.334,0,.333,43.156a6.716,6.716,0,0,1-1.627,4.5,5.348,5.348,0,0,1-3.985,1.9l-63.049.636a5.269,5.269,0,0,1-4.635-2.613,3.634,3.634,0,0,0-3.121-1.876h-.035a3.649,3.649,0,0,0-3.125,1.938,5.31,5.31,0,0,1-4.6,2.708l-179.359,1.807Zm-5.317-48.707.327,42.414c.024,3.077,2.28,5.556,5.036,5.529l179.359-1.807a4.659,4.659,0,0,0,4.041-2.36,4.3,4.3,0,0,1,3.68-2.285,4.234,4.234,0,0,1,3.715,2.212,4.6,4.6,0,0,0,4.076,2.277l63.05-.635a4.724,4.724,0,0,0,3.519-1.674,5.9,5.9,0,0,0,1.43-3.956l-.327-42.4a12.373,12.373,0,0,1-8.984-4.212,15.523,15.523,0,0,1-3.927-10.366h0a15.57,15.57,0,0,1,3.766-10.434,12.442,12.442,0,0,1,8.917-4.391l-.328-42.4a5.874,5.874,0,0,0-1.491-3.926,4.669,4.669,0,0,0-3.545-1.6l-63.049.635a4.659,4.659,0,0,0-4.041,2.36,4.164,4.164,0,0,1-7.394.073,4.633,4.633,0,0,0-4.026-2.277H376l-179.359,1.807a4.723,4.723,0,0,0-3.519,1.674,5.9,5.9,0,0,0-1.431,3.956l.327,42.415c6.977.24,12.646,6.692,12.707,14.552S199.217,743.741,192.245,744.122Z" transform="translate(-191.022 -663.345)" fill="#fdf6f0"/>
        </g>
        <path id="Trazado_5094-2" data-name="Trazado 5094" d="M399.8,794.442a1.757,1.757,0,0,1-1.535-.779,6.993,6.993,0,0,0-12.462.142,1.738,1.738,0,0,1-1.514.794l-179.359,1.823a2.109,2.109,0,0,1-1.991-2.208l-.3-39.811c7.171-1.915,12.523-9.283,12.457-17.907s-5.53-15.873-12.729-17.64l-.3-39.811a2.122,2.122,0,0,1,1.957-2.248l179.359-1.823a1.733,1.733,0,0,1,1.535.779,6.993,6.993,0,0,0,12.463-.142,1.764,1.764,0,0,1,1.514-.794l63.049-.641a2.109,2.109,0,0,1,1.991,2.208l.3,39.75c-7.289,1.82-12.728,9.207-12.66,17.96S457.19,750.13,464.5,751.8l.3,39.75a2.121,2.121,0,0,1-1.957,2.248Z" transform="translate(-198.372 -670.557)" fill="#fff"/>
      </g>
    </g>
    <text id="ChatBot_Servicio_a_Cliente" data-name="ChatBot
Servicio a Cliente" transform="translate(124.493 26.74)" fill="#232323" font-size="22" font-family="SFProDisplay-Medium, SF Pro Display" font-weight="500" letter-spacing="0.015em"><tspan x="0" y="21">ChatBot</tspan><tspan x="0" y="46">Servicio a </tspan><tspan x="0" y="71">Cliente</tspan></text>
    <g id="Grupo_1524" data-name="Grupo 1524" transform="translate(44.933 34.019)">
      <g id="Grupo_1523" data-name="Grupo 1523" clip-path="url(#clip-path)">
        <path id="Trazado_5472" data-name="Trazado 5472" d="M17.6,30.718c-.677.709-1.346,1.426-2.034,2.125q-1.229,1.249-2.485,2.471a3.132,3.132,0,0,1-3.612.723,3.111,3.111,0,0,1-2.009-3.026c-.022-1.345,0-2.692,0-4.031-.725-.107-1.406-.154-2.061-.312A6.959,6.959,0,0,1,.023,21.924q-.041-7.493,0-14.987A7,7,0,0,1,7.083,0Q18.077-.005,29.071,0a7,7,0,0,1,7.264,7.217c.021,3.545,0,7.09,0,10.636v.718h.839c5.074,0,10.148-.011,15.222,0a8.052,8.052,0,0,1,8.069,6.544,9.477,9.477,0,0,1,.164,1.86q.018,8.581.006,17.162a8.14,8.14,0,0,1-8.305,8.42c-.176,0-.351.021-.59.037v.686c0,1.45.008,2.9,0,4.351a3.645,3.645,0,0,1-6.311,2.627q-3.665-3.641-7.316-7.295a1.28,1.28,0,0,0-1-.415c-3.7.014-7.41.025-11.115,0a8.085,8.085,0,0,1-8.041-6.518,9.274,9.274,0,0,1-.173-1.859c-.015-4.23-.008-8.46-.008-12.69V30.83Zm21.641-9.243c-4.369,0-8.739-.008-13.109,0a5.206,5.206,0,0,0-5.457,5.479q-.009,8.612.005,17.224a6.446,6.446,0,0,0,.164,1.495,5.216,5.216,0,0,0,5.3,3.984q5.86.019,11.719-.007a2.273,2.273,0,0,1,1.763.736c1.479,1.512,2.991,2.99,4.49,4.482,1.128,1.122,2.241,2.26,3.4,3.354a.983.983,0,0,0,.845.213c.222-.089.348-.469.469-.742a1.277,1.277,0,0,0,.012-.479q0-2.871,0-5.741c0-1.29.512-1.8,1.781-1.811.5,0,1.007,0,1.51,0a5.261,5.261,0,0,0,5.6-5.593c0-5.661-.047-11.322.019-16.982a5.41,5.41,0,0,0-5.65-5.633c-4.287.087-8.578.021-12.867.021m-5.819-2.9c0-4.007.067-7.895-.026-11.779A3.948,3.948,0,0,0,29.34,2.909q-11.175-.029-22.351,0A4.008,4.008,0,0,0,2.935,6.878q-.074,7.553,0,15.108A3.986,3.986,0,0,0,6.38,25.905a14.985,14.985,0,0,0,2.167.083c1.276.014,1.8.522,1.807,1.789.006,1.611-.009,3.223.012,4.834a2.838,2.838,0,0,0,.227.753,2.738,2.738,0,0,0,.7-.367c2-1.963,3.97-3.948,5.965-5.912a1.85,1.85,0,0,0,.594-1.185,8.033,8.033,0,0,1,8.227-7.326c2.215-.006,4.43,0,6.645,0h.7" transform="translate(0 0)" fill="#e94859"/>
        <path id="Trazado_5473" data-name="Trazado 5473" d="M231.868,211.554a2.134,2.134,0,0,1-2.129-2.153,2.127,2.127,0,0,1,4.255-.005,2.136,2.136,0,0,1-2.125,2.158" transform="translate(-192.657 -173.83)" fill="#e94859"/>
        <path id="Trazado_5474" data-name="Trazado 5474" d="M176.265,211.549a2.137,2.137,0,0,1-2.151-2.134,2.11,2.11,0,0,1,2.082-2.131,2.133,2.133,0,1,1,.069,4.265" transform="translate(-146.011 -173.826)" fill="#e94859"/>
        <path id="Trazado_5475" data-name="Trazado 5475" d="M289.533,209.434a2.137,2.137,0,1,1-2.127-2.149,2.113,2.113,0,0,1,2.127,2.149" transform="translate(-239.216 -173.828)" fill="#e94859"/>
      </g>
    </g>
  </g>
</svg>
