<svg xmlns="http://www.w3.org/2000/svg" width="387.692" height="220.569" viewBox="0 0 387.692 220.569">
  <g id="Grupo_1207" data-name="Grupo 1207" transform="translate(25.113 -72.277)">
    <g id="Grupo_893" data-name="Grupo 893" transform="translate(10.887 102.882)">
      <path id="Trazado_5094" data-name="Trazado 5094" d="M439.646,820.338a2.1,2.1,0,0,1-1.844-.946,8.359,8.359,0,0,0-14.973.173,2.082,2.082,0,0,1-1.819.965l-215.5,2.215a2.551,2.551,0,0,1-2.392-2.683l-.366-48.383c8.616-2.327,15.046-11.282,14.967-21.763s-6.644-19.291-15.294-21.438l-.366-48.383a2.568,2.568,0,0,1,2.351-2.732l215.5-2.215a2.075,2.075,0,0,1,1.844.946,8.359,8.359,0,0,0,14.974-.173,2.113,2.113,0,0,1,1.819-.965l75.753-.779a2.551,2.551,0,0,1,2.393,2.683l.366,48.308c-8.757,2.212-15.292,11.19-15.211,21.827s6.75,19.491,15.539,21.524l.366,48.309a2.568,2.568,0,0,1-2.351,2.732Z" transform="translate(-202.059 -668.781)" fill="#9f9f9f" opacity="0.3"/>
      <g id="Grupo_892" data-name="Grupo 892" transform="translate(2.874 5.393)">
        <g id="Grupo_891" data-name="Grupo 891" transform="translate(0)">
          <path id="Trazado_5092" data-name="Trazado 5092" d="M486.012,736.835c.07,9.087,6.7,16.389,14.81,16.307l.379,49.117c.029,3.776-2.687,6.872-6.06,6.906l-72.344.73a5.718,5.718,0,0,1-5-2.809,4.418,4.418,0,0,0-7.845.079A5.747,5.747,0,0,1,405,810.074L199.2,812.15c-3.372.034-6.136-3.006-6.165-6.783l-.379-49.129c8.009-.212,14.392-7.593,14.323-16.588s-6.566-16.233-14.576-16.283l-.379-49.13c-.029-3.776,2.688-6.872,6.06-6.906l205.8-2.076a5.717,5.717,0,0,1,5,2.809,4.418,4.418,0,0,0,7.845-.079,5.748,5.748,0,0,1,4.954-2.909l72.344-.73c3.373-.034,6.136,3.007,6.165,6.783l.379,49.117C492.454,720.327,485.942,727.762,486.012,736.835Z" transform="translate(-191.639 -663.962)" fill="#fdf6f0"/>
          <path id="Trazado_5093" data-name="Trazado 5093" d="M198.527,811.917c-3.555,0-6.462-3.222-6.492-7.212l-.382-49.525.378-.01c7.758-.205,14.015-7.443,13.948-16.134s-6.435-15.788-14.2-15.837l-.378,0-.382-49.525a7.709,7.709,0,0,1,1.867-5.167,6.139,6.139,0,0,1,4.573-2.176l205.8-2.074a6.062,6.062,0,0,1,5.319,3,4.168,4.168,0,0,0,3.581,2.153h.04a4.187,4.187,0,0,0,3.586-2.224,6.093,6.093,0,0,1,5.273-3.107l72.344-.729a6.125,6.125,0,0,1,4.605,2.084,7.673,7.673,0,0,1,1.946,5.129l.383,49.518-.383,0a13.524,13.524,0,0,0-10.08,4.792,17.374,17.374,0,0,0,.174,22.616,13.512,13.512,0,0,0,10.153,4.589l.383,0,.382,49.518a7.706,7.706,0,0,1-1.867,5.167,6.137,6.137,0,0,1-4.573,2.176l-72.344.729a6.045,6.045,0,0,1-5.319-3,4.17,4.17,0,0,0-3.581-2.153h-.04a4.187,4.187,0,0,0-3.586,2.224,6.093,6.093,0,0,1-5.273,3.107l-205.8,2.074Zm-6.1-55.887L192.8,804.7c.027,3.53,2.617,6.375,5.778,6.344l205.8-2.074a5.345,5.345,0,0,0,4.637-2.708,4.934,4.934,0,0,1,4.222-2.622,4.858,4.858,0,0,1,4.263,2.539,5.28,5.28,0,0,0,4.677,2.613l72.344-.729a5.42,5.42,0,0,0,4.038-1.92A6.772,6.772,0,0,0,500.2,801.6l-.376-48.648a14.2,14.2,0,0,1-10.308-4.833,17.811,17.811,0,0,1-4.506-11.895h0a17.866,17.866,0,0,1,4.321-11.972,14.277,14.277,0,0,1,10.232-5.039l-.376-48.648a6.739,6.739,0,0,0-1.711-4.505,5.358,5.358,0,0,0-4.067-1.839l-72.344.729a5.346,5.346,0,0,0-4.637,2.708,4.777,4.777,0,0,1-8.484.084,5.316,5.316,0,0,0-4.62-2.613h-.057l-205.8,2.074a5.419,5.419,0,0,0-4.038,1.92,6.772,6.772,0,0,0-1.642,4.539l.376,48.667c8.005.275,14.51,7.678,14.58,16.7S200.425,755.593,192.426,756.03Z" transform="translate(-191.022 -663.345)" fill="#fdf6f0"/>
        </g>
        <path id="Trazado_5094-2" data-name="Trazado 5094" d="M428.954,812.171a2.016,2.016,0,0,1-1.761-.893,8.024,8.024,0,0,0-14.3.163,1.994,1.994,0,0,1-1.737.911l-205.8,2.092a2.42,2.42,0,0,1-2.285-2.533l-.35-45.68c8.228-2.2,14.369-10.651,14.293-20.547s-6.345-18.213-14.606-20.24l-.35-45.68a2.435,2.435,0,0,1,2.246-2.58l205.8-2.091a1.989,1.989,0,0,1,1.761.893,8.024,8.024,0,0,0,14.3-.163,2.024,2.024,0,0,1,1.737-.911l72.344-.735a2.419,2.419,0,0,1,2.285,2.533l.349,45.609c-8.363,2.089-14.6,10.564-14.527,20.607s6.446,18.4,14.84,20.321l.349,45.61a2.434,2.434,0,0,1-2.246,2.579Z" transform="translate(-197.828 -670.024)" fill="#fff"/>
      </g>
    </g>
    <text id="Gestión_de_reclamos" data-name="Gestión
de reclamos" transform="translate(153.733 155.561)" fill="#232323" font-size="24" font-family="SFProDisplay-Semibold, SF Pro Display" font-weight="600" letter-spacing="0.015em"><tspan x="0" y="23">Gestión</tspan><tspan x="0" y="48">de reclamos</tspan></text>
    <g id="Grupo_1229" data-name="Grupo 1229" transform="translate(18.661 144.151)">
      <g id="Grupo_1224" data-name="Grupo 1224" transform="translate(44.412)">
        <g id="Grupo_1223" data-name="Grupo 1223">
          <path id="Trazado_5386" data-name="Trazado 5386" d="M95.522,47.717V6.359A6.366,6.366,0,0,0,89.163,0H59.353A2.289,2.289,0,0,0,57.73.672L45.085,13.313a2.281,2.281,0,0,0-.673,1.624V60.123a6.366,6.366,0,0,0,6.359,6.359h28.5A14.639,14.639,0,1,0,95.522,47.717ZM57.1,7.683v5h-5ZM78.631,61.971H50.771a1.85,1.85,0,0,1-1.848-1.848V17.192h10.43a2.256,2.256,0,0,0,2.256-2.256c0-.018,0-.035,0-.053s0-.035,0-.053V4.511H89.163a1.85,1.85,0,0,1,1.848,1.848V47.717A14.662,14.662,0,0,0,78.631,61.971ZM93.267,72.309a10.127,10.127,0,1,1,10.127-10.127A10.139,10.139,0,0,1,93.267,72.309Z" transform="translate(-44.412)" fill="#e94859"/>
        </g>
      </g>
      <g id="Grupo_1226" data-name="Grupo 1226" transform="translate(91.011 54.214)">
        <g id="Grupo_1225" data-name="Grupo 1225">
          <path id="Trazado_5387" data-name="Trazado 5387" d="M357.245,361.329a2.256,2.256,0,0,0-2.256,2.256V369.3a2.256,2.256,0,0,0,4.511,0v-5.712A2.256,2.256,0,0,0,357.245,361.329Z" transform="translate(-354.989 -361.329)" fill="#e94859"/>
        </g>
      </g>
      <g id="Grupo_1228" data-name="Grupo 1228" transform="translate(91.011 65.896)">
        <g id="Grupo_1227" data-name="Grupo 1227">
          <path id="Trazado_5388" data-name="Trazado 5388" d="M359.492,441.222a2.108,2.108,0,0,0-.033-.218,1.781,1.781,0,0,0-.054-.215c-.021-.069-.047-.14-.074-.207s-.06-.135-.095-.2-.072-.128-.113-.189a2.176,2.176,0,0,0-.132-.178,2.217,2.217,0,0,0-.149-.165c-.051-.051-.107-.1-.164-.149s-.117-.09-.179-.131a2.189,2.189,0,0,0-.19-.114,2.494,2.494,0,0,0-.408-.168c-.071-.021-.141-.039-.214-.054s-.146-.026-.219-.033a2.191,2.191,0,0,0-.444,0c-.072.008-.146.02-.218.033s-.144.033-.215.054a1.993,1.993,0,0,0-.208.075,2.02,2.02,0,0,0-.2.093c-.065.035-.128.074-.19.114a1.956,1.956,0,0,0-.177.131c-.059.047-.113.1-.165.149a2.167,2.167,0,0,0-.149.165c-.047.057-.09.116-.132.178s-.078.125-.113.189a1.979,1.979,0,0,0-.093.2,2.147,2.147,0,0,0-.075.207c-.021.071-.039.143-.054.215a2.175,2.175,0,0,0-.033.218,2.2,2.2,0,0,0-.01.223c0,.074,0,.147.01.221a2.14,2.14,0,0,0,.033.22c.015.072.033.144.054.214a2.012,2.012,0,0,0,.075.208,1.866,1.866,0,0,0,.093.2,2.1,2.1,0,0,0,.113.19c.042.062.086.122.132.179a1.9,1.9,0,0,0,.149.164,1.926,1.926,0,0,0,.165.149,1.97,1.97,0,0,0,.177.132q.093.061.19.113c.065.035.132.066.2.095s.137.053.208.074a1.8,1.8,0,0,0,.215.054c.072.015.146.025.218.033a2.2,2.2,0,0,0,.222.012,2.176,2.176,0,0,0,.221-.012,2.121,2.121,0,0,0,.22-.033,1.765,1.765,0,0,0,.214-.054c.071-.021.14-.047.208-.074s.135-.06.2-.095a2.228,2.228,0,0,0,.368-.245,2.3,2.3,0,0,0,.313-.313,2.205,2.205,0,0,0,.132-.179,2.17,2.17,0,0,0,.113-.19c.035-.065.066-.131.095-.2s.053-.137.074-.208a1.683,1.683,0,0,0,.054-.214,2.143,2.143,0,0,0,.033-.663Z" transform="translate(-354.993 -439.188)" fill="#e94859"/>
        </g>
      </g>
    </g>
  </g>
</svg>
