<svg xmlns="http://www.w3.org/2000/svg" width="347.132" height="201.481" viewBox="0 0 347.132 201.481">
  <g id="Grupo_1207" data-name="Grupo 1207" transform="translate(36 35.999)">
    <g id="Grupo_893" data-name="Grupo 893" transform="translate(0 0)">
      <path id="Trazado_5094" data-name="Trazado 5094" d="M409.121,801.559a1.833,1.833,0,0,1-1.607-.825,7.285,7.285,0,0,0-13.05.15,1.815,1.815,0,0,1-1.585.841l-187.811,1.931a2.223,2.223,0,0,1-2.085-2.338l-.319-42.167c7.509-2.028,13.113-9.832,13.044-18.967s-5.79-16.812-13.329-18.684l-.319-42.167a2.238,2.238,0,0,1,2.049-2.381l187.811-1.93a1.808,1.808,0,0,1,1.607.825,7.285,7.285,0,0,0,13.05-.151,1.841,1.841,0,0,1,1.585-.841l66.02-.678a2.223,2.223,0,0,1,2.085,2.339l.319,42.1c-7.632,1.928-13.327,9.752-13.257,19.023s5.883,16.986,13.543,18.758l.319,42.1a2.238,2.238,0,0,1-2.049,2.381Z" transform="translate(-202.059 -674.175)" fill="#9f9f9f" opacity="0.3"/>
      <g id="Grupo_892" data-name="Grupo 892" transform="translate(2.504)">
        <g id="Grupo_891" data-name="Grupo 891" transform="translate(0)">
          <path id="Trazado_5092" data-name="Trazado 5092" d="M448.241,727.522c.061,7.919,5.835,14.283,12.907,14.212l.33,42.806c.025,3.291-2.342,5.989-5.281,6.019l-63.049.636a4.983,4.983,0,0,1-4.356-2.448,3.85,3.85,0,0,0-6.837.069,5.009,5.009,0,0,1-4.318,2.535L198.277,793.16c-2.939.029-5.348-2.62-5.373-5.912l-.33-42.817c6.98-.184,12.543-6.618,12.483-14.456s-5.722-14.148-12.7-14.191l-.33-42.818c-.025-3.291,2.342-5.989,5.281-6.019l179.359-1.809a4.982,4.982,0,0,1,4.356,2.448,3.85,3.85,0,0,0,6.837-.069,5.009,5.009,0,0,1,4.318-2.535l63.05-.636c2.939-.029,5.348,2.621,5.373,5.911l.33,42.806C453.855,713.135,448.18,719.615,448.241,727.522Z" transform="translate(-191.688 -664.011)" fill="#fdf6f0"/>
          <path id="Trazado_5093" data-name="Trazado 5093" d="M197.563,792.828c-3.1,0-5.632-2.808-5.658-6.286l-.333-43.162.329-.008c6.762-.179,12.215-6.486,12.156-14.061s-5.608-13.76-12.371-13.8l-.329,0-.333-43.163a6.719,6.719,0,0,1,1.627-4.5,5.351,5.351,0,0,1,3.985-1.9l179.359-1.807a5.283,5.283,0,0,1,4.636,2.613,3.633,3.633,0,0,0,3.121,1.877h.035a3.649,3.649,0,0,0,3.125-1.938,5.31,5.31,0,0,1,4.6-2.707l63.05-.635a5.338,5.338,0,0,1,4.014,1.816,6.688,6.688,0,0,1,1.7,4.47l.333,43.156-.334,0a11.787,11.787,0,0,0-8.785,4.176,15.142,15.142,0,0,0,.152,19.711,11.777,11.777,0,0,0,8.848,4l.334,0,.333,43.156a6.716,6.716,0,0,1-1.627,4.5,5.348,5.348,0,0,1-3.985,1.9l-63.049.636a5.269,5.269,0,0,1-4.635-2.613,3.634,3.634,0,0,0-3.121-1.876h-.035a3.649,3.649,0,0,0-3.125,1.938,5.31,5.31,0,0,1-4.6,2.708l-179.359,1.807Zm-5.317-48.707.327,42.414c.024,3.077,2.28,5.556,5.036,5.529l179.359-1.807a4.659,4.659,0,0,0,4.041-2.36,4.3,4.3,0,0,1,3.68-2.285,4.234,4.234,0,0,1,3.715,2.212,4.6,4.6,0,0,0,4.076,2.277l63.05-.635a4.724,4.724,0,0,0,3.519-1.674,5.9,5.9,0,0,0,1.43-3.956l-.327-42.4a12.373,12.373,0,0,1-8.984-4.212,15.523,15.523,0,0,1-3.927-10.366h0a15.57,15.57,0,0,1,3.766-10.434,12.442,12.442,0,0,1,8.917-4.391l-.328-42.4a5.874,5.874,0,0,0-1.491-3.926,4.669,4.669,0,0,0-3.545-1.6l-63.049.635a4.659,4.659,0,0,0-4.041,2.36,4.164,4.164,0,0,1-7.394.073,4.633,4.633,0,0,0-4.026-2.277H376l-179.359,1.807a4.723,4.723,0,0,0-3.519,1.674,5.9,5.9,0,0,0-1.431,3.956l.327,42.415c6.977.24,12.646,6.692,12.707,14.552S199.217,743.741,192.245,744.122Z" transform="translate(-191.022 -663.345)" fill="#fdf6f0"/>
        </g>
        <path id="Trazado_5094-2" data-name="Trazado 5094" d="M399.8,794.442a1.757,1.757,0,0,1-1.535-.779,6.993,6.993,0,0,0-12.462.142,1.738,1.738,0,0,1-1.514.794l-179.359,1.823a2.109,2.109,0,0,1-1.991-2.208l-.3-39.811c7.171-1.915,12.523-9.283,12.457-17.907s-5.53-15.873-12.729-17.64l-.3-39.811a2.122,2.122,0,0,1,1.957-2.248l179.359-1.823a1.733,1.733,0,0,1,1.535.779,6.993,6.993,0,0,0,12.463-.142,1.764,1.764,0,0,1,1.514-.794l63.049-.641a2.109,2.109,0,0,1,1.991,2.208l.3,39.75c-7.289,1.82-12.728,9.207-12.66,17.96S457.19,750.13,464.5,751.8l.3,39.75a2.121,2.121,0,0,1-1.957,2.248Z" transform="translate(-198.372 -670.557)" fill="#fff"/>
      </g>
    </g>
    <text id="Gestión_de_Reclamos" data-name="Gestión
de Reclamos" transform="translate(124.493 41.21)" fill="#232323" font-size="22" font-family="SFProDisplay-Medium, SF Pro Display" font-weight="500" letter-spacing="0.015em"><tspan x="0" y="21">Gestión</tspan><tspan x="0" y="46">de Reclamos</tspan></text>
    <g id="Grupo_1229" data-name="Grupo 1229" transform="translate(45.481 31.266)">
      <g id="Grupo_1224" data-name="Grupo 1224">
        <g id="Grupo_1223" data-name="Grupo 1223">
          <path id="Trazado_5386" data-name="Trazado 5386" d="M88.956,41.586V5.542A5.548,5.548,0,0,0,83.414,0H57.434a2,2,0,0,0-1.415.586L45,11.6a1.988,1.988,0,0,0-.586,1.415V52.4a5.548,5.548,0,0,0,5.542,5.542h24.84A12.758,12.758,0,1,0,88.956,41.586ZM55.468,6.7v4.356H51.111ZM74.234,54.009H49.954a1.612,1.612,0,0,1-1.61-1.61V14.983h9.09A1.966,1.966,0,0,0,59.4,13.018c0-.015,0-.03,0-.046s0-.03,0-.046V3.932H83.414a1.612,1.612,0,0,1,1.61,1.61V41.586A12.778,12.778,0,0,0,74.234,54.009Zm12.755,9.01a8.826,8.826,0,1,1,8.826-8.826A8.836,8.836,0,0,1,86.99,63.019Z" transform="translate(-44.412)" fill="#e94859"/>
        </g>
      </g>
      <g id="Grupo_1226" data-name="Grupo 1226" transform="translate(40.612 47.248)">
        <g id="Grupo_1225" data-name="Grupo 1225">
          <path id="Trazado_5387" data-name="Trazado 5387" d="M356.955,361.329a1.966,1.966,0,0,0-1.966,1.966v4.978a1.966,1.966,0,0,0,3.932,0v-4.978A1.966,1.966,0,0,0,356.955,361.329Z" transform="translate(-354.989 -361.329)" fill="#e94859"/>
        </g>
      </g>
      <g id="Grupo_1228" data-name="Grupo 1228" transform="translate(40.612 57.429)">
        <g id="Grupo_1227" data-name="Grupo 1227">
          <path id="Trazado_5388" data-name="Trazado 5388" d="M358.914,440.961a1.838,1.838,0,0,0-.029-.19,1.554,1.554,0,0,0-.047-.187c-.018-.06-.041-.122-.064-.181s-.052-.118-.083-.174-.063-.111-.1-.165a1.909,1.909,0,0,0-.115-.155c-.041-.05-.084-.1-.13-.144s-.093-.089-.143-.13a2.183,2.183,0,0,0-.321-.214,2.17,2.17,0,0,0-.355-.147c-.062-.018-.123-.034-.186-.047s-.127-.022-.191-.029a1.913,1.913,0,0,0-.387,0c-.063.007-.127.017-.19.029s-.126.029-.187.047a1.729,1.729,0,0,0-.181.065,1.749,1.749,0,0,0-.174.081c-.057.03-.112.064-.165.1a1.7,1.7,0,0,0-.155.114c-.051.041-.1.085-.144.13a1.9,1.9,0,0,0-.13.144c-.041.05-.079.1-.115.155s-.068.109-.1.165a1.718,1.718,0,0,0-.081.174,1.874,1.874,0,0,0-.066.181c-.018.062-.034.124-.047.187a1.876,1.876,0,0,0-.038.384c0,.064,0,.128.009.193a1.875,1.875,0,0,0,.029.191c.013.063.029.126.047.186a1.756,1.756,0,0,0,.066.181,1.617,1.617,0,0,0,.081.174,1.849,1.849,0,0,0,.1.165c.037.054.075.106.115.156a1.656,1.656,0,0,0,.13.143,1.687,1.687,0,0,0,.144.13,1.72,1.72,0,0,0,.155.115q.081.053.165.1c.056.03.115.058.174.083s.119.046.181.064a1.562,1.562,0,0,0,.187.047c.063.013.127.022.19.029a1.919,1.919,0,0,0,.194.01,1.9,1.9,0,0,0,.193-.01,1.856,1.856,0,0,0,.191-.029,1.536,1.536,0,0,0,.186-.047c.062-.018.122-.041.181-.064s.118-.052.174-.083a1.9,1.9,0,0,0,.165-.1,1.922,1.922,0,0,0,.156-.115,2.009,2.009,0,0,0,.272-.273,1.92,1.92,0,0,0,.115-.156,1.878,1.878,0,0,0,.1-.165c.03-.056.058-.114.083-.174s.046-.119.064-.181a1.463,1.463,0,0,0,.047-.186,1.864,1.864,0,0,0,.029-.578Z" transform="translate(-354.993 -439.188)" fill="#e94859"/>
        </g>
      </g>
    </g>
  </g>
</svg>
