<svg xmlns="http://www.w3.org/2000/svg" xmlns:xlink="http://www.w3.org/1999/xlink" width="1919" height="130" viewBox="0 0 1919 130">
  <defs>
    <filter id="Rectángulo_322" x="1498" y="0" width="421" height="130" filterUnits="userSpaceOnUse">
      <feOffset input="SourceAlpha"/>
      <feGaussianBlur stdDeviation="9" result="blur"/>
      <feFlood flood-opacity="0.2"/>
      <feComposite operator="in" in2="blur"/>
      <feComposite in="SourceGraphic"/>
    </filter>
    <filter id="Rectángulo_323" x="406" y="0" width="427" height="130" filterUnits="userSpaceOnUse">
      <feOffset input="SourceAlpha"/>
      <feGaussianBlur stdDeviation="9" result="blur-2"/>
      <feFlood flood-opacity="0.2"/>
      <feComposite operator="in" in2="blur-2"/>
      <feComposite in="SourceGraphic"/>
    </filter>
    <filter id="Rectángulo_324" x="814" y="0" width="703" height="130" filterUnits="userSpaceOnUse">
      <feOffset input="SourceAlpha"/>
      <feGaussianBlur stdDeviation="9" result="blur-3"/>
      <feFlood flood-opacity="0.2"/>
      <feComposite operator="in" in2="blur-3"/>
      <feComposite in="SourceGraphic"/>
    </filter>
    <filter id="Rectángulo_325" x="0" y="0" width="427" height="130" filterUnits="userSpaceOnUse">
      <feOffset input="SourceAlpha"/>
      <feGaussianBlur stdDeviation="9" result="blur-4"/>
      <feFlood flood-opacity="0.2"/>
      <feComposite operator="in" in2="blur-4"/>
      <feComposite in="SourceGraphic"/>
    </filter>
  </defs>
  <g id="Grupo_1312" data-name="Grupo 1312" transform="translate(27 27.001)">
    <g id="Grupo_1298" data-name="Grupo 1298" transform="translate(1498 0)">
      <g transform="matrix(1, 0, 0, 1, -1525, -27)" filter="url(#Rectángulo_322)">
        <g id="Rectángulo_322-2" data-name="Rectángulo 322" transform="translate(1525 27)" fill="#fff" stroke="#dedede" stroke-width="1">
          <rect width="367" height="76" rx="38" stroke="none"/>
          <rect x="0.5" y="0.5" width="366" height="75" rx="37.5" fill="none"/>
        </g>
      </g>
      <text id="Ventas_especiales" data-name="Ventas especiales" transform="translate(98.25 48.468)" fill="#232323" font-size="28" font-family="SFProDisplay-Medium, SF Pro Display" font-weight="500" letter-spacing="0.015em"><tspan x="0" y="0">Ventas especiales</tspan></text>
      <g id="Grupo_1310" data-name="Grupo 1310" transform="translate(40.13 19.302)">
        <g id="Grupo_1303" data-name="Grupo 1303" transform="translate(0 0)">
          <g id="Grupo_1302" data-name="Grupo 1302">
            <path id="Trazado_5454" data-name="Trazado 5454" d="M45.365,19.66a1.123,1.123,0,0,1,0-.993l1.43-2.925a3.327,3.327,0,0,0-1.436-4.419L42.483,9.8a1.123,1.123,0,0,1-.584-.8l-.562-3.206a3.328,3.328,0,0,0-3.759-2.731l-3.223.456a1.123,1.123,0,0,1-.944-.307L31.072.943a3.327,3.327,0,0,0-4.646,0l-2.34,2.263a1.124,1.124,0,0,1-.944.307l-3.223-.456A3.327,3.327,0,0,0,16.16,5.789L15.6,8.995a1.124,1.124,0,0,1-.584.8l-2.875,1.526A3.328,3.328,0,0,0,10.7,15.743l1.43,2.924a1.123,1.123,0,0,1,0,.993L10.7,22.584A3.327,3.327,0,0,0,12.138,27l2.875,1.526a1.123,1.123,0,0,1,.584.8l.562,3.206A3.325,3.325,0,0,0,19.44,35.3a3.419,3.419,0,0,0,.479-.034l3.223-.456a1.123,1.123,0,0,1,.944.307l2.34,2.263a3.327,3.327,0,0,0,4.646,0l2.34-2.263a1.124,1.124,0,0,1,.944-.307l3.223.456a3.327,3.327,0,0,0,3.759-2.731l.562-3.206a1.124,1.124,0,0,1,.584-.8L45.359,27a3.328,3.328,0,0,0,1.436-4.419Zm-1.042,5.39-2.875,1.526a3.32,3.32,0,0,0-1.725,2.374l-.562,3.206a1.126,1.126,0,0,1-1.272.924l-3.223-.456a3.319,3.319,0,0,0-2.791.907l-2.34,2.263a1.126,1.126,0,0,1-1.572,0l-2.34-2.263a3.317,3.317,0,0,0-2.315-.94,3.393,3.393,0,0,0-.476.034l-3.223.456a1.126,1.126,0,0,1-1.272-.924l-.562-3.206a3.32,3.32,0,0,0-1.725-2.374L13.174,25.05a1.126,1.126,0,0,1-.486-1.495l1.43-2.925a3.32,3.32,0,0,0,0-2.934l-1.43-2.925a1.126,1.126,0,0,1,.486-1.495l2.875-1.526a3.32,3.32,0,0,0,1.725-2.374l.562-3.206a1.126,1.126,0,0,1,1.272-.924l3.223.456A3.32,3.32,0,0,0,25.623,4.8l2.34-2.263a1.126,1.126,0,0,1,1.572,0L31.874,4.8a3.319,3.319,0,0,0,2.791.907l3.223-.456a1.126,1.126,0,0,1,1.272.924l.562,3.206a3.32,3.32,0,0,0,1.725,2.374l2.875,1.526a1.126,1.126,0,0,1,.486,1.495L43.379,17.7a3.32,3.32,0,0,0,0,2.934l1.43,2.924A1.126,1.126,0,0,1,44.323,25.05Z" transform="translate(-10.359 0.002)" fill="#232323"/>
          </g>
        </g>
        <g id="Grupo_1305" data-name="Grupo 1305" transform="translate(9.989 10.765)">
          <g id="Grupo_1304" data-name="Grupo 1304">
            <path id="Trazado_5455" data-name="Trazado 5455" d="M160.268,144.115a1.105,1.105,0,0,0-1.563,0l-14.59,14.59a1.105,1.105,0,1,0,1.563,1.563l14.59-14.59A1.105,1.105,0,0,0,160.268,144.115Z" transform="translate(-143.792 -143.792)" fill="#232323"/>
          </g>
        </g>
        <g id="Grupo_1307" data-name="Grupo 1307" transform="translate(9.915 9.217)">
          <g id="Grupo_1306" data-name="Grupo 1306">
            <path id="Trazado_5456" data-name="Trazado 5456" d="M146.855,123.116a4.053,4.053,0,1,0,4.053,4.053A4.058,4.058,0,0,0,146.855,123.116Zm0,5.9a1.842,1.842,0,1,1,1.842-1.842A1.844,1.844,0,0,1,146.855,129.011Z" transform="translate(-142.802 -123.116)" fill="#232323"/>
          </g>
        </g>
        <g id="Grupo_1309" data-name="Grupo 1309" transform="translate(18.758 21.007)">
          <g id="Grupo_1308" data-name="Grupo 1308">
            <path id="Trazado_5457" data-name="Trazado 5457" d="M264.975,280.61a4.053,4.053,0,1,0,4.053,4.053A4.058,4.058,0,0,0,264.975,280.61Zm0,5.9a1.842,1.842,0,1,1,1.842-1.842A1.844,1.844,0,0,1,264.975,286.505Z" transform="translate(-260.922 -280.61)" fill="#232323"/>
          </g>
        </g>
      </g>
    </g>
    <g id="Grupo_1294" data-name="Grupo 1294" transform="translate(405.701 0)">
      <g transform="matrix(1, 0, 0, 1, -432.7, -27)" filter="url(#Rectángulo_323)">
        <g id="Rectángulo_323-2" data-name="Rectángulo 323" transform="translate(433 27)" fill="#fff" stroke="#dedede" stroke-width="1">
          <rect width="373" height="76" rx="38" stroke="none"/>
          <rect x="0.5" y="0.5" width="372" height="75" rx="37.5" fill="none"/>
        </g>
      </g>
      <text id="Cliente_incognito" data-name="Cliente incognito" transform="translate(107 47.085)" fill="#232323" font-size="28" font-family="SFProDisplay-Medium, SF Pro Display" font-weight="500" letter-spacing="0.015em"><tspan x="0" y="0">Cliente incognito</tspan></text>
      <g id="Grupo_1267" data-name="Grupo 1267" transform="translate(45.344 20.085)">
        <path id="Trazado_5437" data-name="Trazado 5437" d="M1756.548,193.58v33.605a2.288,2.288,0,0,1-1.577,1.58h-33.539a2.253,2.253,0,0,1-1.59-2.474q.035-15.98.014-31.96c0-.131,0-.263,0-.394a1.9,1.9,0,0,1,.848-1.578,5.415,5.415,0,0,1,.727-.359h33.539A2.279,2.279,0,0,1,1756.548,193.58Zm-22.282,5H1721.16V222.11c0,1.508,0,3.015,0,4.523,0,.57.242.81.8.825.155,0,.31,0,.466,0h31.884c.711,0,.929-.214.929-.914q0-13.783,0-27.567v-.4h-13.1c0,.616,0,1.211,0,1.807a.72.72,0,0,1-.395.741.691.691,0,0,1-.788-.163q-1-.813-2.01-1.619c-.248-.2-.5-.394-.752-.591-.941.754-1.855,1.486-2.766,2.22a.685.685,0,0,1-.79.148.7.7,0,0,1-.375-.715C1734.27,199.809,1734.266,199.211,1734.266,198.584Zm-.024-1.352v-3.9a1.465,1.465,0,0,0-.16-.02q-6.086,0-12.171,0a.676.676,0,0,0-.749.764c-.007.992,0,1.985,0,2.977a1.21,1.21,0,0,0,.029.182Zm7.907-.007h13.095c0-1,0-1.978,0-2.956,0-.762-.2-.963-.954-.963l-11.751,0h-.389Zm-6.544,1.924c.726-.583,1.4-1.129,2.084-1.671a.682.682,0,0,1,1.025,0c.6.475,1.193.957,1.79,1.435.086.069.18.127.3.209v-5.8h-5.2Z" transform="translate(-1719.842 -192)" fill="#232323"/>
        <path id="Trazado_5438" data-name="Trazado 5438" d="M1807.434,354.3c-.892-.523-1.749-.952-2.523-1.5-.925-.651-1.793-1.386-2.66-2.114a.651.651,0,0,1-.018-1.106,16.947,16.947,0,0,1,7.99-4.467,10.572,10.572,0,0,1,5.578.3.448.448,0,0,0,.555-.141c.212-.242.447-.465.681-.687a.642.642,0,0,1,.956-.028.658.658,0,0,1-.042.959,5.74,5.74,0,0,1-.5.418c1.038.632,2.03,1.176,2.956,1.816a25.057,25.057,0,0,1,2.164,1.762c.488.424.485.777.02,1.208a16.959,16.959,0,0,1-7.977,4.419,10.5,10.5,0,0,1-5.474-.291.535.535,0,0,0-.677.176,6.517,6.517,0,0,1-.629.637.65.65,0,0,1-.958.02.658.658,0,0,1,.05-.958C1807.08,354.572,1807.267,354.439,1807.434,354.3Zm2.388-.575c4.585,1.1,8.162-.791,11.512-3.581a16.91,16.91,0,0,0-4.712-3.042.388.388,0,0,0-.326.1c-.466.446-.909.917-1.378,1.36a.38.38,0,0,0-.092.519,2.624,2.624,0,0,1-3.68,3.346Zm-6.283-3.613a16.651,16.651,0,0,0,4.712,3.044.394.394,0,0,0,.328-.1c.458-.438.893-.9,1.351-1.336a.4.4,0,0,0,.109-.544,2.628,2.628,0,0,1,3.624-3.374l1.285-1.288C1810.462,345.424,1806.888,347.327,1803.54,350.112Zm7.63.323,1.6-1.477C1811.777,348.657,1811.042,349.391,1811.17,350.436Zm1.039.959a1.242,1.242,0,0,0,1.483-1.487Z" transform="translate(-1794.075 -329.778)" fill="#232323"/>
        <path id="Trazado_5439" data-name="Trazado 5439" d="M2016.542,493.616c.512,0,1.025-.006,1.537,0,.477.007.766.269.763.669a.658.658,0,0,1-.739.655q-1.555.015-3.109,0a.673.673,0,0,1-.734-.665.683.683,0,0,1,.746-.654C2015.517,493.609,2016.029,493.617,2016.542,493.616Z" transform="translate(-1986.071 -464.737)" fill="#232323"/>
        <path id="Trazado_5440" data-name="Trazado 5440" d="M2016.55,521.178c.524,0,1.048,0,1.572,0a.653.653,0,1,1,.011,1.3q-1.572.008-3.143,0a.653.653,0,1,1-.011-1.3C2015.5,521.173,2016.026,521.178,2016.55,521.178Z" transform="translate(-1986.074 -489.661)" fill="#232323"/>
      </g>
    </g>
    <g id="Grupo_1295" data-name="Grupo 1295" transform="translate(814.432 0)">
      <g transform="matrix(1, 0, 0, 1, -841.43, -27)" filter="url(#Rectángulo_324)">
        <g id="Rectángulo_324-2" data-name="Rectángulo 324" transform="translate(841 27)" fill="#fff" stroke="#dedede" stroke-width="1">
          <rect width="649" height="76" rx="38" stroke="none"/>
          <rect x="0.5" y="0.5" width="648" height="75" rx="37.5" fill="none"/>
        </g>
      </g>
      <text id="Gestor_de_campañas_de_Marketing_Directo" data-name="Gestor de campañas de Marketing Directo" transform="translate(96.25 47.085)" fill="#232323" font-size="28" font-family="SFProDisplay-Medium, SF Pro Display" font-weight="500" letter-spacing="0.015em"><tspan x="0" y="0">Gestor de campañas de Marketing Directo</tspan></text>
      <g id="Grupo_1276" data-name="Grupo 1276" transform="translate(40.46 17.659)">
        <g id="Grupo_1269" data-name="Grupo 1269" transform="translate(0 1.552)">
          <g id="Grupo_1268" data-name="Grupo 1268">
            <path id="Trazado_5441" data-name="Trazado 5441" d="M64.672,33.957l-13.79-13.79A3.657,3.657,0,0,0,45.265,24.8l-.019.1a25.514,25.514,0,0,1-7,13.079L31.921,44.3a3.654,3.654,0,0,0,0,5.171l3.447,3.447a3.655,3.655,0,0,0,5.171,0l.862-.862,6.033,6.033a3.657,3.657,0,1,0,5.171-5.171L50.02,50.332l.862-.862a3.654,3.654,0,0,0,0-5.171l-.586-.586a25.518,25.518,0,0,1,9.648-4.121l.1-.019a3.661,3.661,0,0,0,4.63-.445h0A3.661,3.661,0,0,0,64.672,33.957ZM38.816,51.194a1.218,1.218,0,0,1-1.724,0l-3.447-3.447a1.218,1.218,0,0,1,0-1.724l6.033-6.033,5.171,5.171Zm12.066,3.447a1.219,1.219,0,0,1-1.724,1.724l-6.033-6.033,1.724-1.724Zm-4.309-7.757c.366-.366.915-.928,1.781-1.667l.805.805a1.218,1.218,0,0,1,0,1.724l-.862.862Zm.052-3.4L41.35,38.214a27.912,27.912,0,0,0,5.934-11.3L57.928,37.555A27.911,27.911,0,0,0,46.625,43.489ZM62.948,37.4a1.218,1.218,0,0,1-1.724,0l-13.79-13.79a1.219,1.219,0,0,1,1.724-1.724l13.79,13.79A1.22,1.22,0,0,1,62.948,37.4Z" transform="translate(-30.849 -19.098)" fill="#232323"/>
          </g>
        </g>
        <g id="Grupo_1271" data-name="Grupo 1271" transform="translate(24.412)">
          <g id="Grupo_1270" data-name="Grupo 1270">
            <path id="Trazado_5442" data-name="Trazado 5442" d="M332.413,0a1.219,1.219,0,0,0-1.219,1.219V3.657a1.219,1.219,0,1,0,2.438,0V1.219A1.219,1.219,0,0,0,332.413,0Z" transform="translate(-331.194)" fill="#232323"/>
          </g>
        </g>
        <g id="Grupo_1273" data-name="Grupo 1273" transform="translate(31.725 9.751)">
          <g id="Grupo_1272" data-name="Grupo 1272" transform="translate(0)">
            <path id="Trazado_5443" data-name="Trazado 5443" d="M424.826,119.966h-2.438a1.219,1.219,0,1,0,0,2.438h2.438a1.219,1.219,0,1,0,0-2.438Z" transform="translate(-421.169 -119.966)" fill="#232323"/>
          </g>
        </g>
        <g id="Grupo_1275" data-name="Grupo 1275" transform="translate(29.288 2.438)">
          <g id="Grupo_1274" data-name="Grupo 1274">
            <path id="Trazado_5444" data-name="Trazado 5444" d="M395.7,30.348a1.219,1.219,0,0,0-1.724,0l-2.438,2.438a1.219,1.219,0,0,0,1.724,1.724l2.438-2.438A1.219,1.219,0,0,0,395.7,30.348Z" transform="translate(-391.178 -29.991)" fill="#232323"/>
          </g>
        </g>
      </g>
    </g>
    <g id="Grupo_1293" data-name="Grupo 1293" transform="translate(0 0)">
      <g transform="matrix(1, 0, 0, 1, -27, -27)" filter="url(#Rectángulo_325)">
        <g id="Rectángulo_325-2" data-name="Rectángulo 325" transform="translate(27 27)" fill="#fff" stroke="#dedede" stroke-width="1">
          <rect width="373" height="76" rx="38" stroke="none"/>
          <rect x="0.5" y="0.5" width="372" height="75" rx="37.5" fill="none"/>
        </g>
      </g>
      <text id="Módulo_de_puntos" data-name="Módulo de puntos" transform="translate(107 47.085)" fill="#232323" font-size="28" font-family="SFProDisplay-Medium, SF Pro Display" font-weight="500" letter-spacing="0.015em"><tspan x="0" y="0">Módulo de puntos</tspan></text>
      <g id="Grupo_1288" data-name="Grupo 1288" transform="translate(32.788 19.468)">
        <g id="Grupo_1279" data-name="Grupo 1279">
          <g id="Grupo_1278" data-name="Grupo 1278">
            <path id="Trazado_5445" data-name="Trazado 5445" d="M58.762,0H5.788A5.766,5.766,0,0,0,0,5.662V32.338a5.546,5.546,0,0,0,1.752,4.034A5.821,5.821,0,0,0,5.788,38H58.762a5.669,5.669,0,0,0,5.662-5.662V5.662A5.669,5.669,0,0,0,58.762,0Zm1.887,32.338a1.89,1.89,0,0,1-1.887,1.887H5.788a2,2,0,0,1-2.013-1.887V5.662A2,2,0,0,1,5.788,3.775H58.762a1.89,1.89,0,0,1,1.887,1.887Z" fill="#232323" stroke="#fff" stroke-width="1.5"/>
          </g>
        </g>
        <g id="Grupo_1281" data-name="Grupo 1281" transform="translate(7.675 7.55)">
          <g id="Grupo_1280" data-name="Grupo 1280">
            <path id="Trazado_5446" data-name="Trazado 5446" d="M108.185,60h-45.3A1.887,1.887,0,0,0,61,61.887V81.013A1.887,1.887,0,0,0,62.887,82.9h45.3a1.887,1.887,0,0,0,1.887-1.887V61.887A1.887,1.887,0,0,0,108.185,60ZM76.1,79.126H64.775V63.775H76.1Zm15.1,0H79.874V63.775H91.2Zm15.1,0H94.974V63.775H106.3Z" transform="translate(-61 -60)" fill="#232323" stroke="#fff" stroke-width="1.5"/>
          </g>
        </g>
        <g id="Grupo_1283" data-name="Grupo 1283" transform="translate(15.225 15.099)">
          <g id="Grupo_1282" data-name="Grupo 1282">
            <path id="Trazado_5447" data-name="Trazado 5447" d="M122.887,120A1.887,1.887,0,0,0,121,121.887v4.026a1.887,1.887,0,1,0,3.775,0v-4.026A1.887,1.887,0,0,0,122.887,120Z" transform="translate(-121 -120)" fill="#232323" stroke="#fff" stroke-width="1.5"/>
          </g>
        </g>
        <g id="Grupo_1285" data-name="Grupo 1285" transform="translate(30.325 15.099)">
          <g id="Grupo_1284" data-name="Grupo 1284">
            <path id="Trazado_5448" data-name="Trazado 5448" d="M242.887,120A1.887,1.887,0,0,0,241,121.887v4.026a1.887,1.887,0,1,0,3.775,0v-4.026A1.887,1.887,0,0,0,242.887,120Z" transform="translate(-241 -120)" fill="#232323" stroke="#fff" stroke-width="1.5"/>
          </g>
        </g>
        <g id="Grupo_1287" data-name="Grupo 1287" transform="translate(45.424 15.099)">
          <g id="Grupo_1286" data-name="Grupo 1286">
            <path id="Trazado_5449" data-name="Trazado 5449" d="M362.887,120A1.887,1.887,0,0,0,361,121.887v4.026a1.887,1.887,0,0,0,3.775,0v-4.026A1.887,1.887,0,0,0,362.887,120Z" transform="translate(-361 -120)" fill="#232323" stroke="#fff" stroke-width="1.5"/>
          </g>
        </g>
      </g>
    </g>
  </g>
</svg>
