<svg xmlns="http://www.w3.org/2000/svg" xmlns:xlink="http://www.w3.org/1999/xlink" width="347.132" height="201.481" viewBox="0 0 347.132 201.481">
  <defs>
    <clipPath id="clip-path">
      <rect id="Rectángulo_377" data-name="Rectángulo 377" width="59.453" height="59.432" fill="#e94859"/>
    </clipPath>
  </defs>
  <g id="Grupo_1560" data-name="Grupo 1560" transform="translate(36 35.999)">
    <g id="Grupo_893" data-name="Grupo 893" transform="translate(0 0)">
      <path id="Trazado_5094" data-name="Trazado 5094" d="M409.121,801.559a1.833,1.833,0,0,1-1.607-.825,7.285,7.285,0,0,0-13.05.15,1.815,1.815,0,0,1-1.585.841l-187.811,1.931a2.223,2.223,0,0,1-2.085-2.338l-.319-42.167c7.509-2.028,13.113-9.832,13.044-18.967s-5.79-16.812-13.329-18.684l-.319-42.167a2.238,2.238,0,0,1,2.049-2.381l187.811-1.93a1.808,1.808,0,0,1,1.607.825,7.285,7.285,0,0,0,13.05-.151,1.841,1.841,0,0,1,1.585-.841l66.02-.678a2.223,2.223,0,0,1,2.085,2.339l.319,42.1c-7.632,1.928-13.327,9.752-13.257,19.023s5.883,16.986,13.543,18.758l.319,42.1a2.238,2.238,0,0,1-2.049,2.381Z" transform="translate(-202.059 -674.175)" fill="#9f9f9f" opacity="0.3"/>
      <g id="Grupo_892" data-name="Grupo 892" transform="translate(2.504)">
        <g id="Grupo_891" data-name="Grupo 891" transform="translate(0)">
          <path id="Trazado_5092" data-name="Trazado 5092" d="M448.241,727.522c.061,7.919,5.835,14.283,12.907,14.212l.33,42.806c.025,3.291-2.342,5.989-5.281,6.019l-63.049.636a4.983,4.983,0,0,1-4.356-2.448,3.85,3.85,0,0,0-6.837.069,5.009,5.009,0,0,1-4.318,2.535L198.277,793.16c-2.939.029-5.348-2.62-5.373-5.912l-.33-42.817c6.98-.184,12.543-6.618,12.483-14.456s-5.722-14.148-12.7-14.191l-.33-42.818c-.025-3.291,2.342-5.989,5.281-6.019l179.359-1.809a4.982,4.982,0,0,1,4.356,2.448,3.85,3.85,0,0,0,6.837-.069,5.009,5.009,0,0,1,4.318-2.535l63.05-.636c2.939-.029,5.348,2.621,5.373,5.911l.33,42.806C453.855,713.135,448.18,719.615,448.241,727.522Z" transform="translate(-191.688 -664.011)" fill="#fdf6f0"/>
          <path id="Trazado_5093" data-name="Trazado 5093" d="M197.563,792.828c-3.1,0-5.632-2.808-5.658-6.286l-.333-43.162.329-.008c6.762-.179,12.215-6.486,12.156-14.061s-5.608-13.76-12.371-13.8l-.329,0-.333-43.163a6.719,6.719,0,0,1,1.627-4.5,5.351,5.351,0,0,1,3.985-1.9l179.359-1.807a5.283,5.283,0,0,1,4.636,2.613,3.633,3.633,0,0,0,3.121,1.877h.035a3.649,3.649,0,0,0,3.125-1.938,5.31,5.31,0,0,1,4.6-2.707l63.05-.635a5.338,5.338,0,0,1,4.014,1.816,6.688,6.688,0,0,1,1.7,4.47l.333,43.156-.334,0a11.787,11.787,0,0,0-8.785,4.176,15.142,15.142,0,0,0,.152,19.711,11.777,11.777,0,0,0,8.848,4l.334,0,.333,43.156a6.716,6.716,0,0,1-1.627,4.5,5.348,5.348,0,0,1-3.985,1.9l-63.049.636a5.269,5.269,0,0,1-4.635-2.613,3.634,3.634,0,0,0-3.121-1.876h-.035a3.649,3.649,0,0,0-3.125,1.938,5.31,5.31,0,0,1-4.6,2.708l-179.359,1.807Zm-5.317-48.707.327,42.414c.024,3.077,2.28,5.556,5.036,5.529l179.359-1.807a4.659,4.659,0,0,0,4.041-2.36,4.3,4.3,0,0,1,3.68-2.285,4.234,4.234,0,0,1,3.715,2.212,4.6,4.6,0,0,0,4.076,2.277l63.05-.635a4.724,4.724,0,0,0,3.519-1.674,5.9,5.9,0,0,0,1.43-3.956l-.327-42.4a12.373,12.373,0,0,1-8.984-4.212,15.523,15.523,0,0,1-3.927-10.366h0a15.57,15.57,0,0,1,3.766-10.434,12.442,12.442,0,0,1,8.917-4.391l-.328-42.4a5.874,5.874,0,0,0-1.491-3.926,4.669,4.669,0,0,0-3.545-1.6l-63.049.635a4.659,4.659,0,0,0-4.041,2.36,4.164,4.164,0,0,1-7.394.073,4.633,4.633,0,0,0-4.026-2.277H376l-179.359,1.807a4.723,4.723,0,0,0-3.519,1.674,5.9,5.9,0,0,0-1.431,3.956l.327,42.415c6.977.24,12.646,6.692,12.707,14.552S199.217,743.741,192.245,744.122Z" transform="translate(-191.022 -663.345)" fill="#fdf6f0"/>
        </g>
        <path id="Trazado_5094-2" data-name="Trazado 5094" d="M399.8,794.442a1.757,1.757,0,0,1-1.535-.779,6.993,6.993,0,0,0-12.462.142,1.738,1.738,0,0,1-1.514.794l-179.359,1.823a2.109,2.109,0,0,1-1.991-2.208l-.3-39.811c7.171-1.915,12.523-9.283,12.457-17.907s-5.53-15.873-12.729-17.64l-.3-39.811a2.122,2.122,0,0,1,1.957-2.248l179.359-1.823a1.733,1.733,0,0,1,1.535.779,6.993,6.993,0,0,0,12.463-.142,1.764,1.764,0,0,1,1.514-.794l63.049-.641a2.109,2.109,0,0,1,1.991,2.208l.3,39.75c-7.289,1.82-12.728,9.207-12.66,17.96S457.19,750.13,464.5,751.8l.3,39.75a2.121,2.121,0,0,1-1.957,2.248Z" transform="translate(-198.372 -670.557)" fill="#fff"/>
      </g>
    </g>
    <text id="Módulo_de_Encuestas_NPS_" data-name="Módulo de
Encuestas (NPS)" transform="translate(133.208 26.742)" fill="#232323" font-size="22" font-family="SFProDisplay-Medium, SF Pro Display" font-weight="500" letter-spacing="0.015em"><tspan x="0" y="21">Módulo de</tspan><tspan x="0" y="46">Encuestas </tspan><tspan x="0" y="71">(NPS)</tspan></text>
    <g id="Grupo_1526" data-name="Grupo 1526" transform="translate(47.329 35.024)">
      <g id="Grupo_1525" data-name="Grupo 1525" clip-path="url(#clip-path)">
        <path id="Trazado_5476" data-name="Trazado 5476" d="M21.018,0A34.649,34.649,0,0,1,24.53.683q11.6,3.475,14.159,15.334c.045.208.084.417.142.7h.661q7.315,0,14.63,0a5.01,5.01,0,0,1,5.331,5.345q0,17.619,0,35.239a3.668,3.668,0,0,1-.04.751,1.738,1.738,0,0,1-2.73,1.06c-3.188-1.94-6.363-3.9-9.558-5.827A2.3,2.3,0,0,0,46,52.964c-6.541-.019-13.081-.013-19.622-.014a5.016,5.016,0,0,1-5.359-5.376q0-3.948,0-7.9v-.752c-1.121,0-2.2.06-3.269-.012a19.066,19.066,0,0,1-6.837-1.875,1.233,1.233,0,0,0-.851-.052c-2.4.859-4.789,1.752-7.181,2.636C1.37,40.18.816,40,0,38.668v-.929a.545.545,0,0,0,.1-.13c.909-2.46,1.825-4.917,2.707-7.387a1.072,1.072,0,0,0-.112-.785A19.054,19.054,0,0,1,.634,24.423C.365,23.3.207,22.154,0,21.018V18a1.857,1.857,0,0,0,.094-.324A19.45,19.45,0,0,1,14.534.662C15.7.346,16.92.216,18.114,0ZM4.7,35.241c1.725-.637,3.311-1.192,4.872-1.812a2.533,2.533,0,0,1,2.32.153,15.658,15.658,0,0,0,9.235,1.86A16.023,16.023,0,1,0,5.971,28.035a2.8,2.8,0,0,1,.3,2.971c-.273.574-.457,1.19-.677,1.788-.284.772-.565,1.546-.894,2.447m35.449,2.083c-.349.371-.632.689-.932.99-1.174,1.18-2.343,2.364-3.533,3.527a1.716,1.716,0,0,1-2.493.013,1.753,1.753,0,0,1,.031-2.457c.212-.226.435-.441.654-.659l3.788-3.784-3.079-3.069a19.689,19.689,0,0,1-10.08,6.49c0,3.089,0,6.126,0,9.163,0,1.394.532,1.928,1.921,1.928,6.773,0,13.546-.009,20.319.019a3.154,3.154,0,0,1,1.52.425c2.4,1.416,4.761,2.886,7.137,4.337.168.1.34.2.571.332v-.633q0-15.936,0-31.872c0-1.318-.549-1.869-1.863-1.869q-7.257,0-14.513,0h-.585A19.91,19.91,0,0,1,37.2,27.717c-.554,1.185-.544,1.189.39,2.125.857.858,1.711,1.718,2.653,2.664a6.3,6.3,0,0,1,.44-.567Q42.642,29.962,44.615,28a1.739,1.739,0,1,1,2.49,2.422c-1.324,1.357-2.678,2.685-4.019,4.027-.144.144-.281.294-.473.5.205.178.374.308.524.458q1.994,1.988,3.983,3.981a1.708,1.708,0,0,1,.459,1.763,1.632,1.632,0,0,1-1.3,1.2,1.784,1.784,0,0,1-1.723-.6c-1.443-1.453-2.895-2.9-4.414-4.416" fill="#e94859"/>
        <path id="Trazado_5477" data-name="Trazado 5477" d="M85.35,91.568c1.035-1.037,2-2.008,2.973-2.978,1.5-1.505,3-3.015,4.518-4.512a1.779,1.779,0,0,1,2.131-.346,1.672,1.672,0,0,1,.83,1.875,2.154,2.154,0,0,1-.523.942q-4.288,4.331-8.614,8.625a1.725,1.725,0,0,1-2.622-.011q-2.209-2.183-4.392-4.391A1.747,1.747,0,1,1,82.106,88.3c1.071,1.06,2.125,2.138,3.244,3.266" transform="translate(-66.781 -70.564)" fill="#e94859"/>
      </g>
    </g>
  </g>
</svg>
