<svg id="Grupo_1164" data-name="Grupo 1164" xmlns="http://www.w3.org/2000/svg" width="32.261" height="32.261" viewBox="0 0 32.261 32.261">
  <path id="Trazado_5186" data-name="Trazado 5186" d="M27.351,7.188a6.741,6.741,0,0,1,6.721,6.721V27.351a6.741,6.741,0,0,1-6.721,6.721H13.909a6.741,6.741,0,0,1-6.721-6.721V13.909a6.741,6.741,0,0,1,6.721-6.721H27.351m0-2.688H13.909A9.437,9.437,0,0,0,4.5,13.909V27.351a9.437,9.437,0,0,0,9.409,9.409H27.351a9.437,9.437,0,0,0,9.409-9.409V13.909A9.437,9.437,0,0,0,27.351,4.5Z" transform="translate(-4.5 -4.5)" fill="#fff"/>
  <path id="Trazado_5187" data-name="Trazado 5187" d="M25.641,13.033a2.016,2.016,0,1,1,2.016-2.016A2.011,2.011,0,0,1,25.641,13.033Z" transform="translate(-0.773 -3.623)" fill="#fff"/>
  <path id="Trazado_5188" data-name="Trazado 5188" d="M19.315,13.938a5.377,5.377,0,1,1-5.377,5.377,5.382,5.382,0,0,1,5.377-5.377m0-2.688a8.065,8.065,0,1,0,8.065,8.065,8.067,8.067,0,0,0-8.065-8.065Z" transform="translate(-3.185 -3.186)" fill="#fff"/>
</svg>
