<svg xmlns="http://www.w3.org/2000/svg" width="69.583" height="53.926" viewBox="0 0 69.583 53.926">
  <g id="Grupo_1230" data-name="Grupo 1230" transform="translate(0 -57.604)">
    <path id="Trazado_5389" data-name="Trazado 5389" d="M61.293,107.452V68.573L65.3,64.564v5.044a1.767,1.767,0,0,0,1.767,1.767h.543a1.767,1.767,0,0,0,1.767-1.767V59.371A1.767,1.767,0,0,0,67.611,57.6H57.375a1.767,1.767,0,0,0-1.767,1.767v.543a1.767,1.767,0,0,0,1.767,1.767h5.044L55.36,68.74,47.1,60.485a1.767,1.767,0,0,0-2.5,0l-20.33,20.33a1.767,1.767,0,0,1-2.5,0L15.051,74.09a1.767,1.767,0,0,0-2.5,0l-10.5,10.5a1.767,1.767,0,0,0,0,2.5l.384.384a1.767,1.767,0,0,0,2.5,0L8.29,84.117v23.335H0v4.077H69.583v-4.077Zm-4.077-34.8v34.8H51.884V71.03l2.227,2.227a1.767,1.767,0,0,0,2.5,0Zm-9.409-5.7v40.5H41.534V69.322l3.744-3.744a.816.816,0,0,1,1.155,0Zm-15.681,40.5V78.731L37.457,73.4v34.053H32.126ZM28.048,82.808v24.644H21.776V86.581h0a1.767,1.767,0,0,0,2.5,0ZM12.367,80.04,13.8,78.606l3.9,3.9v24.948H12.367Z" transform="translate(0 0)" fill="#e94859"/>
  </g>
</svg>
