<svg xmlns="http://www.w3.org/2000/svg" xmlns:xlink="http://www.w3.org/1999/xlink" width="347.132" height="201.481" viewBox="0 0 347.132 201.481">
  <defs>
    <clipPath id="clip-path">
      <rect id="Rectángulo_378" data-name="Rectángulo 378" width="62.218" height="61.166" fill="#e94859"/>
    </clipPath>
  </defs>
  <g id="Grupo_1529" data-name="Grupo 1529" transform="translate(36 35.999)">
    <g id="Grupo_893" data-name="Grupo 893" transform="translate(0 0)">
      <path id="Trazado_5094" data-name="Trazado 5094" d="M409.121,801.559a1.833,1.833,0,0,1-1.607-.825,7.285,7.285,0,0,0-13.05.15,1.815,1.815,0,0,1-1.585.841l-187.811,1.931a2.223,2.223,0,0,1-2.085-2.338l-.319-42.167c7.509-2.028,13.113-9.832,13.044-18.967s-5.79-16.812-13.329-18.684l-.319-42.167a2.238,2.238,0,0,1,2.049-2.381l187.811-1.93a1.808,1.808,0,0,1,1.607.825,7.285,7.285,0,0,0,13.05-.151,1.841,1.841,0,0,1,1.585-.841l66.02-.678a2.223,2.223,0,0,1,2.085,2.339l.319,42.1c-7.632,1.928-13.327,9.752-13.257,19.023s5.883,16.986,13.543,18.758l.319,42.1a2.238,2.238,0,0,1-2.049,2.381Z" transform="translate(-202.059 -674.175)" fill="#9f9f9f" opacity="0.3"/>
      <g id="Grupo_892" data-name="Grupo 892" transform="translate(2.504)">
        <g id="Grupo_891" data-name="Grupo 891" transform="translate(0)">
          <path id="Trazado_5092" data-name="Trazado 5092" d="M448.241,727.522c.061,7.919,5.835,14.283,12.907,14.212l.33,42.806c.025,3.291-2.342,5.989-5.281,6.019l-63.049.636a4.983,4.983,0,0,1-4.356-2.448,3.85,3.85,0,0,0-6.837.069,5.009,5.009,0,0,1-4.318,2.535L198.277,793.16c-2.939.029-5.348-2.62-5.373-5.912l-.33-42.817c6.98-.184,12.543-6.618,12.483-14.456s-5.722-14.148-12.7-14.191l-.33-42.818c-.025-3.291,2.342-5.989,5.281-6.019l179.359-1.809a4.982,4.982,0,0,1,4.356,2.448,3.85,3.85,0,0,0,6.837-.069,5.009,5.009,0,0,1,4.318-2.535l63.05-.636c2.939-.029,5.348,2.621,5.373,5.911l.33,42.806C453.855,713.135,448.18,719.615,448.241,727.522Z" transform="translate(-191.688 -664.011)" fill="#fdf6f0"/>
          <path id="Trazado_5093" data-name="Trazado 5093" d="M197.563,792.828c-3.1,0-5.632-2.808-5.658-6.286l-.333-43.162.329-.008c6.762-.179,12.215-6.486,12.156-14.061s-5.608-13.76-12.371-13.8l-.329,0-.333-43.163a6.719,6.719,0,0,1,1.627-4.5,5.351,5.351,0,0,1,3.985-1.9l179.359-1.807a5.283,5.283,0,0,1,4.636,2.613,3.633,3.633,0,0,0,3.121,1.877h.035a3.649,3.649,0,0,0,3.125-1.938,5.31,5.31,0,0,1,4.6-2.707l63.05-.635a5.338,5.338,0,0,1,4.014,1.816,6.688,6.688,0,0,1,1.7,4.47l.333,43.156-.334,0a11.787,11.787,0,0,0-8.785,4.176,15.142,15.142,0,0,0,.152,19.711,11.777,11.777,0,0,0,8.848,4l.334,0,.333,43.156a6.716,6.716,0,0,1-1.627,4.5,5.348,5.348,0,0,1-3.985,1.9l-63.049.636a5.269,5.269,0,0,1-4.635-2.613,3.634,3.634,0,0,0-3.121-1.876h-.035a3.649,3.649,0,0,0-3.125,1.938,5.31,5.31,0,0,1-4.6,2.708l-179.359,1.807Zm-5.317-48.707.327,42.414c.024,3.077,2.28,5.556,5.036,5.529l179.359-1.807a4.659,4.659,0,0,0,4.041-2.36,4.3,4.3,0,0,1,3.68-2.285,4.234,4.234,0,0,1,3.715,2.212,4.6,4.6,0,0,0,4.076,2.277l63.05-.635a4.724,4.724,0,0,0,3.519-1.674,5.9,5.9,0,0,0,1.43-3.956l-.327-42.4a12.373,12.373,0,0,1-8.984-4.212,15.523,15.523,0,0,1-3.927-10.366h0a15.57,15.57,0,0,1,3.766-10.434,12.442,12.442,0,0,1,8.917-4.391l-.328-42.4a5.874,5.874,0,0,0-1.491-3.926,4.669,4.669,0,0,0-3.545-1.6l-63.049.635a4.659,4.659,0,0,0-4.041,2.36,4.164,4.164,0,0,1-7.394.073,4.633,4.633,0,0,0-4.026-2.277H376l-179.359,1.807a4.723,4.723,0,0,0-3.519,1.674,5.9,5.9,0,0,0-1.431,3.956l.327,42.415c6.977.24,12.646,6.692,12.707,14.552S199.217,743.741,192.245,744.122Z" transform="translate(-191.022 -663.345)" fill="#fdf6f0"/>
        </g>
        <path id="Trazado_5094-2" data-name="Trazado 5094" d="M399.8,794.442a1.757,1.757,0,0,1-1.535-.779,6.993,6.993,0,0,0-12.462.142,1.738,1.738,0,0,1-1.514.794l-179.359,1.823a2.109,2.109,0,0,1-1.991-2.208l-.3-39.811c7.171-1.915,12.523-9.283,12.457-17.907s-5.53-15.873-12.729-17.64l-.3-39.811a2.122,2.122,0,0,1,1.957-2.248l179.359-1.823a1.733,1.733,0,0,1,1.535.779,6.993,6.993,0,0,0,12.463-.142,1.764,1.764,0,0,1,1.514-.794l63.049-.641a2.109,2.109,0,0,1,1.991,2.208l.3,39.75c-7.289,1.82-12.728,9.207-12.66,17.96S457.19,750.13,464.5,751.8l.3,39.75a2.121,2.121,0,0,1-1.957,2.248Z" transform="translate(-198.372 -670.557)" fill="#fff"/>
      </g>
    </g>
    <text id="Loyalty_Intelligence_Tool" data-name="Loyalty Intelligence Tool" transform="translate(126.493 26.744)" fill="#232323" font-size="22" font-family="SFProDisplay-Medium, SF Pro Display" font-weight="500" letter-spacing="0.015em"><tspan x="0" y="21">Loyalty </tspan><tspan x="0" y="46">Intelligence </tspan><tspan x="0" y="71">Tool</tspan></text>
    <g id="Grupo_1532" data-name="Grupo 1532" transform="translate(45.489 34.16)">
      <g id="Grupo_1531" data-name="Grupo 1531" clip-path="url(#clip-path)">
        <path id="Trazado_5478" data-name="Trazado 5478" d="M31.23,57.238a32.431,32.431,0,0,1-3.941,2.854,9.236,9.236,0,0,1-13.021-5.112A1.053,1.053,0,0,0,13.6,54.4a9.616,9.616,0,0,1-7.987-9.91.951.951,0,0,0-.605-1.045A9.524,9.524,0,0,1,.829,31.164a1.338,1.338,0,0,0,0-1.206A9.608,9.608,0,0,1,4.776,17.743a.708.708,0,0,0,.41-.793A9.571,9.571,0,0,1,13.12,6.741a1.1,1.1,0,0,0,.743-.511c1.827-4.716,7-7.588,13.031-5.559a8.462,8.462,0,0,1,4.2,3.036,1.671,1.671,0,0,0,.243-.229C34.161-.485,42.6-1.876,46.9,3.708c.567.736.923,1.632,1.42,2.427a1.247,1.247,0,0,0,.689.584A9.647,9.647,0,0,1,57.06,17.065a.791.791,0,0,0,.319.6A9.668,9.668,0,0,1,61.315,30.2a1.054,1.054,0,0,0,0,.731,9.518,9.518,0,0,1-4.329,12.629c-.444.248-.372.544-.361.9a9.527,9.527,0,0,1-7.556,9.8,1.59,1.59,0,0,0-1.31,1.153A9.317,9.317,0,0,1,33.189,59c-.709-.579-1.363-1.225-1.959-1.763M23.067,2.661a11.248,11.248,0,0,0-1.44.134A6.812,6.812,0,0,0,16.14,7.95c-.27.984-.618,1.249-1.629,1.316a8.978,8.978,0,0,0-1.43.207,6.908,6.908,0,0,0-5.118,8.211,1.39,1.39,0,0,1-.887,1.877C2.888,21.5,1.5,25.691,3.7,29.76A1.563,1.563,0,0,1,3.7,31.4,6.873,6.873,0,0,0,7.438,41.614a1.367,1.367,0,0,1,1,1.745,6.917,6.917,0,0,0,6.451,8.5c1.147.1,1.406.318,1.676,1.424a6.584,6.584,0,0,0,8.111,5.006,6.4,6.4,0,0,0,5.134-5.816,1,1,0,0,0-.6-1,3.691,3.691,0,0,1,2.84-6.736,3.54,3.54,0,0,1,2.7,2.99A3.649,3.649,0,0,1,33.012,51.5c-.221.138-.535.354-.553.556A4.225,4.225,0,0,0,33.779,56c.447.369.861.78,1.325,1.127a6.659,6.659,0,0,0,10.551-3.8c.288-1.185.508-1.368,1.78-1.484a6.927,6.927,0,0,0,6.379-8.438,1.367,1.367,0,0,1,1-1.8,6.877,6.877,0,0,0,3.755-10.161,1.645,1.645,0,0,1,.006-1.766,6.985,6.985,0,0,0-3.359-10.107,1.448,1.448,0,0,1-.975-1.84,9.243,9.243,0,0,0,.119-2.44,6.872,6.872,0,0,0-6.724-6.033,1.439,1.439,0,0,1-1.483-1.119C44.977,4.252,42.3,2.421,38.28,2.727c-3.709.282-5.825,2.448-5.858,5.957a.987.987,0,0,0,.591,1,3.686,3.686,0,0,1-1.976,6.853,3.7,3.7,0,0,1-1.823-6.881c.222-.138.524-.341.561-.554A5.278,5.278,0,0,0,26.986,3.59a8.873,8.873,0,0,0-3.918-.929M32.149,12.88a1.035,1.035,0,0,0-2.067-.1,1.035,1.035,0,1,0,2.067.1m-1,36.469a1.01,1.01,0,0,0,1-1.088,1.035,1.035,0,0,0-2.069.065,1.009,1.009,0,0,0,1.067,1.023" transform="translate(0 0)" fill="#e94859"/>
        <path id="Trazado_5479" data-name="Trazado 5479" d="M58.911,83.383V78.849c0-1.98.163-2.161,2.179-2.307,0-.415-.017-.841,0-1.266a1.3,1.3,0,0,1,1.323-1.337,1.269,1.269,0,0,1,1.306,1.341c.018.4,0,.811,0,1.3h1.951c.15-1.1-.354-2.649,1.41-2.606,1.649.041,1.156,1.512,1.3,2.555h1.956c0-.437-.018-.865,0-1.291a1.26,1.26,0,0,1,1.268-1.3,1.3,1.3,0,0,1,1.356,1.3c.024.408,0,.819,0,1.138.65.227,1.394.281,1.783.681.375.385.382,1.128.573,1.792H79.56c0-1.177-.037-2.352.013-3.523a1.609,1.609,0,0,0-.827-1.7,3.546,3.546,0,0,1-1.366-4.16,3.7,3.7,0,0,1,3.611-2.508,3.657,3.657,0,0,1,3.464,2.7,3.572,3.572,0,0,1-1.571,4.088,1.2,1.2,0,0,0-.662,1.267c.031,1.619.017,3.24.009,4.86-.006,1.208-.464,1.655-1.677,1.657-1.762,0-3.524,0-5.342,0v1.852h.741c1.909,0,3.819-.011,5.728.009a.878.878,0,0,0,.913-.5A3.65,3.65,0,0,1,86.8,81.124a3.71,3.71,0,1,1-4.237,5.387c-.118-.2-.347-.462-.528-.465-2.266-.032-4.533-.021-6.883-.021v4.6c0,1.884-.2,2.1-2.177,2.239,0,.37.008.748,0,1.126a1.329,1.329,0,0,1-1.34,1.472,1.292,1.292,0,0,1-1.3-1.429c-.011-.36,0-.721,0-1.144H68.351c0,.28,0,.583,0,.887-.006,1.114-.468,1.7-1.336,1.686-.841-.01-1.291-.582-1.3-1.65,0-.288,0-.577,0-.925H63.725c0,.406.017.832,0,1.256a1.275,1.275,0,0,1-1.329,1.319,1.3,1.3,0,0,1-1.3-1.291c-.026-.428,0-.859,0-1.279-2.092-.149-2.148-.487-2.23-2.336H54.568a4.786,4.786,0,0,0-.062.54c-.006,1.185.018,2.37-.014,3.554a.888.888,0,0,0,.533.9,3.649,3.649,0,0,1,1.7,4.235,3.705,3.705,0,0,1-7.136-.121,3.628,3.628,0,0,1,1.768-4.141.825.825,0,0,0,.481-.848c-.018-1.717-.013-3.434-.005-5.15.005-1.212.454-1.651,1.675-1.657,1.716-.007,3.432-.007,5.148-.012a1.066,1.066,0,0,0,.2-.051V86.024h-1.32c-1.74,0-3.48.011-5.22-.008a.811.811,0,0,0-.838.485,3.636,3.636,0,0,1-4.344,1.723,3.7,3.7,0,1,1,4.363-5.341c.121.2.348.477.529.48,2.266.033,4.532.022,6.888.022m13.559-4.11H61.6V90.134H72.47ZM53.2,99.8a1.052,1.052,0,1,0-1.087-1.038A1.079,1.079,0,0,0,53.2,99.8M49.311,84.721a1.056,1.056,0,1,0-1.093,1.019,1.055,1.055,0,0,0,1.093-1.019m36.5-1.057a1.038,1.038,0,1,0,1.051,1.06,1.057,1.057,0,0,0-1.051-1.06M80.862,69.617A1.039,1.039,0,1,0,81.95,70.64a1.057,1.057,0,0,0-1.088-1.024" transform="translate(-35.918 -53.988)" fill="#e94859"/>
        <path id="Trazado_5480" data-name="Trazado 5480" d="M74.959,78.895c.456,0,.815-.023,1.169.005a1.307,1.307,0,0,1-.036,2.61c-.748.031-1.5.016-2.248.01-1.063-.009-1.545-.48-1.554-1.559-.014-1.741-.019-3.482.006-5.223a.888.888,0,0,0-.523-.9,3.616,3.616,0,0,1-1.718-4.161,3.7,3.7,0,0,1,7.133-.028A3.627,3.627,0,0,1,75.5,73.817a.944.944,0,0,0-.55.967c.031,1.328.011,2.656.011,4.11m-.28-8.241a1.057,1.057,0,1,0-1.085,1.025,1.053,1.053,0,0,0,1.085-1.025" transform="translate(-56.37 -53.975)" fill="#e94859"/>
        <path id="Trazado_5481" data-name="Trazado 5481" d="M215.33,177.478a10.333,10.333,0,0,1-1.094-.007,1.321,1.321,0,0,1-1.211-1.38,1.282,1.282,0,0,1,1.273-1.232c.772-.03,1.546-.022,2.318-.009a1.319,1.319,0,0,1,1.468,1.487c.013,1.764.019,3.528-.007,5.292a.882.882,0,0,0,.508.905,3.615,3.615,0,0,1,1.7,4.162,3.7,3.7,0,1,1-5.379-4.191.912.912,0,0,0,.54-.963c-.029-1.28-.018-2.561-.027-3.841,0-.043-.035-.086-.094-.224m1.4,7.192a1.051,1.051,0,1,0,1.053,1.071,1.077,1.077,0,0,0-1.053-1.071" transform="translate(-171.749 -140.965)" fill="#e94859"/>
      </g>
    </g>
  </g>
</svg>
