<svg xmlns="http://www.w3.org/2000/svg" xmlns:xlink="http://www.w3.org/1999/xlink" width="347.132" height="201.481" viewBox="0 0 347.132 201.481">
  <defs>
    <clipPath id="clip-path">
      <rect id="Rectángulo_375" data-name="Rectángulo 375" width="62.671" height="58.186" fill="#e94859"/>
    </clipPath>
  </defs>
  <g id="Grupo_1214" data-name="Grupo 1214" transform="translate(36 36)">
    <g id="Grupo_893" data-name="Grupo 893" transform="translate(0 -0.001)">
      <path id="Trazado_5094" data-name="Trazado 5094" d="M409.121,801.559a1.833,1.833,0,0,1-1.607-.825,7.285,7.285,0,0,0-13.05.15,1.815,1.815,0,0,1-1.585.841l-187.811,1.931a2.223,2.223,0,0,1-2.085-2.338l-.319-42.167c7.509-2.028,13.113-9.832,13.044-18.967s-5.79-16.812-13.329-18.684l-.319-42.167a2.238,2.238,0,0,1,2.049-2.381l187.811-1.93a1.808,1.808,0,0,1,1.607.825,7.285,7.285,0,0,0,13.05-.151,1.841,1.841,0,0,1,1.585-.841l66.02-.678a2.223,2.223,0,0,1,2.085,2.339l.319,42.1c-7.632,1.928-13.327,9.752-13.257,19.023s5.883,16.986,13.543,18.758l.319,42.1a2.238,2.238,0,0,1-2.049,2.381Z" transform="translate(-202.059 -674.175)" fill="#9f9f9f" opacity="0.3"/>
      <g id="Grupo_892" data-name="Grupo 892" transform="translate(2.504)">
        <g id="Grupo_891" data-name="Grupo 891" transform="translate(0)">
          <path id="Trazado_5092" data-name="Trazado 5092" d="M448.241,727.522c.061,7.919,5.835,14.283,12.907,14.212l.33,42.806c.025,3.291-2.342,5.989-5.281,6.019l-63.049.636a4.983,4.983,0,0,1-4.356-2.448,3.85,3.85,0,0,0-6.837.069,5.009,5.009,0,0,1-4.318,2.535L198.277,793.16c-2.939.029-5.348-2.62-5.373-5.912l-.33-42.817c6.98-.184,12.543-6.618,12.483-14.456s-5.722-14.148-12.7-14.191l-.33-42.818c-.025-3.291,2.342-5.989,5.281-6.019l179.359-1.809a4.982,4.982,0,0,1,4.356,2.448,3.85,3.85,0,0,0,6.837-.069,5.009,5.009,0,0,1,4.318-2.535l63.05-.636c2.939-.029,5.348,2.621,5.373,5.911l.33,42.806C453.855,713.135,448.18,719.615,448.241,727.522Z" transform="translate(-191.688 -664.011)" fill="#fdf6f0"/>
          <path id="Trazado_5093" data-name="Trazado 5093" d="M197.563,792.828c-3.1,0-5.632-2.808-5.658-6.286l-.333-43.162.329-.008c6.762-.179,12.215-6.486,12.156-14.061s-5.608-13.76-12.371-13.8l-.329,0-.333-43.163a6.719,6.719,0,0,1,1.627-4.5,5.351,5.351,0,0,1,3.985-1.9l179.359-1.807a5.283,5.283,0,0,1,4.636,2.613,3.633,3.633,0,0,0,3.121,1.877h.035a3.649,3.649,0,0,0,3.125-1.938,5.31,5.31,0,0,1,4.6-2.707l63.05-.635a5.338,5.338,0,0,1,4.014,1.816,6.688,6.688,0,0,1,1.7,4.47l.333,43.156-.334,0a11.787,11.787,0,0,0-8.785,4.176,15.142,15.142,0,0,0,.152,19.711,11.777,11.777,0,0,0,8.848,4l.334,0,.333,43.156a6.716,6.716,0,0,1-1.627,4.5,5.348,5.348,0,0,1-3.985,1.9l-63.049.636a5.269,5.269,0,0,1-4.635-2.613,3.634,3.634,0,0,0-3.121-1.876h-.035a3.649,3.649,0,0,0-3.125,1.938,5.31,5.31,0,0,1-4.6,2.708l-179.359,1.807Zm-5.317-48.707.327,42.414c.024,3.077,2.28,5.556,5.036,5.529l179.359-1.807a4.659,4.659,0,0,0,4.041-2.36,4.3,4.3,0,0,1,3.68-2.285,4.234,4.234,0,0,1,3.715,2.212,4.6,4.6,0,0,0,4.076,2.277l63.05-.635a4.724,4.724,0,0,0,3.519-1.674,5.9,5.9,0,0,0,1.43-3.956l-.327-42.4a12.373,12.373,0,0,1-8.984-4.212,15.523,15.523,0,0,1-3.927-10.366h0a15.57,15.57,0,0,1,3.766-10.434,12.442,12.442,0,0,1,8.917-4.391l-.328-42.4a5.874,5.874,0,0,0-1.491-3.926,4.669,4.669,0,0,0-3.545-1.6l-63.049.635a4.659,4.659,0,0,0-4.041,2.36,4.164,4.164,0,0,1-7.394.073,4.633,4.633,0,0,0-4.026-2.277H376l-179.359,1.807a4.723,4.723,0,0,0-3.519,1.674,5.9,5.9,0,0,0-1.431,3.956l.327,42.415c6.977.24,12.646,6.692,12.707,14.552S199.217,743.741,192.245,744.122Z" transform="translate(-191.022 -663.345)" fill="#fdf6f0"/>
        </g>
        <path id="Trazado_5094-2" data-name="Trazado 5094" d="M399.8,794.442a1.757,1.757,0,0,1-1.535-.779,6.993,6.993,0,0,0-12.462.142,1.738,1.738,0,0,1-1.514.794l-179.359,1.823a2.109,2.109,0,0,1-1.991-2.208l-.3-39.811c7.171-1.915,12.523-9.283,12.457-17.907s-5.53-15.873-12.729-17.64l-.3-39.811a2.122,2.122,0,0,1,1.957-2.248l179.359-1.823a1.733,1.733,0,0,1,1.535.779,6.993,6.993,0,0,0,12.463-.142,1.764,1.764,0,0,1,1.514-.794l63.049-.641a2.109,2.109,0,0,1,1.991,2.208l.3,39.75c-7.289,1.82-12.728,9.207-12.66,17.96S457.19,750.13,464.5,751.8l.3,39.75a2.121,2.121,0,0,1-1.957,2.248Z" transform="translate(-198.372 -670.557)" fill="#fff"/>
      </g>
    </g>
    <text id="Gestor_Integral_de_campañas" data-name="Gestor Integral de
campañas" transform="translate(134.08 26.741)" fill="#232323" font-size="22" font-family="SFProDisplay-Medium, SF Pro Display" font-weight="500" letter-spacing="0.015em"><tspan x="0" y="21">Gestor </tspan><tspan x="0" y="46">Integral de</tspan><tspan x="0" y="71">campañas</tspan></text>
    <g id="Grupo_1522" data-name="Grupo 1522" transform="translate(50.22 35.646)">
      <g id="Grupo_1521" data-name="Grupo 1521" clip-path="url(#clip-path)">
        <path id="Trazado_5468" data-name="Trazado 5468" d="M28.128,37.775c.261,1.7.731,3.32.107,4.988a5.187,5.187,0,0,1-3.86,3.4c-.8.194-1.605.326-2.507.507.231.867.468,1.706.679,2.552a20.657,20.657,0,0,1,.795,3.493,4.794,4.794,0,0,1-1.475,3.753A5.048,5.048,0,0,1,16.406,57.9a5.36,5.36,0,0,1-3.742-4.1c-.537-2.176-1.206-4.319-1.821-6.475-.372-1.3-.753-2.6-1.127-3.9-.5-1.754-1.007-3.508-1.473-5.132a15.719,15.719,0,0,1-2.768-.45,5.209,5.209,0,0,1-3.6-4.224c-.4-2.259-.838-4.514-1.222-6.776C.4,25.331.124,23.818.013,22.3a4.933,4.933,0,0,1,1.724-4.1c1.312-1.218,2.969-1.392,4.6-1.674,2.71-.468,5.431-.878,8.125-1.424a9.034,9.034,0,0,0,2.258-1.07c.98-.519,1.939-1.076,2.91-1.611,1.328-.732,2.655-1.468,3.99-2.187,1.256-.677,2.526-1.327,3.782-2,1.354-.728,2.7-1.475,4.048-2.209a11.663,11.663,0,0,1,1.511-.778c.441-.161.536-.468.669-.847a8.762,8.762,0,0,1,.884-2.07,5.3,5.3,0,0,1,8.414-.478,6.156,6.156,0,0,1,1.382,3.287c.491,2.779.96,5.562,1.441,8.343q.658,3.8,1.325,7.605c.578,3.293,1.175,6.583,1.736,9.879.347,2.04.738,4.079.929,6.136a4.746,4.746,0,0,1-1.854,4.229,5.31,5.31,0,0,1-6.248.5,7.324,7.324,0,0,1-1.7-1.726,1.688,1.688,0,0,0-1.164-.784c-2.5-.349-5-.744-7.5-1.114-1.04-.154-2.083-.286-3.144-.43m-8.14-4.882L38.68,35.7l-4.7-26.95c-.424.241-.786.462-1.161.658-1.266.662-2.546,1.3-3.8,1.977-2.026,1.1-4.032,2.232-6.058,3.33-1.676.909-3.364,1.8-5.056,2.674a.858.858,0,0,0-.477,1.044c.244,1.364.472,2.731.714,4.1.607,3.424,1.218,6.846,1.845,10.368m-6.1-13.969a3.021,3.021,0,0,0-.487,0q-3.93.68-7.858,1.373c-1.44.256-2.16,1.027-1.978,2.238.251,1.672.6,3.329.89,4.994.3,1.711.633,3.418.876,5.138A1.958,1.958,0,0,0,7.96,34.488c1.43-.3,2.881-.511,4.322-.765,1.326-.234,2.651-.473,4.054-.723L13.884,18.924M46.2,36.971c0,.007-.024-.172-.055-.35-.57-3.221-1.151-6.44-1.71-9.664-.621-3.583-1.213-7.17-1.832-10.753-.626-3.626-1.275-7.247-1.9-10.873-.2-1.163-.963-1.853-1.975-1.724a1.756,1.756,0,0,0-1.614,2.118c.076.787.262,1.562.4,2.343.385,2.233.764,4.467,1.156,6.7.435,2.477.894,4.949,1.323,7.427.437,2.524.842,5.053,1.28,7.576s.916,5.037,1.338,7.561A1.855,1.855,0,0,0,44.642,39c.878-.03,1.515-.787,1.553-2.028m-34.454.5c.226.728.436,1.346.61,1.974.53,1.915,1.023,3.841,1.572,5.751.793,2.761,1.625,5.511,2.436,8.267a1.58,1.58,0,0,0,2,1.064A1.681,1.681,0,0,0,19.7,52.835c-.367-1.7-.8-3.382-1.249-5.062-.574-2.164-1.187-4.318-1.78-6.477-.411-1.5-.814-2.994-1.218-4.48l-3.713.656m9.164,5.708c.462-.086.839-.159,1.215-.227q.6-.109,1.208-.213c1.007-.173,1.625-.711,1.587-1.711a28.609,28.609,0,0,0-.5-3.541.527.527,0,0,0-.364-.314c-1.62-.269-3.243-.515-4.99-.786l1.84,6.792" transform="translate(0 0)" fill="#e94859"/>
        <path id="Trazado_5469" data-name="Trazado 5469" d="M344.361,155.566a1.717,1.717,0,0,1,2.3-1.575c1.727.476,3.436,1.016,5.152,1.528.818.244,1.635.491,2.454.73a1.812,1.812,0,0,1,1.261,2.337,1.783,1.783,0,0,1-2.182,1.144q-3.894-1.142-7.767-2.354a1.656,1.656,0,0,1-1.217-1.811" transform="translate(-292.932 -130.925)" fill="#e94859"/>
        <path id="Trazado_5470" data-name="Trazado 5470" d="M329.5,35.646a1.669,1.669,0,0,1-1.621-1.395,1.712,1.712,0,0,1,.622-1.915q3.266-2.405,6.524-4.821a2.1,2.1,0,0,1,2.177.1c.471.432.943,1.557.376,2.205a7.921,7.921,0,0,1-1.09,1.088c-1.243.957-2.513,1.881-3.777,2.811-.713.525-1.42,1.061-2.163,1.542a4.911,4.911,0,0,1-1.047.384" transform="translate(-278.845 -23.189)" fill="#e94859"/>
        <path id="Trazado_5471" data-name="Trazado 5471" d="M337.97,103.23c-1.352,0-2.061-.6-2.159-1.579a1.88,1.88,0,0,1,1.582-1.989c2.26-.373,4.519-.747,6.775-1.141a1.871,1.871,0,0,1,2.259,1.169,1.848,1.848,0,0,1-1.282,2.26c-2.473.51-4.972.9-7.174,1.281" transform="translate(-285.654 -83.772)" fill="#e94859"/>
      </g>
    </g>
  </g>
</svg>
