<svg xmlns="http://www.w3.org/2000/svg" width="387.692" height="220.569" viewBox="0 0 387.692 220.569">
  <g id="Grupo_1216" data-name="Grupo 1216" transform="translate(25.113 -72.277)">
    <g id="Grupo_893" data-name="Grupo 893" transform="translate(10.887 102.882)">
      <path id="Trazado_5094" data-name="Trazado 5094" d="M439.646,820.338a2.1,2.1,0,0,1-1.844-.946,8.359,8.359,0,0,0-14.973.173,2.082,2.082,0,0,1-1.819.965l-215.5,2.215a2.551,2.551,0,0,1-2.392-2.683l-.366-48.383c8.616-2.327,15.046-11.282,14.967-21.763s-6.644-19.291-15.294-21.438l-.366-48.383a2.568,2.568,0,0,1,2.351-2.732l215.5-2.215a2.075,2.075,0,0,1,1.844.946,8.359,8.359,0,0,0,14.974-.173,2.113,2.113,0,0,1,1.819-.965l75.753-.779a2.551,2.551,0,0,1,2.393,2.683l.366,48.308c-8.757,2.212-15.292,11.19-15.211,21.827s6.75,19.491,15.539,21.524l.366,48.309a2.568,2.568,0,0,1-2.351,2.732Z" transform="translate(-202.059 -668.781)" fill="#9f9f9f" opacity="0.3"/>
      <g id="Grupo_892" data-name="Grupo 892" transform="translate(2.874 5.393)">
        <g id="Grupo_891" data-name="Grupo 891" transform="translate(0)">
          <path id="Trazado_5092" data-name="Trazado 5092" d="M486.012,736.835c.07,9.087,6.7,16.389,14.81,16.307l.379,49.117c.029,3.776-2.687,6.872-6.06,6.906l-72.344.73a5.718,5.718,0,0,1-5-2.809,4.418,4.418,0,0,0-7.845.079A5.747,5.747,0,0,1,405,810.074L199.2,812.15c-3.372.034-6.136-3.006-6.165-6.783l-.379-49.129c8.009-.212,14.392-7.593,14.323-16.588s-6.566-16.233-14.576-16.283l-.379-49.13c-.029-3.776,2.688-6.872,6.06-6.906l205.8-2.076a5.717,5.717,0,0,1,5,2.809,4.418,4.418,0,0,0,7.845-.079,5.748,5.748,0,0,1,4.954-2.909l72.344-.73c3.373-.034,6.136,3.007,6.165,6.783l.379,49.117C492.454,720.327,485.942,727.762,486.012,736.835Z" transform="translate(-191.639 -663.962)" fill="#fdf6f0"/>
          <path id="Trazado_5093" data-name="Trazado 5093" d="M198.527,811.917c-3.555,0-6.462-3.222-6.492-7.212l-.382-49.525.378-.01c7.758-.205,14.015-7.443,13.948-16.134s-6.435-15.788-14.2-15.837l-.378,0-.382-49.525a7.709,7.709,0,0,1,1.867-5.167,6.139,6.139,0,0,1,4.573-2.176l205.8-2.074a6.062,6.062,0,0,1,5.319,3,4.168,4.168,0,0,0,3.581,2.153h.04a4.187,4.187,0,0,0,3.586-2.224,6.093,6.093,0,0,1,5.273-3.107l72.344-.729a6.125,6.125,0,0,1,4.605,2.084,7.673,7.673,0,0,1,1.946,5.129l.383,49.518-.383,0a13.524,13.524,0,0,0-10.08,4.792,17.374,17.374,0,0,0,.174,22.616,13.512,13.512,0,0,0,10.153,4.589l.383,0,.382,49.518a7.706,7.706,0,0,1-1.867,5.167,6.137,6.137,0,0,1-4.573,2.176l-72.344.729a6.045,6.045,0,0,1-5.319-3,4.17,4.17,0,0,0-3.581-2.153h-.04a4.187,4.187,0,0,0-3.586,2.224,6.093,6.093,0,0,1-5.273,3.107l-205.8,2.074Zm-6.1-55.887L192.8,804.7c.027,3.53,2.617,6.375,5.778,6.344l205.8-2.074a5.345,5.345,0,0,0,4.637-2.708,4.934,4.934,0,0,1,4.222-2.622,4.858,4.858,0,0,1,4.263,2.539,5.28,5.28,0,0,0,4.677,2.613l72.344-.729a5.42,5.42,0,0,0,4.038-1.92A6.772,6.772,0,0,0,500.2,801.6l-.376-48.648a14.2,14.2,0,0,1-10.308-4.833,17.811,17.811,0,0,1-4.506-11.895h0a17.866,17.866,0,0,1,4.321-11.972,14.277,14.277,0,0,1,10.232-5.039l-.376-48.648a6.739,6.739,0,0,0-1.711-4.505,5.358,5.358,0,0,0-4.067-1.839l-72.344.729a5.346,5.346,0,0,0-4.637,2.708,4.777,4.777,0,0,1-8.484.084,5.316,5.316,0,0,0-4.62-2.613h-.057l-205.8,2.074a5.419,5.419,0,0,0-4.038,1.92,6.772,6.772,0,0,0-1.642,4.539l.376,48.667c8.005.275,14.51,7.678,14.58,16.7S200.425,755.593,192.426,756.03Z" transform="translate(-191.022 -663.345)" fill="#fdf6f0"/>
        </g>
        <path id="Trazado_5094-2" data-name="Trazado 5094" d="M428.954,812.171a2.016,2.016,0,0,1-1.761-.893,8.024,8.024,0,0,0-14.3.163,1.994,1.994,0,0,1-1.737.911l-205.8,2.092a2.42,2.42,0,0,1-2.285-2.533l-.35-45.68c8.228-2.2,14.369-10.651,14.293-20.547s-6.345-18.213-14.606-20.24l-.35-45.68a2.435,2.435,0,0,1,2.246-2.58l205.8-2.091a1.989,1.989,0,0,1,1.761.893,8.024,8.024,0,0,0,14.3-.163,2.024,2.024,0,0,1,1.737-.911l72.344-.735a2.419,2.419,0,0,1,2.285,2.533l.349,45.609c-8.363,2.089-14.6,10.564-14.527,20.607s6.446,18.4,14.84,20.321l.349,45.61a2.434,2.434,0,0,1-2.246,2.579Z" transform="translate(-197.828 -670.024)" fill="#fff"/>
      </g>
    </g>
    <text id="Dashboard_de_métricas_y_analíticas" data-name="Dashboard
de métricas y
analíticas" transform="translate(148.733 143.061)" fill="#232323" font-size="24" font-family="SFProDisplay-Semibold, SF Pro Display" font-weight="600" letter-spacing="0.015em"><tspan x="0" y="23">Dashboard</tspan><tspan x="0" y="48">de métricas y</tspan><tspan x="0" y="73">analíticas</tspan></text>
    <g id="Grupo_1258" data-name="Grupo 1258" transform="translate(57.234 134.44)">
      <path id="Trazado_5411" data-name="Trazado 5411" d="M60.808,17H5.859A5.866,5.866,0,0,0,0,22.859V60.88A5.866,5.866,0,0,0,5.859,66.74H24.778l-1.432,8.594H20.833a1.953,1.953,0,1,0,0,3.906h25a1.953,1.953,0,0,0,0-3.906H43.321L41.889,66.74H60.808a5.866,5.866,0,0,0,5.859-5.859V22.859A5.866,5.866,0,0,0,60.808,17ZM39.361,75.334H27.306l1.432-8.594h9.191Zm23.4-14.453a1.955,1.955,0,0,1-1.953,1.953H5.859A1.955,1.955,0,0,1,3.906,60.88V22.859a1.955,1.955,0,0,1,1.953-1.953H31.38V23.12a1.953,1.953,0,1,0,3.906,0V20.906H60.808a1.955,1.955,0,0,1,1.953,1.953Z" fill="#e94859"/>
      <path id="Trazado_5412" data-name="Trazado 5412" d="M83.62,125.5a1.953,1.953,0,0,0-1.953,1.953v6.38H77.24V121.2a1.953,1.953,0,1,0-3.906,0v12.63H68.906v-18.88a1.953,1.953,0,1,0-3.906,0v20.833a1.953,1.953,0,0,0,1.953,1.953H83.62a1.953,1.953,0,0,0,1.953-1.953v-8.333A1.953,1.953,0,0,0,83.62,125.5Z" transform="translate(-56.536 -83.5)" fill="#e94859"/>
      <path id="Trazado_5413" data-name="Trazado 5413" d="M284.328,121a11.322,11.322,0,0,0-8.1,19.242,1.28,1.28,0,0,0,.184.184A11.326,11.326,0,1,0,284.328,121Zm7.159,9.375h-5.206v-5.206A7.448,7.448,0,0,1,291.487,130.375Zm-9.112-5.206v6.35l-4.488,4.488A7.425,7.425,0,0,1,282.375,125.169Zm-1.726,13.6,4.488-4.488h6.35A7.425,7.425,0,0,1,280.649,138.77Z" transform="translate(-237.453 -90.458)" fill="#e94859"/>
    </g>
  </g>
</svg>
