<svg xmlns="http://www.w3.org/2000/svg" width="387.692" height="220.569" viewBox="0 0 387.692 220.569">
  <g id="Grupo_1214" data-name="Grupo 1214" transform="translate(25.113 -72.277)">
    <g id="Grupo_893" data-name="Grupo 893" transform="translate(10.887 102.882)">
      <path id="Trazado_5094" data-name="Trazado 5094" d="M439.646,820.338a2.1,2.1,0,0,1-1.844-.946,8.359,8.359,0,0,0-14.973.173,2.082,2.082,0,0,1-1.819.965l-215.5,2.215a2.551,2.551,0,0,1-2.392-2.683l-.366-48.383c8.616-2.327,15.046-11.282,14.967-21.763s-6.644-19.291-15.294-21.438l-.366-48.383a2.568,2.568,0,0,1,2.351-2.732l215.5-2.215a2.075,2.075,0,0,1,1.844.946,8.359,8.359,0,0,0,14.974-.173,2.113,2.113,0,0,1,1.819-.965l75.753-.779a2.551,2.551,0,0,1,2.393,2.683l.366,48.308c-8.757,2.212-15.292,11.19-15.211,21.827s6.75,19.491,15.539,21.524l.366,48.309a2.568,2.568,0,0,1-2.351,2.732Z" transform="translate(-202.059 -668.781)" fill="#9f9f9f" opacity="0.3"/>
      <g id="Grupo_892" data-name="Grupo 892" transform="translate(2.874 5.393)">
        <g id="Grupo_891" data-name="Grupo 891" transform="translate(0)">
          <path id="Trazado_5092" data-name="Trazado 5092" d="M486.012,736.835c.07,9.087,6.7,16.389,14.81,16.307l.379,49.117c.029,3.776-2.687,6.872-6.06,6.906l-72.344.73a5.718,5.718,0,0,1-5-2.809,4.418,4.418,0,0,0-7.845.079A5.747,5.747,0,0,1,405,810.074L199.2,812.15c-3.372.034-6.136-3.006-6.165-6.783l-.379-49.129c8.009-.212,14.392-7.593,14.323-16.588s-6.566-16.233-14.576-16.283l-.379-49.13c-.029-3.776,2.688-6.872,6.06-6.906l205.8-2.076a5.717,5.717,0,0,1,5,2.809,4.418,4.418,0,0,0,7.845-.079,5.748,5.748,0,0,1,4.954-2.909l72.344-.73c3.373-.034,6.136,3.007,6.165,6.783l.379,49.117C492.454,720.327,485.942,727.762,486.012,736.835Z" transform="translate(-191.639 -663.962)" fill="#fdf6f0"/>
          <path id="Trazado_5093" data-name="Trazado 5093" d="M198.527,811.917c-3.555,0-6.462-3.222-6.492-7.212l-.382-49.525.378-.01c7.758-.205,14.015-7.443,13.948-16.134s-6.435-15.788-14.2-15.837l-.378,0-.382-49.525a7.709,7.709,0,0,1,1.867-5.167,6.139,6.139,0,0,1,4.573-2.176l205.8-2.074a6.062,6.062,0,0,1,5.319,3,4.168,4.168,0,0,0,3.581,2.153h.04a4.187,4.187,0,0,0,3.586-2.224,6.093,6.093,0,0,1,5.273-3.107l72.344-.729a6.125,6.125,0,0,1,4.605,2.084,7.673,7.673,0,0,1,1.946,5.129l.383,49.518-.383,0a13.524,13.524,0,0,0-10.08,4.792,17.374,17.374,0,0,0,.174,22.616,13.512,13.512,0,0,0,10.153,4.589l.383,0,.382,49.518a7.706,7.706,0,0,1-1.867,5.167,6.137,6.137,0,0,1-4.573,2.176l-72.344.729a6.045,6.045,0,0,1-5.319-3,4.17,4.17,0,0,0-3.581-2.153h-.04a4.187,4.187,0,0,0-3.586,2.224,6.093,6.093,0,0,1-5.273,3.107l-205.8,2.074Zm-6.1-55.887L192.8,804.7c.027,3.53,2.617,6.375,5.778,6.344l205.8-2.074a5.345,5.345,0,0,0,4.637-2.708,4.934,4.934,0,0,1,4.222-2.622,4.858,4.858,0,0,1,4.263,2.539,5.28,5.28,0,0,0,4.677,2.613l72.344-.729a5.42,5.42,0,0,0,4.038-1.92A6.772,6.772,0,0,0,500.2,801.6l-.376-48.648a14.2,14.2,0,0,1-10.308-4.833,17.811,17.811,0,0,1-4.506-11.895h0a17.866,17.866,0,0,1,4.321-11.972,14.277,14.277,0,0,1,10.232-5.039l-.376-48.648a6.739,6.739,0,0,0-1.711-4.505,5.358,5.358,0,0,0-4.067-1.839l-72.344.729a5.346,5.346,0,0,0-4.637,2.708,4.777,4.777,0,0,1-8.484.084,5.316,5.316,0,0,0-4.62-2.613h-.057l-205.8,2.074a5.419,5.419,0,0,0-4.038,1.92,6.772,6.772,0,0,0-1.642,4.539l.376,48.667c8.005.275,14.51,7.678,14.58,16.7S200.425,755.593,192.426,756.03Z" transform="translate(-191.022 -663.345)" fill="#fdf6f0"/>
        </g>
        <path id="Trazado_5094-2" data-name="Trazado 5094" d="M428.954,812.171a2.016,2.016,0,0,1-1.761-.893,8.024,8.024,0,0,0-14.3.163,1.994,1.994,0,0,1-1.737.911l-205.8,2.092a2.42,2.42,0,0,1-2.285-2.533l-.35-45.68c8.228-2.2,14.369-10.651,14.293-20.547s-6.345-18.213-14.606-20.24l-.35-45.68a2.435,2.435,0,0,1,2.246-2.58l205.8-2.091a1.989,1.989,0,0,1,1.761.893,8.024,8.024,0,0,0,14.3-.163,2.024,2.024,0,0,1,1.737-.911l72.344-.735a2.419,2.419,0,0,1,2.285,2.533l.349,45.609c-8.363,2.089-14.6,10.564-14.527,20.607s6.446,18.4,14.84,20.321l.349,45.61a2.434,2.434,0,0,1-2.246,2.579Z" transform="translate(-197.828 -670.024)" fill="#fff"/>
      </g>
    </g>
    <text id="Contacto_comercios" data-name="Contacto
comercios" transform="translate(164.733 155.561)" fill="#232323" font-size="24" font-family="SFProDisplay-Semibold, SF Pro Display" font-weight="600" letter-spacing="0.015em"><tspan x="0" y="23">Contacto</tspan><tspan x="0" y="48">comercios</tspan></text>
    <g id="Grupo_1238" data-name="Grupo 1238" transform="translate(60.232 118.128)">
      <g id="Grupo_1237" data-name="Grupo 1237" transform="translate(0 31.05)">
        <path id="Trazado_5403" data-name="Trazado 5403" d="M263.747,263.75h-10.39a5.161,5.161,0,0,0-5.156,5.156v7.969a5.161,5.161,0,0,0,5.156,5.156h10.39a5.161,5.161,0,0,0,5.156-5.156v-7.969A5.161,5.161,0,0,0,263.747,263.75Zm1.406,13.125a1.41,1.41,0,0,1-1.406,1.406h-10.39a1.41,1.41,0,0,1-1.406-1.406v-7.969a1.41,1.41,0,0,1,1.406-1.406h10.39a1.41,1.41,0,0,1,1.406,1.406Z" transform="translate(-209.42 -227.391)" fill="#e94859"/>
        <path id="Trazado_5404" data-name="Trazado 5404" d="M76.467,52.924a1.74,1.74,0,0,0-.25-.922L64.842,32a1.885,1.885,0,0,0-1.625-.953H13.234A1.853,1.853,0,0,0,11.609,32L.25,52a1.9,1.9,0,0,0-.25.922A10.968,10.968,0,0,0,6.562,62.956V95.939a1.88,1.88,0,0,0,1.875,1.875H68.014a1.88,1.88,0,0,0,1.875-1.875V63.19a.826.826,0,0,0-.016-.2A11,11,0,0,0,76.467,52.924ZM14.328,34.816h47.8l8.89,15.64H5.453ZM54.421,54.19a7.206,7.206,0,0,1-14.187,0Zm-18.171,0a7.216,7.216,0,0,1-14.2,0Zm-32.374,0h14.2a7.216,7.216,0,0,1-14.2,0ZM31.5,94.064H20.718V73.83a2.671,2.671,0,0,1,2.672-2.672h5.453a2.671,2.671,0,0,1,2.672,2.672V94.064Zm34.64,0H35.249V73.83a6.432,6.432,0,0,0-6.422-6.422H23.374a6.432,6.432,0,0,0-6.422,6.422V94.08h-6.64v-30.2c.219.016.437.016.656.016a10.954,10.954,0,0,0,9.094-4.844,10.958,10.958,0,0,0,18.187,0,10.929,10.929,0,0,0,18.156,0A10.954,10.954,0,0,0,65.5,63.893c.219,0,.422-.016.641-.016V94.064ZM65.5,60.143A7.2,7.2,0,0,1,58.4,54.206h14.2A7.246,7.246,0,0,1,65.5,60.143Z" transform="translate(0 -31.05)" fill="#e94859"/>
      </g>
    </g>
  </g>
</svg>
