<svg xmlns="http://www.w3.org/2000/svg" width="200.509" height="63.275" viewBox="0 0 200.509 63.275">
  <g id="Grupo_964" data-name="Grupo 964" transform="translate(0.5)">
    <path id="Trazado_4997" data-name="Trazado 4997" d="M478.268,2033.063a7.675,7.675,0,0,0,.771.754A7.622,7.622,0,0,1,478.268,2033.063Z" transform="translate(-476.332 -2000.361)" fill="#fff"/>
    <path id="Unión_9" data-name="Unión 9" d="M4.552,14.659A23.065,23.065,0,0,1,3.69,10.2H5.906v-.015L9.895,6.2h1.2c-.028.477-.049.963-.049,1.462,0-.5.022-.985.049-1.462h1.29a1.02,1.02,0,1,0,.009-.665H11.15A17.461,17.461,0,0,1,12.067,1.4a7.508,7.508,0,0,1,1.339,1.194h.009c.092.117.179.219.271.329,0,.009.009.018.018.04.086.1.169.212.252.326,0,.009.012.015.012.015a7.927,7.927,0,0,1,.455.763.173.173,0,0,1,.031.043c.055.114.111.219.157.339.018.028.028.055.046.086.049.1.086.2.132.308a.45.45,0,0,0,.037.1c.049.114.083.225.123.348.009.018.009.037.018.055.046.142.083.283.12.422.009.028.009.046.018.074.031.114.049.234.077.348a.713.713,0,0,1,.018.138c.018.1.037.2.046.292a.91.91,0,0,1,.018.157,1.584,1.584,0,0,1,.028.3c.009.049.009.1.018.142.009.142.009.292.009.443s0,.3-.009.449c-.009.046-.009.089-.018.129a1.76,1.76,0,0,1-.028.308.877.877,0,0,1-.018.151c-.009.1-.028.2-.046.3a.653.653,0,0,1-.018.132.255.255,0,0,0-.018.065H11.609a1,1,0,0,0-.542-.579,1.017,1.017,0,1,0-.415,1.945,1.029,1.029,0,0,0,.572-.169.947.947,0,0,0,.394-.532H15c-.009.037-.018.083-.028.114a.157.157,0,0,0-.018.065c-.04.111-.074.231-.123.348a.4.4,0,0,0-.037.1c-.046.1-.083.206-.132.308-.018.028-.028.055-.046.086a2.532,2.532,0,0,1-.166.345c0,.012-.012.018-.022.037a7.061,7.061,0,0,1-.455.751c-.012.006-.012.015-.022.025a3.248,3.248,0,0,1-.243.329l-.028.04c-.083.111-.179.212-.271.326s-.2.212-.289.32c-.028.025-.058.043-.086.071-.074.074-.16.151-.234.215a.426.426,0,0,1-.1.1c-.077.065-.151.132-.225.188a1.062,1.062,0,0,0-.1.092c-.083.058-.166.114-.243.179-.018.009-.037.028-.055.037a7.616,7.616,0,0,1-7.516.729ZM2.708,13.5a8.046,8.046,0,0,1-.769-.748l-.009-.012c-.114-.129-.225-.262-.326-.391-.012-.018-.022-.028-.022-.037-.111-.132-.2-.274-.308-.425,0-.006-.009-.015-.018-.025-.083-.132-.169-.262-.243-.4a.231.231,0,0,1-.037-.065c-.083-.151-.16-.3-.234-.449-.009-.022-.009-.031-.018-.037-.068-.142-.123-.28-.179-.422a.511.511,0,0,1-.037-.1,4.075,4.075,0,0,1-.169-.471c0-.018-.009-.028-.009-.043C.28,9.728.246,9.578.209,9.427.2,9.39.188,9.344.179,9.3.142,9.147.114,8.978.086,8.811V8.781C.058,8.624.049,8.464.028,8.307c0-.04-.009-.086-.009-.132C.012,8,0,7.836,0,7.66s.012-.348.018-.52c0-.043.009-.08.009-.129.022-.157.031-.317.058-.477V6.506c.018-.1.037-.2.055-.289H3.364a1,1,0,0,0,.222.375A1.02,1.02,0,1,0,4.315,4.86a.976.976,0,0,0-.625.225,1.011,1.011,0,0,0-.326.468H.3c.009-.031.018-.065.028-.1,0-.006.009-.028.009-.037a4.392,4.392,0,0,1,.169-.477.341.341,0,0,1,.037-.092C.6,4.7.656,4.558.723,4.42c.009-.018.009-.028.018-.037.074-.16.151-.308.234-.459a.159.159,0,0,1,.037-.055c.074-.142.16-.283.243-.415.009-.009.009-.018.018-.025.1-.142.2-.283.308-.422,0-.012.009-.022.022-.031a4.477,4.477,0,0,1,.326-.391l.009-.009a7.48,7.48,0,0,1,.769-.76c.129-.1.262-.2.391-.3a.436.436,0,0,1,.068-.055c.129-.1.262-.188.4-.271a.431.431,0,0,1,.049-.031,8.484,8.484,0,0,1,.917-.5h.012s.006-.006.006-.009A7.722,7.722,0,0,1,7.666,0a7.573,7.573,0,0,1,4.4,1.4,17.461,17.461,0,0,0-.917,4.136H9.633v.009l-.009-.009-4.007,4H3.625c-.04-.609-.068-1.237-.068-1.871,0,.634.028,1.262.068,1.871H3.155a1.026,1.026,0,1,0-.009.671H3.69a23.065,23.065,0,0,0,.862,4.456A7.612,7.612,0,0,1,2.708,13.5Z" transform="translate(0 19.953)" fill="#fff" stroke="rgba(0,0,0,0)" stroke-width="1"/>
    <path id="Trazado_4999" data-name="Trazado 4999" d="M481.283,1989.533c.125-.107.256-.208.388-.306C481.539,1989.325,481.408,1989.427,481.283,1989.533Z" transform="translate(-478.574 -1967.762)" fill="#fff"/>
    <path id="Trazado_5000" data-name="Trazado 5000" d="M484.825,1986.429a7.729,7.729,0,0,1,.913-.488A7.675,7.675,0,0,0,484.825,1986.429Z" transform="translate(-481.209 -1965.318)" fill="#fff"/>
    <path id="Trazado_5001" data-name="Trazado 5001" d="M483.051,1988.241q.2-.144.4-.275Q483.248,1988.1,483.051,1988.241Z" transform="translate(-479.889 -1966.824)" fill="#fff"/>
    <path id="Trazado_5002" data-name="Trazado 5002" d="M529.888,2019.015c0-.021.007-.043.011-.063,0,.021-.01.042-.014.063Z" transform="translate(-514.719 -1989.867)" fill="#fff"/>
    <path id="Trazado_5003" data-name="Trazado 5003" d="M483.123,2037.166a7.668,7.668,0,0,1-1.841-1.158A7.656,7.656,0,0,0,483.123,2037.166Z" transform="translate(-478.574 -2002.551)" fill="#fff"/>
    <path id="Trazado_5004" data-name="Trazado 5004" d="M479.039,1990.426a7.722,7.722,0,0,0-.772.753A7.776,7.776,0,0,1,479.039,1990.426Z" transform="translate(-476.332 -1968.653)" fill="#fff"/>
    <path id="Trazado_5005" data-name="Trazado 5005" d="M471.108,2007.576c-.018.1-.036.193-.051.291.015-.1.036-.194.055-.291Z" transform="translate(-470.97 -1981.407)" fill="#fff"/>
    <path id="Trazado_5006" data-name="Trazado 5006" d="M471.9,2004.595c-.01.032-.019.066-.028.1h0C471.888,2004.661,471.9,2004.627,471.9,2004.595Z" transform="translate(-471.58 -1979.19)" fill="#fff"/>
    <path id="Trazado_5007" data-name="Trazado 5007" d="M519.132,1989.967a7.718,7.718,0,0,0-1.337-1.2A7.728,7.728,0,0,1,519.132,1989.967Z" transform="translate(-505.727 -1967.421)" fill="#fff"/>
    <path id="Trazado_5008" data-name="Trazado 5008" d="M522.151,2033q-.142.16-.293.313Q522.009,2033.159,522.151,2033Z" transform="translate(-508.749 -2000.313)" fill="#fff"/>
    <path id="Trazado_5009" data-name="Trazado 5009" d="M518.232,2036.807c-.08.062-.16.123-.242.182C518.072,2036.93,518.153,2036.869,518.232,2036.807Z" transform="translate(-505.872 -2003.145)" fill="#fff"/>
    <path id="Trazado_5010" data-name="Trazado 5010" d="M519.583,2035.727c-.075.065-.151.129-.228.192C519.432,2035.856,519.508,2035.792,519.583,2035.727Z" transform="translate(-506.887 -2002.342)" fill="#fff"/>
    <path id="Trazado_5011" data-name="Trazado 5011" d="M520.87,2034.537c-.075.073-.15.146-.228.216C520.72,2034.682,520.8,2034.61,520.87,2034.537Z" transform="translate(-507.844 -2001.457)" fill="#fff"/>
    <path id="Trazado_5013" data-name="Trazado 5013" d="M529.109,2021.908c.012-.037.022-.074.034-.111h0C529.13,2021.834,529.121,2021.872,529.109,2021.908Z" transform="translate(-514.141 -1991.983)" fill="#fff"/>
    <path id="Trazado_5025" data-name="Trazado 5025" d="M482.8,1989.086l.065-.049Z" transform="translate(-479.7 -1967.62)" fill="#fff"/>
    <path id="Trazado_5026" data-name="Trazado 5026" d="M488.407,1985.905l-.019.009.019-.008Z" transform="translate(-483.858 -1965.291)" fill="#fff"/>
    <path id="Trazado_5027" data-name="Trazado 5027" d="M484.625,1987.874l.051-.032Z" transform="translate(-481.06 -1966.732)" fill="#fff"/>
    <path id="Trazado_5030" data-name="Trazado 5030" d="M525.658,2027.245a7.749,7.749,0,0,1-.462.758A7.749,7.749,0,0,0,525.658,2027.245Z" transform="translate(-511.231 -1996.034)" fill="#fff"/>
    <path id="Trazado_5031" data-name="Trazado 5031" d="M520.347,2035.379l-.1.089Z" transform="translate(-507.549 -2002.084)" fill="#fff"/>
    <path id="Trazado_5032" data-name="Trazado 5032" d="M519.043,2036.477l-.108.084Z" transform="translate(-506.575 -2002.9)" fill="#fff"/>
    <path id="Trazado_5033" data-name="Trazado 5033" d="M517.773,2037.555l.055-.041-.056.039Z" transform="translate(-505.71 -2003.671)" fill="#fff"/>
    <path id="Trazado_5034" data-name="Trazado 5034" d="M521.614,2034.219l-.084.082Z" transform="translate(-508.505 -2001.221)" fill="#fff"/>
    <path id="Rectángulo_303" data-name="Rectángulo 303" d="M3.385,0h0A3.385,3.385,0,0,1,6.771,3.385V47.068a3.385,3.385,0,0,1-3.385,3.385h0A3.385,3.385,0,0,1,0,47.068V3.385A3.385,3.385,0,0,1,3.385,0Z" transform="translate(49.156)" fill="#fff"/>
    <path id="Trazado_5036" data-name="Trazado 5036" d="M746.518,1971.883h-4.9a.936.936,0,0,0-.936.936v18.958c0,6.7-5.616,7.224-7.337,7.224s-7.337-.521-7.337-7.224v-18.958a.936.936,0,0,0-.936-.936h-4.9a.936.936,0,0,0-.936.936v18.958c0,8.352,5.406,13.54,14.107,13.54s14.108-5.188,14.108-13.54v-18.958A.936.936,0,0,0,746.518,1971.883Z" transform="translate(-655.534 -1954.864)" fill="#fff"/>
    <path id="Trazado_5037" data-name="Trazado 5037" d="M863.469,1954.173a14.624,14.624,0,0,0,8.014,1.767c8.931,0,15.412-7.2,15.412-17.114s-6.482-17.114-15.412-17.114a14.667,14.667,0,0,0-7.942,2.26.94.94,0,0,1-1.437-.8v-16.748a.936.936,0,0,0-.936-.936h-4.9a.936.936,0,0,0-.936.936V1955a.936.936,0,0,0,.936.936h4.9a.936.936,0,0,0,.936-.936A.936.936,0,0,1,863.469,1954.173Zm-1.366-12.024V1935.5a.945.945,0,0,1,.029-.234c1.134-4.476,4.473-7.241,8.783-7.241,5.422,0,9.209,4.44,9.209,10.8s-3.787,10.8-9.209,10.8c-4.311,0-7.649-2.764-8.783-7.24A.952.952,0,0,1,862.1,1942.149Z" transform="translate(-756.742 -1905.488)" fill="#fff"/>
    <rect id="Rectángulo_304" data-name="Rectángulo 304" width="6.771" height="8.813" rx="3.385" transform="translate(137.302 4.879)" fill="#fff"/>
    <rect id="Rectángulo_305" data-name="Rectángulo 305" width="6.771" height="33.434" rx="3.385" transform="translate(137.302 17.019)" fill="#fff"/>
    <path id="Trazado_5038" data-name="Trazado 5038" d="M1108.082,1922.507h-5.118a.936.936,0,0,0-.88.617l-7.01,19.371a.936.936,0,0,1-1.759,0l-7.138-19.38a.936.936,0,0,0-.878-.612h-11.607a.936.936,0,0,1-.936-.936v-2.033c0-5.71,1.8-7.733,6.883-7.733h1.768a.936.936,0,0,0,.936-.936v-1.9l-2.076-.007a.87.87,0,1,1-.006-.568l2.082.007v-1.975a.936.936,0,0,0-.936-.936h-2.279c-8.72,0-13.143,4.746-13.143,14.107v1.977a.936.936,0,0,1-.936.936h-4.028a.936.936,0,0,0-.936.936v4.445a.936.936,0,0,0,.936.936h4.028a.936.936,0,0,1,.936.936V1955a.936.936,0,0,0,.936.936h4.9a.936.936,0,0,0,.936-.936V1929.76a.936.936,0,0,1,.936-.936h6.768a.936.936,0,0,1,.874.6l9.28,24.278a.936.936,0,0,1,0,.664l-2.031,5.385c-.828,2.226-3.625,2.693-5.827,2.693h-1.939a.936.936,0,0,0-.936.936v2.5l6.359-.144,1.448-1.515a.871.871,0,1,1,.416.387l-1.628,1.7-6.6.138v1.38a.936.936,0,0,0,.936.936h1.882c6.789,0,10.545-2.336,12.558-7.811l13.7-37.186A.936.936,0,0,0,1108.082,1922.507Z" transform="translate(-909.01 -1905.488)" fill="#fff"/>
    <path id="Trazado_5062" data-name="Trazado 5062" d="M527.564,2053.293a.935.935,0,0,0-1.309-.012,14.166,14.166,0,0,1-4.15,2.738,17.132,17.132,0,0,1-6.883,1.237,14.853,14.853,0,0,1-7.74-2,13.756,13.756,0,0,1-4.394-4.148,11.434,11.434,0,0,1-7.424,1.721,21.735,21.735,0,0,0,10.644,9.66,22.506,22.506,0,0,0,8.914,1.744,23.716,23.716,0,0,0,9.453-1.776,22.327,22.327,0,0,0,6.485-4.216.933.933,0,0,0,.015-1.338Z" transform="translate(-489.269 -2013.781)" fill="#fff"/>
    <path id="Trazado_5063" data-name="Trazado 5063" d="M503.114,1937.255a14.1,14.1,0,0,1,4.374-4.129,14.686,14.686,0,0,1,7.74-2.03,16.629,16.629,0,0,1,6.566,1.206,13.8,13.8,0,0,1,4.15,2.708.935.935,0,0,0,1.308-.014l3.6-3.6a.939.939,0,0,0-.034-1.356,23.4,23.4,0,0,0-6.27-4.141,22.516,22.516,0,0,0-9.326-1.777,22.132,22.132,0,0,0-16.051,6.662,21.453,21.453,0,0,0-3.5,4.741,11.432,11.432,0,0,1,7.441,1.735Z" transform="translate(-489.276 -1919.342)" fill="#fff"/>
    <path id="Trazado_5066" data-name="Trazado 5066" d="M471.316,2005.323q.041-.174.09-.344H471.4c-.026.086-.052.177-.075.272-.034.139-.06.27-.081.394h0c.013-.068.027-.137.042-.2C471.3,2005.4,471.307,2005.362,471.316,2005.323Z" transform="translate(-471.109 -1979.476)" fill="#fff"/>
    <path id="Trazado_5067" data-name="Trazado 5067" d="M471.617,2004.979h0q-.049.17-.09.344C471.553,2005.207,471.585,2005.093,471.617,2004.979Z" transform="translate(-471.319 -1979.476)" fill="#fff"/>
    <path id="Trazado_5068" data-name="Trazado 5068" d="M471.3,2006.778c-.015.068-.029.136-.042.2h0C471.273,2006.915,471.283,2006.845,471.3,2006.778Z" transform="translate(-471.118 -1980.814)" fill="#fff"/>
    <path id="Trazado_5072" data-name="Trazado 5072" d="M493.719,2023.08v-.015l-.015.015Z" transform="translate(-487.811 -1992.925)" fill="#fff"/>
    <path id="Trazado_5086" data-name="Trazado 5086" d="M529.893,2019.2h0v0Z" transform="translate(-514.723 -1990.051)" fill="#fff"/>
    <path id="Trazado_5087" data-name="Trazado 5087" d="M529.565,2019.621c0,.006,0,.013,0,.019.007-.025.014-.047.021-.074.023-.1.043-.188.061-.277-.018.09-.04.179-.062.267C529.575,2019.578,529.571,2019.6,529.565,2019.621Z" transform="translate(-514.477 -1990.118)" fill="#fff"/>
    <path id="Trazado_5088" data-name="Trazado 5088" d="M529.241,2021.1c.023-.075.045-.159.067-.24-.021.08-.044.16-.068.24Z" transform="translate(-514.238 -1991.287)" fill="#fff"/>
    <path id="Trazado_5089" data-name="Trazado 5089" d="M529.233,2020.9h0c.024-.079.047-.159.068-.24,0-.018.01-.034.014-.052s0-.012,0-.018C529.295,2020.69,529.264,2020.793,529.233,2020.9Z" transform="translate(-514.233 -1991.082)" fill="#fff"/>
    <path id="Trazado_5090" data-name="Trazado 5090" d="M529.637,2019.489c.021-.088.043-.177.062-.267l0-.017v-.006h0C529.681,2019.3,529.66,2019.394,529.637,2019.489Z" transform="translate(-514.534 -1990.051)" fill="#fff"/>
  </g>
</svg>
