<svg xmlns="http://www.w3.org/2000/svg" xmlns:xlink="http://www.w3.org/1999/xlink" width="347.132" height="201.481" viewBox="0 0 347.132 201.481">
  <defs>
    <clipPath id="clip-path">
      <rect id="Rectángulo_380" data-name="Rectángulo 380" width="53.234" height="53.246" fill="#e94859" stroke="#e94859" stroke-width="0.5"/>
    </clipPath>
  </defs>
  <g id="Grupo_1528" data-name="Grupo 1528" transform="translate(36 36)">
    <g id="Grupo_893" data-name="Grupo 893" transform="translate(0 0)">
      <path id="Trazado_5094" data-name="Trazado 5094" d="M409.121,801.559a1.833,1.833,0,0,1-1.607-.825,7.285,7.285,0,0,0-13.05.15,1.815,1.815,0,0,1-1.585.841l-187.811,1.931a2.223,2.223,0,0,1-2.085-2.338l-.319-42.167c7.509-2.028,13.113-9.832,13.044-18.967s-5.79-16.812-13.329-18.684l-.319-42.167a2.238,2.238,0,0,1,2.049-2.381l187.811-1.93a1.808,1.808,0,0,1,1.607.825,7.285,7.285,0,0,0,13.05-.151,1.841,1.841,0,0,1,1.585-.841l66.02-.678a2.223,2.223,0,0,1,2.085,2.339l.319,42.1c-7.632,1.928-13.327,9.752-13.257,19.023s5.883,16.986,13.543,18.758l.319,42.1a2.238,2.238,0,0,1-2.049,2.381Z" transform="translate(-202.059 -674.175)" fill="#9f9f9f" opacity="0.3"/>
      <g id="Grupo_892" data-name="Grupo 892" transform="translate(2.504)">
        <g id="Grupo_891" data-name="Grupo 891" transform="translate(0)">
          <path id="Trazado_5092" data-name="Trazado 5092" d="M448.241,727.522c.061,7.919,5.835,14.283,12.907,14.212l.33,42.806c.025,3.291-2.342,5.989-5.281,6.019l-63.049.636a4.983,4.983,0,0,1-4.356-2.448,3.85,3.85,0,0,0-6.837.069,5.009,5.009,0,0,1-4.318,2.535L198.277,793.16c-2.939.029-5.348-2.62-5.373-5.912l-.33-42.817c6.98-.184,12.543-6.618,12.483-14.456s-5.722-14.148-12.7-14.191l-.33-42.818c-.025-3.291,2.342-5.989,5.281-6.019l179.359-1.809a4.982,4.982,0,0,1,4.356,2.448,3.85,3.85,0,0,0,6.837-.069,5.009,5.009,0,0,1,4.318-2.535l63.05-.636c2.939-.029,5.348,2.621,5.373,5.911l.33,42.806C453.855,713.135,448.18,719.615,448.241,727.522Z" transform="translate(-191.688 -664.011)" fill="#fdf6f0"/>
          <path id="Trazado_5093" data-name="Trazado 5093" d="M197.563,792.828c-3.1,0-5.632-2.808-5.658-6.286l-.333-43.162.329-.008c6.762-.179,12.215-6.486,12.156-14.061s-5.608-13.76-12.371-13.8l-.329,0-.333-43.163a6.719,6.719,0,0,1,1.627-4.5,5.351,5.351,0,0,1,3.985-1.9l179.359-1.807a5.283,5.283,0,0,1,4.636,2.613,3.633,3.633,0,0,0,3.121,1.877h.035a3.649,3.649,0,0,0,3.125-1.938,5.31,5.31,0,0,1,4.6-2.707l63.05-.635a5.338,5.338,0,0,1,4.014,1.816,6.688,6.688,0,0,1,1.7,4.47l.333,43.156-.334,0a11.787,11.787,0,0,0-8.785,4.176,15.142,15.142,0,0,0,.152,19.711,11.777,11.777,0,0,0,8.848,4l.334,0,.333,43.156a6.716,6.716,0,0,1-1.627,4.5,5.348,5.348,0,0,1-3.985,1.9l-63.049.636a5.269,5.269,0,0,1-4.635-2.613,3.634,3.634,0,0,0-3.121-1.876h-.035a3.649,3.649,0,0,0-3.125,1.938,5.31,5.31,0,0,1-4.6,2.708l-179.359,1.807Zm-5.317-48.707.327,42.414c.024,3.077,2.28,5.556,5.036,5.529l179.359-1.807a4.659,4.659,0,0,0,4.041-2.36,4.3,4.3,0,0,1,3.68-2.285,4.234,4.234,0,0,1,3.715,2.212,4.6,4.6,0,0,0,4.076,2.277l63.05-.635a4.724,4.724,0,0,0,3.519-1.674,5.9,5.9,0,0,0,1.43-3.956l-.327-42.4a12.373,12.373,0,0,1-8.984-4.212,15.523,15.523,0,0,1-3.927-10.366h0a15.57,15.57,0,0,1,3.766-10.434,12.442,12.442,0,0,1,8.917-4.391l-.328-42.4a5.874,5.874,0,0,0-1.491-3.926,4.669,4.669,0,0,0-3.545-1.6l-63.049.635a4.659,4.659,0,0,0-4.041,2.36,4.164,4.164,0,0,1-7.394.073,4.633,4.633,0,0,0-4.026-2.277H376l-179.359,1.807a4.723,4.723,0,0,0-3.519,1.674,5.9,5.9,0,0,0-1.431,3.956l.327,42.415c6.977.24,12.646,6.692,12.707,14.552S199.217,743.741,192.245,744.122Z" transform="translate(-191.022 -663.345)" fill="#fdf6f0"/>
        </g>
        <path id="Trazado_5094-2" data-name="Trazado 5094" d="M399.8,794.442a1.757,1.757,0,0,1-1.535-.779,6.993,6.993,0,0,0-12.462.142,1.738,1.738,0,0,1-1.514.794l-179.359,1.823a2.109,2.109,0,0,1-1.991-2.208l-.3-39.811c7.171-1.915,12.523-9.283,12.457-17.907s-5.53-15.873-12.729-17.64l-.3-39.811a2.122,2.122,0,0,1,1.957-2.248l179.359-1.823a1.733,1.733,0,0,1,1.535.779,6.993,6.993,0,0,0,12.463-.142,1.764,1.764,0,0,1,1.514-.794l63.049-.641a2.109,2.109,0,0,1,1.991,2.208l.3,39.75c-7.289,1.82-12.728,9.207-12.66,17.96S457.19,750.13,464.5,751.8l.3,39.75a2.121,2.121,0,0,1-1.957,2.248Z" transform="translate(-198.372 -670.557)" fill="#fff"/>
      </g>
    </g>
    <text id="Web_Club_Creator" data-name="Web Club Creator" transform="translate(129.281 39.518)" fill="#232323" font-size="22" font-family="SFProDisplay-Medium, SF Pro Display" font-weight="500" letter-spacing="0.015em"><tspan x="0" y="21">Web Club </tspan><tspan x="0" y="46">Creator</tspan></text>
    <g id="Grupo_1536" data-name="Grupo 1536" transform="translate(49.323 38.118)">
      <g id="Grupo_1535" data-name="Grupo 1535" clip-path="url(#clip-path)">
        <path id="Trazado_5496" data-name="Trazado 5496" d="M26.561,53.246H3.053A2.714,2.714,0,0,1,0,50.218q0-23.6,0-47.192A2.7,2.7,0,0,1,3,0H50.235a2.7,2.7,0,0,1,3,3.026q0,23.6,0,47.192a2.716,2.716,0,0,1-3.055,3.027H26.561M1.774,8.895V9.5q0,20.351,0,40.7c0,1.011.259,1.266,1.285,1.266H50.183c1.017,0,1.276-.259,1.276-1.276q0-20.351,0-40.7v-.6Zm0-1.832H51.459c0-1.327,0-2.618,0-3.909,0-1.164-.217-1.38-1.393-1.38H3.172c-.166,0-.333-.008-.5,0a.857.857,0,0,0-.889.872c-.019,1.457-.007,2.915-.007,4.413" transform="translate(0 0)" fill="#e94859" stroke="#e94859" stroke-width="0.5"/>
        <path id="Trazado_5497" data-name="Trazado 5497" d="M49.69,83.874H62.166c1.019,0,1.276.257,1.276,1.276q0,8.486,0,16.972c0,1.017-.259,1.276-1.276,1.276H37.213c-1.018,0-1.275-.257-1.275-1.277q0-8.486,0-16.972c0-1.019.256-1.275,1.275-1.275H49.69M61.651,85.69H37.745v13.8c.163-.225.273-.366.371-.514q2.4-3.6,4.794-7.194c.709-1.065,1.317-1.058,2.037.022l1.2,1.8,1.636,2.449c.178-.274.319-.483.453-.7q2.275-3.642,4.547-7.286c.254-.408.583-.742,1.074-.568a1.653,1.653,0,0,1,.76.658q3.341,5.3,6.645,10.614c.1.159.214.308.388.557Zm-7.968,4.3-7.244,11.591H60.931L53.683,89.988m-15.2,11.634c1.959,0,3.8.005,5.638-.012a.566.566,0,0,0,.362-.266c.7-1.1,1.4-2.209,2.078-3.331a.66.66,0,0,0,0-.577c-.808-1.255-1.645-2.492-2.477-3.733a1.27,1.27,0,0,0-.2-.184l-5.4,8.1" transform="translate(-30.614 -71.45)" fill="#e94859" stroke="#e94859" stroke-width="0.5"/>
        <path id="Trazado_5498" data-name="Trazado 5498" d="M48.356,245.857q0,2.523,0,5.047c0,.862-.3,1.156-1.173,1.156q-5.046,0-10.092,0c-.862,0-1.154-.3-1.155-1.174q0-5.047,0-10.094c0-.864.3-1.154,1.172-1.155q5.046,0,10.092,0c.863,0,1.155.3,1.156,1.173q0,2.523,0,5.047m-1.814-4.4h-8.8v8.806h8.8Z" transform="translate(-30.611 -204.14)" fill="#e94859" stroke="#e94859" stroke-width="0.5"/>
        <path id="Trazado_5499" data-name="Trazado 5499" d="M143.949,252.06q-2.523,0-5.046,0c-.838,0-1.144-.3-1.144-1.128q0-5.075,0-10.149c0-.838.3-1.144,1.127-1.145q5.073,0,10.147,0c.837,0,1.145.3,1.145,1.127q0,5.075,0,10.149c0,.837-.3,1.144-1.128,1.146-1.7,0-3.4,0-5.1,0m4.416-10.6h-8.8v8.805h8.8Z" transform="translate(-117.351 -204.139)" fill="#e94859" stroke="#e94859" stroke-width="0.5"/>
        <path id="Trazado_5500" data-name="Trazado 5500" d="M239.581,245.792c0-1.682,0-3.365,0-5.047,0-.8.31-1.108,1.107-1.108q5.1,0,10.2,0c.8,0,1.108.312,1.109,1.107q0,5.1,0,10.2c0,.8-.313,1.109-1.108,1.109q-5.1,0-10.2,0c-.8,0-1.106-.312-1.108-1.108,0-1.719,0-3.438,0-5.158m1.813,4.449h8.8v-8.805h-8.8Z" transform="translate(-204.092 -204.138)" fill="#e94859" stroke="#e94859" stroke-width="0.5"/>
        <path id="Trazado_5501" data-name="Trazado 5501" d="M245.767,109.609q-2.523,0-5.046,0c-.7,0-1.1-.333-1.1-.886s.4-.886,1.1-.886q5.1,0,10.2,0c.7,0,1.105.332,1.106.885s-.407.886-1.1.887q-2.578.005-5.156,0" transform="translate(-204.123 -90.935)" fill="#e94859" stroke="#e94859" stroke-width="0.5"/>
        <path id="Trazado_5502" data-name="Trazado 5502" d="M245.786,133.574q-2.523,0-5.046,0c-.709,0-1.112-.317-1.126-.866-.014-.572.4-.907,1.139-.907q5.073,0,10.146,0c.71,0,1.113.316,1.126.865.014.569-.4.907-1.14.908q-2.55,0-5.1,0" transform="translate(-204.121 -110.9)" fill="#e94859" stroke="#e94859" stroke-width="0.5"/>
        <path id="Trazado_5503" data-name="Trazado 5503" d="M245.823,155.763q2.551,0,5.1,0c.7,0,1.105.333,1.105.886s-.408.886-1.106.887q-5.1,0-10.2,0c-.7,0-1.1-.334-1.1-.887s.4-.884,1.1-.885q2.55-.005,5.1,0" transform="translate(-204.123 -130.862)" fill="#e94859" stroke="#e94859" stroke-width="0.5"/>
        <path id="Trazado_5504" data-name="Trazado 5504" d="M245.767,181.5q-2.523,0-5.046,0c-.7,0-1.1-.333-1.1-.886s.4-.885,1.1-.886q5.1,0,10.2,0c.7,0,1.105.332,1.106.885s-.407.886-1.1.887q-2.578.005-5.156,0" transform="translate(-204.123 -149.828)" fill="#e94859" stroke="#e94859" stroke-width="0.5"/>
        <path id="Trazado_5505" data-name="Trazado 5505" d="M273.554,85.639c-.979,0-1.959.005-2.938,0-.653,0-1.049-.347-1.05-.885s.393-.884,1.048-.886q2.938-.008,5.877,0c.652,0,1.05.347,1.05.884s-.4.882-1.049.887c-.979.007-1.959,0-2.938,0" transform="translate(-229.636 -70.964)" fill="#e94859" stroke="#e94859" stroke-width="0.5"/>
        <path id="Trazado_5507" data-name="Trazado 5507" d="M25.335,23.959c.111,0,.222,0,.333,0a.889.889,0,1,1,.013,1.771c-.24.009-.481.009-.72,0a.889.889,0,1,1-.013-1.771c.129-.005.259,0,.388,0" transform="translate(-20.435 -20.408)" fill="#e94859" stroke="#e94859" stroke-width="0.5"/>
        <path id="Trazado_5508" data-name="Trazado 5508" d="M55.241,25.69a3.136,3.136,0,0,1-.5,0,.88.88,0,0,1,.011-1.751,6.8,6.8,0,0,1,.886-.009.889.889,0,1,1-.011,1.771c-.129.005-.259,0-.388,0V25.69" transform="translate(-45.959 -20.373)" fill="#e94859" stroke="#e94859" stroke-width="0.5"/>
        <path id="Trazado_5509" data-name="Trazado 5509" d="M85.212,25.725h-.166c-.748,0-1.16-.32-1.16-.887s.41-.883,1.159-.887c.185,0,.37-.007.554,0a.887.887,0,1,1,0,1.77c-.129.007-.259,0-.388,0" transform="translate(-71.46 -20.401)" fill="#e94859" stroke="#e94859" stroke-width="0.5"/>
      </g>
    </g>
  </g>
</svg>
