<svg id="Grupo_1162" data-name="Grupo 1162" xmlns="http://www.w3.org/2000/svg" width="37.924" height="26.255" viewBox="0 0 37.924 26.255">
  <path id="Trazado_5189" data-name="Trazado 5189" d="M40.989,10.37,31.18,20.361a.176.176,0,0,0,0,.255l6.865,7.311a1.183,1.183,0,0,1,0,1.677,1.188,1.188,0,0,1-1.677,0L29.53,22.321a.187.187,0,0,0-.264,0l-1.668,1.7a7.34,7.34,0,0,1-5.233,2.206,7.487,7.487,0,0,1-5.342-2.27l-1.6-1.632a.187.187,0,0,0-.264,0L8.316,29.605a1.188,1.188,0,0,1-1.677,0,1.183,1.183,0,0,1,0-1.677L13.5,20.617a.194.194,0,0,0,0-.255L3.685,10.37a.18.18,0,0,0-.31.128V30.489a2.926,2.926,0,0,0,2.917,2.917H38.382A2.926,2.926,0,0,0,41.3,30.489V10.5A.182.182,0,0,0,40.989,10.37Z" transform="translate(-3.375 -7.151)" fill="#232323"/>
  <path id="Trazado_5190" data-name="Trazado 5190" d="M22.085,24.567a4.956,4.956,0,0,0,3.564-1.5l14.3-14.559a2.865,2.865,0,0,0-1.805-.638H6.031a2.846,2.846,0,0,0-1.805.638l14.3,14.559A4.957,4.957,0,0,0,22.085,24.567Z" transform="translate(-3.122 -7.875)" fill="#232323"/>
</svg>
