<svg xmlns="http://www.w3.org/2000/svg" xmlns:xlink="http://www.w3.org/1999/xlink" width="347.132" height="201.481" viewBox="0 0 347.132 201.481">
  <defs>
    <clipPath id="clip-path">
      <rect id="Rectángulo_387" data-name="Rectángulo 387" width="55.298" height="63.465" fill="#e94859"/>
    </clipPath>
  </defs>
  <g id="Grupo_1544" data-name="Grupo 1544" transform="translate(36 36)">
    <g id="Grupo_893" data-name="Grupo 893" transform="translate(0 -0.001)">
      <path id="Trazado_5094" data-name="Trazado 5094" d="M409.121,801.559a1.833,1.833,0,0,1-1.607-.825,7.285,7.285,0,0,0-13.05.15,1.815,1.815,0,0,1-1.585.841l-187.811,1.931a2.223,2.223,0,0,1-2.085-2.338l-.319-42.167c7.509-2.028,13.113-9.832,13.044-18.967s-5.79-16.812-13.329-18.684l-.319-42.167a2.238,2.238,0,0,1,2.049-2.381l187.811-1.93a1.808,1.808,0,0,1,1.607.825,7.285,7.285,0,0,0,13.05-.151,1.841,1.841,0,0,1,1.585-.841l66.02-.678a2.223,2.223,0,0,1,2.085,2.339l.319,42.1c-7.632,1.928-13.327,9.752-13.257,19.023s5.883,16.986,13.543,18.758l.319,42.1a2.238,2.238,0,0,1-2.049,2.381Z" transform="translate(-202.059 -674.175)" fill="#9f9f9f" opacity="0.3"/>
      <g id="Grupo_892" data-name="Grupo 892" transform="translate(2.504)">
        <g id="Grupo_891" data-name="Grupo 891" transform="translate(0)">
          <path id="Trazado_5092" data-name="Trazado 5092" d="M448.241,727.522c.061,7.919,5.835,14.283,12.907,14.212l.33,42.806c.025,3.291-2.342,5.989-5.281,6.019l-63.049.636a4.983,4.983,0,0,1-4.356-2.448,3.85,3.85,0,0,0-6.837.069,5.009,5.009,0,0,1-4.318,2.535L198.277,793.16c-2.939.029-5.348-2.62-5.373-5.912l-.33-42.817c6.98-.184,12.543-6.618,12.483-14.456s-5.722-14.148-12.7-14.191l-.33-42.818c-.025-3.291,2.342-5.989,5.281-6.019l179.359-1.809a4.982,4.982,0,0,1,4.356,2.448,3.85,3.85,0,0,0,6.837-.069,5.009,5.009,0,0,1,4.318-2.535l63.05-.636c2.939-.029,5.348,2.621,5.373,5.911l.33,42.806C453.855,713.135,448.18,719.615,448.241,727.522Z" transform="translate(-191.688 -664.011)" fill="#fdf6f0"/>
          <path id="Trazado_5093" data-name="Trazado 5093" d="M197.563,792.828c-3.1,0-5.632-2.808-5.658-6.286l-.333-43.162.329-.008c6.762-.179,12.215-6.486,12.156-14.061s-5.608-13.76-12.371-13.8l-.329,0-.333-43.163a6.719,6.719,0,0,1,1.627-4.5,5.351,5.351,0,0,1,3.985-1.9l179.359-1.807a5.283,5.283,0,0,1,4.636,2.613,3.633,3.633,0,0,0,3.121,1.877h.035a3.649,3.649,0,0,0,3.125-1.938,5.31,5.31,0,0,1,4.6-2.707l63.05-.635a5.338,5.338,0,0,1,4.014,1.816,6.688,6.688,0,0,1,1.7,4.47l.333,43.156-.334,0a11.787,11.787,0,0,0-8.785,4.176,15.142,15.142,0,0,0,.152,19.711,11.777,11.777,0,0,0,8.848,4l.334,0,.333,43.156a6.716,6.716,0,0,1-1.627,4.5,5.348,5.348,0,0,1-3.985,1.9l-63.049.636a5.269,5.269,0,0,1-4.635-2.613,3.634,3.634,0,0,0-3.121-1.876h-.035a3.649,3.649,0,0,0-3.125,1.938,5.31,5.31,0,0,1-4.6,2.708l-179.359,1.807Zm-5.317-48.707.327,42.414c.024,3.077,2.28,5.556,5.036,5.529l179.359-1.807a4.659,4.659,0,0,0,4.041-2.36,4.3,4.3,0,0,1,3.68-2.285,4.234,4.234,0,0,1,3.715,2.212,4.6,4.6,0,0,0,4.076,2.277l63.05-.635a4.724,4.724,0,0,0,3.519-1.674,5.9,5.9,0,0,0,1.43-3.956l-.327-42.4a12.373,12.373,0,0,1-8.984-4.212,15.523,15.523,0,0,1-3.927-10.366h0a15.57,15.57,0,0,1,3.766-10.434,12.442,12.442,0,0,1,8.917-4.391l-.328-42.4a5.874,5.874,0,0,0-1.491-3.926,4.669,4.669,0,0,0-3.545-1.6l-63.049.635a4.659,4.659,0,0,0-4.041,2.36,4.164,4.164,0,0,1-7.394.073,4.633,4.633,0,0,0-4.026-2.277H376l-179.359,1.807a4.723,4.723,0,0,0-3.519,1.674,5.9,5.9,0,0,0-1.431,3.956l.327,42.415c6.977.24,12.646,6.692,12.707,14.552S199.217,743.741,192.245,744.122Z" transform="translate(-191.022 -663.345)" fill="#fdf6f0"/>
        </g>
        <path id="Trazado_5094-2" data-name="Trazado 5094" d="M399.8,794.442a1.757,1.757,0,0,1-1.535-.779,6.993,6.993,0,0,0-12.462.142,1.738,1.738,0,0,1-1.514.794l-179.359,1.823a2.109,2.109,0,0,1-1.991-2.208l-.3-39.811c7.171-1.915,12.523-9.283,12.457-17.907s-5.53-15.873-12.729-17.64l-.3-39.811a2.122,2.122,0,0,1,1.957-2.248l179.359-1.823a1.733,1.733,0,0,1,1.535.779,6.993,6.993,0,0,0,12.463-.142,1.764,1.764,0,0,1,1.514-.794l63.049-.641a2.109,2.109,0,0,1,1.991,2.208l.3,39.75c-7.289,1.82-12.728,9.207-12.66,17.96S457.19,750.13,464.5,751.8l.3,39.75a2.121,2.121,0,0,1-1.957,2.248Z" transform="translate(-198.372 -670.557)" fill="#fff"/>
      </g>
    </g>
    <text id="Gestión_de_Sorteos_y_Concursos" data-name="Gestión de Sorteos y Concursos" transform="translate(134.08 26.741)" fill="#232323" font-size="22" font-family="SFProDisplay-Medium, SF Pro Display" font-weight="500" letter-spacing="0.015em"><tspan x="0" y="21">Gestión de </tspan><tspan x="0" y="46">Sorteos y </tspan><tspan x="0" y="71">Concursos</tspan></text>
    <g id="Grupo_1554" data-name="Grupo 1554" transform="translate(51.152 30.453)" clip-path="url(#clip-path)">
      <path id="Trazado_5525" data-name="Trazado 5525" d="M5.33,63.465a5.982,5.982,0,0,1-3.7-2.046A5.513,5.513,0,0,1,.386,58.373c-.029-.329-.034-.66-.034-.991q0-12.458,0-24.916c0-1.808.614-2.428,2.408-2.428H29.753l.026-.127c-.237-.095-.471-.2-.71-.283L1.574,19.614c-1.5-.546-1.885-1.384-1.337-2.9.757-2.094,1.508-4.191,2.28-6.28A5.6,5.6,0,0,1,10.045,6.9c1.652.587,3.3,1.193,4.945,1.789.191.069.385.131.645.22a7.86,7.86,0,0,1,.327-3.894A7.568,7.568,0,0,1,23.39.011,7.474,7.474,0,0,1,30.346,5.8c.369,1.839.6,3.707.887,5.562.032.2.066.4.118.724.234-.2.4-.333.558-.472,1.369-1.2,2.694-2.447,4.116-3.576a7.506,7.506,0,0,1,9.812,11.337c-.116.112-.223.232-.389.406l5.677,2.065A6.274,6.274,0,0,1,53.7,23.39a5.463,5.463,0,0,1,1.232,5.85c-.79,2.28-1.631,4.542-2.473,6.8a1.835,1.835,0,0,1-2.538,1.168c-.406-.136-.81-.279-1.316-.455v.788q0,10.01,0,20.019a5.533,5.533,0,0,1-3.217,5.351,11.234,11.234,0,0,1-1.758.552ZM4.066,33.778V34.4q0,11.582,0,23.163c0,1.5.69,2.183,2.2,2.183q5.977,0,11.953,0h.639V33.778ZM30.081,59.709a2.832,2.832,0,0,0,.318.037c4.213,0,8.426.009,12.639-.005a1.8,1.8,0,0,0,1.846-1.905q.013-11,.014-21.994a.554.554,0,0,0-.436-.621c-1.129-.392-2.241-.835-3.376-1.21a4.792,4.792,0,0,0-1.443-.252c-2.953-.023-5.906-.011-8.859-.011h-.7ZM24.195,16.023c-.19-.077-.319-.135-.453-.184q-4.036-1.473-8.073-2.944Q12.184,11.626,8.7,10.363a1.79,1.79,0,0,0-2.443.795c-.733,1.784-1.359,3.612-2.047,5.47l17.454,6.351,2.536-6.957M32.13,26.789l17.444,6.352c.608-1.673,1.2-3.294,1.786-4.917a1.91,1.91,0,0,0-1.314-2.814q-4.471-1.629-8.945-3.252c-2.125-.773-4.25-1.55-6.431-2.346L32.13,26.789M26.3,33.748c-1.035,0-2,.035-2.967-.013-.58-.029-.723.163-.721.725q.025,12.3.013,24.594c0,.218.022.435.034.654H26.3Zm1.483-20.4C27.419,11,27.146,8.751,26.7,6.537A3.732,3.732,0,0,0,22.815,3.73a3.835,3.835,0,0,0-.913,7.481c1.678.629,3.367,1.227,5.051,1.838.243.088.488.173.831.294m5.457,2.031c2.324.81,4.5,1.7,6.754,2.311a3.593,3.593,0,0,0,4.111-2.138,3.814,3.814,0,0,0-.935-4.406,3.686,3.686,0,0,0-4.678-.314c-1.769,1.414-3.433,2.961-5.252,4.547m-5.548,1.9-2.537,6.979,3.486,1.266,2.535-6.974-3.484-1.271" transform="translate(0 0)" fill="#e94859"/>
    </g>
  </g>
</svg>
