<svg xmlns="http://www.w3.org/2000/svg" width="387.692" height="220.569" viewBox="0 0 387.692 220.569">
  <g id="Grupo_1212" data-name="Grupo 1212" transform="translate(25.113 -72.277)">
    <g id="Grupo_893" data-name="Grupo 893" transform="translate(10.887 102.882)">
      <path id="Trazado_5094" data-name="Trazado 5094" d="M439.646,820.338a2.1,2.1,0,0,1-1.844-.946,8.359,8.359,0,0,0-14.973.173,2.082,2.082,0,0,1-1.819.965l-215.5,2.215a2.551,2.551,0,0,1-2.392-2.683l-.366-48.383c8.616-2.327,15.046-11.282,14.967-21.763s-6.644-19.291-15.294-21.438l-.366-48.383a2.568,2.568,0,0,1,2.351-2.732l215.5-2.215a2.075,2.075,0,0,1,1.844.946,8.359,8.359,0,0,0,14.974-.173,2.113,2.113,0,0,1,1.819-.965l75.753-.779a2.551,2.551,0,0,1,2.393,2.683l.366,48.308c-8.757,2.212-15.292,11.19-15.211,21.827s6.75,19.491,15.539,21.524l.366,48.309a2.568,2.568,0,0,1-2.351,2.732Z" transform="translate(-202.059 -668.781)" fill="#9f9f9f" opacity="0.3"/>
      <g id="Grupo_892" data-name="Grupo 892" transform="translate(2.874 5.393)">
        <g id="Grupo_891" data-name="Grupo 891" transform="translate(0)">
          <path id="Trazado_5092" data-name="Trazado 5092" d="M486.012,736.835c.07,9.087,6.7,16.389,14.81,16.307l.379,49.117c.029,3.776-2.687,6.872-6.06,6.906l-72.344.73a5.718,5.718,0,0,1-5-2.809,4.418,4.418,0,0,0-7.845.079A5.747,5.747,0,0,1,405,810.074L199.2,812.15c-3.372.034-6.136-3.006-6.165-6.783l-.379-49.129c8.009-.212,14.392-7.593,14.323-16.588s-6.566-16.233-14.576-16.283l-.379-49.13c-.029-3.776,2.688-6.872,6.06-6.906l205.8-2.076a5.717,5.717,0,0,1,5,2.809,4.418,4.418,0,0,0,7.845-.079,5.748,5.748,0,0,1,4.954-2.909l72.344-.73c3.373-.034,6.136,3.007,6.165,6.783l.379,49.117C492.454,720.327,485.942,727.762,486.012,736.835Z" transform="translate(-191.639 -663.962)" fill="#fdf6f0"/>
          <path id="Trazado_5093" data-name="Trazado 5093" d="M198.527,811.917c-3.555,0-6.462-3.222-6.492-7.212l-.382-49.525.378-.01c7.758-.205,14.015-7.443,13.948-16.134s-6.435-15.788-14.2-15.837l-.378,0-.382-49.525a7.709,7.709,0,0,1,1.867-5.167,6.139,6.139,0,0,1,4.573-2.176l205.8-2.074a6.062,6.062,0,0,1,5.319,3,4.168,4.168,0,0,0,3.581,2.153h.04a4.187,4.187,0,0,0,3.586-2.224,6.093,6.093,0,0,1,5.273-3.107l72.344-.729a6.125,6.125,0,0,1,4.605,2.084,7.673,7.673,0,0,1,1.946,5.129l.383,49.518-.383,0a13.524,13.524,0,0,0-10.08,4.792,17.374,17.374,0,0,0,.174,22.616,13.512,13.512,0,0,0,10.153,4.589l.383,0,.382,49.518a7.706,7.706,0,0,1-1.867,5.167,6.137,6.137,0,0,1-4.573,2.176l-72.344.729a6.045,6.045,0,0,1-5.319-3,4.17,4.17,0,0,0-3.581-2.153h-.04a4.187,4.187,0,0,0-3.586,2.224,6.093,6.093,0,0,1-5.273,3.107l-205.8,2.074Zm-6.1-55.887L192.8,804.7c.027,3.53,2.617,6.375,5.778,6.344l205.8-2.074a5.345,5.345,0,0,0,4.637-2.708,4.934,4.934,0,0,1,4.222-2.622,4.858,4.858,0,0,1,4.263,2.539,5.28,5.28,0,0,0,4.677,2.613l72.344-.729a5.42,5.42,0,0,0,4.038-1.92A6.772,6.772,0,0,0,500.2,801.6l-.376-48.648a14.2,14.2,0,0,1-10.308-4.833,17.811,17.811,0,0,1-4.506-11.895h0a17.866,17.866,0,0,1,4.321-11.972,14.277,14.277,0,0,1,10.232-5.039l-.376-48.648a6.739,6.739,0,0,0-1.711-4.505,5.358,5.358,0,0,0-4.067-1.839l-72.344.729a5.346,5.346,0,0,0-4.637,2.708,4.777,4.777,0,0,1-8.484.084,5.316,5.316,0,0,0-4.62-2.613h-.057l-205.8,2.074a5.419,5.419,0,0,0-4.038,1.92,6.772,6.772,0,0,0-1.642,4.539l.376,48.667c8.005.275,14.51,7.678,14.58,16.7S200.425,755.593,192.426,756.03Z" transform="translate(-191.022 -663.345)" fill="#fdf6f0"/>
        </g>
        <path id="Trazado_5094-2" data-name="Trazado 5094" d="M428.954,812.171a2.016,2.016,0,0,1-1.761-.893,8.024,8.024,0,0,0-14.3.163,1.994,1.994,0,0,1-1.737.911l-205.8,2.092a2.42,2.42,0,0,1-2.285-2.533l-.35-45.68c8.228-2.2,14.369-10.651,14.293-20.547s-6.345-18.213-14.606-20.24l-.35-45.68a2.435,2.435,0,0,1,2.246-2.58l205.8-2.091a1.989,1.989,0,0,1,1.761.893,8.024,8.024,0,0,0,14.3-.163,2.024,2.024,0,0,1,1.737-.911l72.344-.735a2.419,2.419,0,0,1,2.285,2.533l.349,45.609c-8.363,2.089-14.6,10.564-14.527,20.607s6.446,18.4,14.84,20.321l.349,45.61a2.434,2.434,0,0,1-2.246,2.579Z" transform="translate(-197.828 -670.024)" fill="#fff"/>
      </g>
    </g>
    <text id="Web_desktop_y_mobile" data-name="Web desktop
y mobile" transform="translate(144.733 155.561)" fill="#232323" font-size="24" font-family="SFProDisplay-Semibold, SF Pro Display" font-weight="600" letter-spacing="0.015em"><tspan x="0" y="23">Web desktop</tspan><tspan x="0" y="48">y mobile</tspan></text>
    <g id="Grupo_1260" data-name="Grupo 1260" transform="translate(512.677 -551.936)">
      <path id="Trazado_5418" data-name="Trazado 5418" d="M-446.042,734.481q0-15.284,0-30.568a8.17,8.17,0,0,1,8.532-8.578q14.816,0,29.632.005c5.351,0,8.767,3.414,8.767,8.765q0,30.411,0,60.823c0,5.294-3.421,8.729-8.691,8.731q-14.763.006-29.527,0c-5.282,0-8.7-3.425-8.706-8.714q-.007-15.231,0-30.463Zm11.335-36.21c-.957,0-1.788,0-2.619,0-3.658,0-5.777,2.118-5.777,5.779q0,30.458,0,60.916c0,3.607,2.113,5.749,5.7,5.753q14.709.015,29.417.008c3.873,0,5.947-2.068,5.948-5.932q0-16.747,0-33.493,0-13.764,0-27.527a5.058,5.058,0,0,0-4.2-5.342,25.286,25.286,0,0,0-4.2-.041c0,.637.027,1.261,0,1.883a4.344,4.344,0,0,1-4.317,4.257q-7.8.063-15.6.008A4.357,4.357,0,0,1-434.7,700.2C-434.723,699.606-434.707,699.014-434.707,698.271Zm21.274.078h-18.342c0,.318,0,.559,0,.8-.016,2.142.309,2.465,2.468,2.465h13.164c2.587,0,2.862-.288,2.768-2.9A3.54,3.54,0,0,0-413.433,698.349Z" transform="translate(0 0)" fill="#e94859"/>
      <path id="Trazado_5419" data-name="Trazado 5419" d="M-389.215,939.951c2.9,0,5.792-.006,8.688,0,1.24,0,1.891.523,1.884,1.46-.007.918-.683,1.471-1.9,1.473q-8.583.015-17.165,0c-1.215,0-1.884-.558-1.878-1.489s.638-1.439,1.9-1.443C-394.867,939.945-392.041,939.951-389.215,939.951Z" transform="translate(-33.46 -176.193)" fill="#e94859"/>
    </g>
  </g>
</svg>
