<svg xmlns="http://www.w3.org/2000/svg" width="347.132" height="201.481" viewBox="0 0 347.132 201.481">
  <g id="Grupo_1211" data-name="Grupo 1211" transform="translate(36 36)">
    <g id="Grupo_893" data-name="Grupo 893" transform="translate(0 0)">
      <path id="Trazado_5094" data-name="Trazado 5094" d="M409.121,801.559a1.833,1.833,0,0,1-1.607-.825,7.285,7.285,0,0,0-13.05.15,1.815,1.815,0,0,1-1.585.841l-187.811,1.931a2.223,2.223,0,0,1-2.085-2.338l-.319-42.167c7.509-2.028,13.113-9.832,13.044-18.967s-5.79-16.812-13.329-18.684l-.319-42.167a2.238,2.238,0,0,1,2.049-2.381l187.811-1.93a1.808,1.808,0,0,1,1.607.825,7.285,7.285,0,0,0,13.05-.151,1.841,1.841,0,0,1,1.585-.841l66.02-.678a2.223,2.223,0,0,1,2.085,2.339l.319,42.1c-7.632,1.928-13.327,9.752-13.257,19.023s5.883,16.986,13.543,18.758l.319,42.1a2.238,2.238,0,0,1-2.049,2.381Z" transform="translate(-202.059 -674.175)" fill="#9f9f9f" opacity="0.3"/>
      <g id="Grupo_892" data-name="Grupo 892" transform="translate(2.504)">
        <g id="Grupo_891" data-name="Grupo 891" transform="translate(0)">
          <path id="Trazado_5092" data-name="Trazado 5092" d="M448.241,727.522c.061,7.919,5.835,14.283,12.907,14.212l.33,42.806c.025,3.291-2.342,5.989-5.281,6.019l-63.049.636a4.983,4.983,0,0,1-4.356-2.448,3.85,3.85,0,0,0-6.837.069,5.009,5.009,0,0,1-4.318,2.535L198.277,793.16c-2.939.029-5.348-2.62-5.373-5.912l-.33-42.817c6.98-.184,12.543-6.618,12.483-14.456s-5.722-14.148-12.7-14.191l-.33-42.818c-.025-3.291,2.342-5.989,5.281-6.019l179.359-1.809a4.982,4.982,0,0,1,4.356,2.448,3.85,3.85,0,0,0,6.837-.069,5.009,5.009,0,0,1,4.318-2.535l63.05-.636c2.939-.029,5.348,2.621,5.373,5.911l.33,42.806C453.855,713.135,448.18,719.615,448.241,727.522Z" transform="translate(-191.688 -664.011)" fill="#fdf6f0"/>
          <path id="Trazado_5093" data-name="Trazado 5093" d="M197.563,792.828c-3.1,0-5.632-2.808-5.658-6.286l-.333-43.162.329-.008c6.762-.179,12.215-6.486,12.156-14.061s-5.608-13.76-12.371-13.8l-.329,0-.333-43.163a6.719,6.719,0,0,1,1.627-4.5,5.351,5.351,0,0,1,3.985-1.9l179.359-1.807a5.283,5.283,0,0,1,4.636,2.613,3.633,3.633,0,0,0,3.121,1.877h.035a3.649,3.649,0,0,0,3.125-1.938,5.31,5.31,0,0,1,4.6-2.707l63.05-.635a5.338,5.338,0,0,1,4.014,1.816,6.688,6.688,0,0,1,1.7,4.47l.333,43.156-.334,0a11.787,11.787,0,0,0-8.785,4.176,15.142,15.142,0,0,0,.152,19.711,11.777,11.777,0,0,0,8.848,4l.334,0,.333,43.156a6.716,6.716,0,0,1-1.627,4.5,5.348,5.348,0,0,1-3.985,1.9l-63.049.636a5.269,5.269,0,0,1-4.635-2.613,3.634,3.634,0,0,0-3.121-1.876h-.035a3.649,3.649,0,0,0-3.125,1.938,5.31,5.31,0,0,1-4.6,2.708l-179.359,1.807Zm-5.317-48.707.327,42.414c.024,3.077,2.28,5.556,5.036,5.529l179.359-1.807a4.659,4.659,0,0,0,4.041-2.36,4.3,4.3,0,0,1,3.68-2.285,4.234,4.234,0,0,1,3.715,2.212,4.6,4.6,0,0,0,4.076,2.277l63.05-.635a4.724,4.724,0,0,0,3.519-1.674,5.9,5.9,0,0,0,1.43-3.956l-.327-42.4a12.373,12.373,0,0,1-8.984-4.212,15.523,15.523,0,0,1-3.927-10.366h0a15.57,15.57,0,0,1,3.766-10.434,12.442,12.442,0,0,1,8.917-4.391l-.328-42.4a5.874,5.874,0,0,0-1.491-3.926,4.669,4.669,0,0,0-3.545-1.6l-63.049.635a4.659,4.659,0,0,0-4.041,2.36,4.164,4.164,0,0,1-7.394.073,4.633,4.633,0,0,0-4.026-2.277H376l-179.359,1.807a4.723,4.723,0,0,0-3.519,1.674,5.9,5.9,0,0,0-1.431,3.956l.327,42.415c6.977.24,12.646,6.692,12.707,14.552S199.217,743.741,192.245,744.122Z" transform="translate(-191.022 -663.345)" fill="#fdf6f0"/>
        </g>
        <path id="Trazado_5094-2" data-name="Trazado 5094" d="M399.8,794.442a1.757,1.757,0,0,1-1.535-.779,6.993,6.993,0,0,0-12.462.142,1.738,1.738,0,0,1-1.514.794l-179.359,1.823a2.109,2.109,0,0,1-1.991-2.208l-.3-39.811c7.171-1.915,12.523-9.283,12.457-17.907s-5.53-15.873-12.729-17.64l-.3-39.811a2.122,2.122,0,0,1,1.957-2.248l179.359-1.823a1.733,1.733,0,0,1,1.535.779,6.993,6.993,0,0,0,12.463-.142,1.764,1.764,0,0,1,1.514-.794l63.049-.641a2.109,2.109,0,0,1,1.991,2.208l.3,39.75c-7.289,1.82-12.728,9.207-12.66,17.96S457.19,750.13,464.5,751.8l.3,39.75a2.121,2.121,0,0,1-1.957,2.248Z" transform="translate(-198.372 -670.557)" fill="#fff"/>
      </g>
    </g>
    <text id="Validador_de_Cupones" data-name="Validador
de Cupones" transform="translate(131.08 41.209)" fill="#232323" font-size="22" font-family="SFProDisplay-Medium, SF Pro Display" font-weight="500" letter-spacing="0.015em"><tspan x="0" y="21">Validador</tspan><tspan x="0" y="46">de Cupones</tspan></text>
    <g id="Grupo_1234" data-name="Grupo 1234" transform="translate(38.797 52.706) rotate(-19)">
      <path id="Trazado_5395" data-name="Trazado 5395" d="M56.868,47.063H5.883A5.889,5.889,0,0,1,0,41.18v-9.8a1.96,1.96,0,0,1,1.961-1.961,5.883,5.883,0,0,0,0-11.766A1.96,1.96,0,0,1,0,15.688v-9.8A5.889,5.889,0,0,1,5.883,0H56.868a5.889,5.889,0,0,1,5.883,5.883v9.8a1.96,1.96,0,0,1-1.961,1.961,5.883,5.883,0,0,0,0,11.766,1.96,1.96,0,0,1,1.961,1.961v9.8a5.89,5.89,0,0,1-5.883,5.883ZM3.922,33.139V41.18a1.962,1.962,0,0,0,1.961,1.961H56.868a1.962,1.962,0,0,0,1.961-1.961V33.139a9.806,9.806,0,0,1,0-19.215V5.883a1.962,1.962,0,0,0-1.961-1.961H5.883A1.962,1.962,0,0,0,3.922,5.883v8.041a9.806,9.806,0,0,1,0,19.215Z" fill="#e94859"/>
      <path id="Trazado_5396" data-name="Trazado 5396" d="M0,31.364,11.762,0l3.672,1.377L3.672,32.741Z" transform="translate(23.657 7.14)" fill="#e94859"/>
      <path id="path-1" d="M5.883,11.766a5.883,5.883,0,1,1,5.883-5.883,5.889,5.889,0,0,1-5.883,5.883Zm0-7.844A1.961,1.961,0,1,0,7.844,5.883,1.962,1.962,0,0,0,5.883,3.922Z" transform="translate(16.216 12.426)" fill="#e94859"/>
      <path id="path-1-2" data-name="path-1" d="M5.883,11.766a5.883,5.883,0,1,1,5.883-5.883A5.889,5.889,0,0,1,5.883,11.766Zm0-7.844A1.961,1.961,0,1,0,7.844,5.883,1.962,1.962,0,0,0,5.883,3.922Z" transform="translate(36.485 24.588)" fill="#e94859"/>
    </g>
  </g>
</svg>
