<svg xmlns="http://www.w3.org/2000/svg" width="39.645" height="32.261" viewBox="0 0 39.645 32.261">
  <path id="Icon_ionic-logo-twitter" data-name="Icon ionic-logo-twitter" d="M41.059,8.323a16.444,16.444,0,0,1-4.671,1.285,8.162,8.162,0,0,0,3.579-4.5A16.162,16.162,0,0,1,34.8,7.079a8.131,8.131,0,0,0-14.072,5.562,7.963,7.963,0,0,0,.21,1.857A23.051,23.051,0,0,1,4.169,5.987,8.15,8.15,0,0,0,6.7,16.858,7.944,7.944,0,0,1,3,15.842v.1a8.141,8.141,0,0,0,6.528,7.981,8.188,8.188,0,0,1-2.142.286,7.673,7.673,0,0,1-1.529-.151,8.147,8.147,0,0,0,7.6,5.654A16.308,16.308,0,0,1,3.354,33.2a16.487,16.487,0,0,1-1.941-.118,22.735,22.735,0,0,0,12.451,3.68c14.979,0,23.162-12.409,23.162-23.171,0-.353-.008-.706-.025-1.05A16.558,16.558,0,0,0,41.059,8.323Z" transform="translate(-1.413 -4.5)" fill="#fff"/>
</svg>
