<svg xmlns="http://www.w3.org/2000/svg" width="32.261" height="32.261" viewBox="0 0 32.261 32.261">
  <path id="Icon_ionic-logo-facebook" data-name="Icon ionic-logo-facebook" d="M34.98,4.5H6.281A1.782,1.782,0,0,0,4.5,6.281v28.7a1.782,1.782,0,0,0,1.781,1.781H20.63V23.991H16.774v-4.7H20.63V15.808c0-4.167,2.89-6.435,6.612-6.435,1.781,0,3.7.134,4.142.193v4.352H28.418c-2.025,0-2.411.958-2.411,2.369v3h4.822l-.63,4.7H26.007v12.77H34.98a1.782,1.782,0,0,0,1.781-1.781V6.281A1.782,1.782,0,0,0,34.98,4.5Z" transform="translate(-4.5 -4.5)" fill="#fff"/>
</svg>
